<mxfile host="app.diagrams.net" modified="2023-10-26T22:17:25.752Z" agent="Mozilla/5.0 (Windows NT 10.0; Win64; x64) AppleWebKit/537.36 (KHTML, like Gecko) Chrome/118.0.0.0 Safari/537.36 Edg/118.0.2088.61" etag="jt0bQfSGoeMP0v7C-1YP" version="22.0.8" type="device">
  <diagram name="Page-1" id="60SgyV_AOSlp5V3RTP25">
    <mxGraphModel dx="5510" dy="1888" grid="1" gridSize="10" guides="1" tooltips="1" connect="1" arrows="1" fold="1" page="1" pageScale="1" pageWidth="850" pageHeight="1100" math="0" shadow="0">
      <root>
        <mxCell id="0" />
        <mxCell id="1" parent="0" />
        <mxCell id="95YDN_He_4LbqwHWjYOd-1" value="Staff_Info" style="swimlane;fontStyle=0;childLayout=stackLayout;horizontal=1;startSize=30;horizontalStack=0;resizeParent=1;resizeParentMax=0;resizeLast=0;collapsible=1;marginBottom=0;whiteSpace=wrap;html=1;" parent="1" vertex="1">
          <mxGeometry x="-140" y="160" width="140" height="210" as="geometry" />
        </mxCell>
        <mxCell id="95YDN_He_4LbqwHWjYOd-2" value="StaffID {PK}" style="text;strokeColor=none;fillColor=none;align=left;verticalAlign=middle;spacingLeft=4;spacingRight=4;overflow=hidden;points=[[0,0.5],[1,0.5]];portConstraint=eastwest;rotatable=0;whiteSpace=wrap;html=1;" parent="95YDN_He_4LbqwHWjYOd-1" vertex="1">
          <mxGeometry y="30" width="140" height="30" as="geometry" />
        </mxCell>
        <mxCell id="95YDN_He_4LbqwHWjYOd-3" value="StaffName" style="text;strokeColor=none;fillColor=none;align=left;verticalAlign=middle;spacingLeft=4;spacingRight=4;overflow=hidden;points=[[0,0.5],[1,0.5]];portConstraint=eastwest;rotatable=0;whiteSpace=wrap;html=1;" parent="95YDN_He_4LbqwHWjYOd-1" vertex="1">
          <mxGeometry y="60" width="140" height="30" as="geometry" />
        </mxCell>
        <mxCell id="95YDN_He_4LbqwHWjYOd-4" value="HomeAddress" style="text;strokeColor=none;fillColor=none;align=left;verticalAlign=middle;spacingLeft=4;spacingRight=4;overflow=hidden;points=[[0,0.5],[1,0.5]];portConstraint=eastwest;rotatable=0;whiteSpace=wrap;html=1;" parent="95YDN_He_4LbqwHWjYOd-1" vertex="1">
          <mxGeometry y="90" width="140" height="30" as="geometry" />
        </mxCell>
        <mxCell id="95YDN_He_4LbqwHWjYOd-5" value="EmailAddress" style="text;strokeColor=none;fillColor=none;align=left;verticalAlign=middle;spacingLeft=4;spacingRight=4;overflow=hidden;points=[[0,0.5],[1,0.5]];portConstraint=eastwest;rotatable=0;whiteSpace=wrap;html=1;" parent="95YDN_He_4LbqwHWjYOd-1" vertex="1">
          <mxGeometry y="120" width="140" height="30" as="geometry" />
        </mxCell>
        <mxCell id="95YDN_He_4LbqwHWjYOd-6" value="MobilePhoneNumber" style="text;strokeColor=none;fillColor=none;align=left;verticalAlign=middle;spacingLeft=4;spacingRight=4;overflow=hidden;points=[[0,0.5],[1,0.5]];portConstraint=eastwest;rotatable=0;whiteSpace=wrap;html=1;" parent="95YDN_He_4LbqwHWjYOd-1" vertex="1">
          <mxGeometry y="150" width="140" height="30" as="geometry" />
        </mxCell>
        <mxCell id="B8OTZHG8Pvcma3Nkbsvs-9" value="Availability (explained)" style="text;strokeColor=none;fillColor=none;align=left;verticalAlign=middle;spacingLeft=4;spacingRight=4;overflow=hidden;points=[[0,0.5],[1,0.5]];portConstraint=eastwest;rotatable=0;whiteSpace=wrap;html=1;" parent="95YDN_He_4LbqwHWjYOd-1" vertex="1">
          <mxGeometry y="180" width="140" height="30" as="geometry" />
        </mxCell>
        <mxCell id="95YDN_He_4LbqwHWjYOd-14" value="Position" style="swimlane;fontStyle=0;childLayout=stackLayout;horizontal=1;startSize=30;horizontalStack=0;resizeParent=1;resizeParentMax=0;resizeLast=0;collapsible=1;marginBottom=0;whiteSpace=wrap;html=1;" parent="1" vertex="1">
          <mxGeometry x="410" y="-30" width="140" height="120" as="geometry" />
        </mxCell>
        <mxCell id="95YDN_He_4LbqwHWjYOd-15" value="PositionID {PK}" style="text;strokeColor=none;fillColor=none;align=left;verticalAlign=middle;spacingLeft=4;spacingRight=4;overflow=hidden;points=[[0,0.5],[1,0.5]];portConstraint=eastwest;rotatable=0;whiteSpace=wrap;html=1;" parent="95YDN_He_4LbqwHWjYOd-14" vertex="1">
          <mxGeometry y="30" width="140" height="30" as="geometry" />
        </mxCell>
        <mxCell id="95YDN_He_4LbqwHWjYOd-16" value="PositionType" style="text;strokeColor=none;fillColor=none;align=left;verticalAlign=middle;spacingLeft=4;spacingRight=4;overflow=hidden;points=[[0,0.5],[1,0.5]];portConstraint=eastwest;rotatable=0;whiteSpace=wrap;html=1;" parent="95YDN_He_4LbqwHWjYOd-14" vertex="1">
          <mxGeometry y="60" width="140" height="30" as="geometry" />
        </mxCell>
        <mxCell id="95YDN_He_4LbqwHWjYOd-17" value="HourlyPayRate" style="text;strokeColor=none;fillColor=none;align=left;verticalAlign=middle;spacingLeft=4;spacingRight=4;overflow=hidden;points=[[0,0.5],[1,0.5]];portConstraint=eastwest;rotatable=0;whiteSpace=wrap;html=1;" parent="95YDN_He_4LbqwHWjYOd-14" vertex="1">
          <mxGeometry y="90" width="140" height="30" as="geometry" />
        </mxCell>
        <mxCell id="95YDN_He_4LbqwHWjYOd-18" value="Staff_Request" style="swimlane;fontStyle=0;childLayout=stackLayout;horizontal=1;startSize=30;horizontalStack=0;resizeParent=1;resizeParentMax=0;resizeLast=0;collapsible=1;marginBottom=0;whiteSpace=wrap;html=1;" parent="1" vertex="1">
          <mxGeometry x="410" y="160" width="140" height="300" as="geometry" />
        </mxCell>
        <mxCell id="B8OTZHG8Pvcma3Nkbsvs-29" value="RequestID {PK}" style="text;strokeColor=none;fillColor=none;align=left;verticalAlign=middle;spacingLeft=4;spacingRight=4;overflow=hidden;points=[[0,0.5],[1,0.5]];portConstraint=eastwest;rotatable=0;whiteSpace=wrap;html=1;" parent="95YDN_He_4LbqwHWjYOd-18" vertex="1">
          <mxGeometry y="30" width="140" height="30" as="geometry" />
        </mxCell>
        <mxCell id="95YDN_He_4LbqwHWjYOd-20" value="PositionID {FK}" style="text;strokeColor=none;fillColor=none;align=left;verticalAlign=middle;spacingLeft=4;spacingRight=4;overflow=hidden;points=[[0,0.5],[1,0.5]];portConstraint=eastwest;rotatable=0;whiteSpace=wrap;html=1;" parent="95YDN_He_4LbqwHWjYOd-18" vertex="1">
          <mxGeometry y="60" width="140" height="30" as="geometry" />
        </mxCell>
        <mxCell id="95YDN_He_4LbqwHWjYOd-27" value="SubjectID {FK}" style="text;strokeColor=none;fillColor=none;align=left;verticalAlign=middle;spacingLeft=4;spacingRight=4;overflow=hidden;points=[[0,0.5],[1,0.5]];portConstraint=eastwest;rotatable=0;whiteSpace=wrap;html=1;" parent="95YDN_He_4LbqwHWjYOd-18" vertex="1">
          <mxGeometry y="90" width="140" height="30" as="geometry" />
        </mxCell>
        <mxCell id="B8OTZHG8Pvcma3Nkbsvs-15" value="Academic Supervisor" style="text;strokeColor=none;fillColor=none;align=left;verticalAlign=middle;spacingLeft=4;spacingRight=4;overflow=hidden;points=[[0,0.5],[1,0.5]];portConstraint=eastwest;rotatable=0;whiteSpace=wrap;html=1;" parent="95YDN_He_4LbqwHWjYOd-18" vertex="1">
          <mxGeometry y="120" width="140" height="30" as="geometry" />
        </mxCell>
        <mxCell id="B8OTZHG8Pvcma3Nkbsvs-16" value="Venue" style="text;strokeColor=none;fillColor=none;align=left;verticalAlign=middle;spacingLeft=4;spacingRight=4;overflow=hidden;points=[[0,0.5],[1,0.5]];portConstraint=eastwest;rotatable=0;whiteSpace=wrap;html=1;" parent="95YDN_He_4LbqwHWjYOd-18" vertex="1">
          <mxGeometry y="150" width="140" height="30" as="geometry" />
        </mxCell>
        <mxCell id="ecRpgacv2wzvQHXJn-4h-44" value="StartDate" style="text;strokeColor=none;fillColor=none;align=left;verticalAlign=middle;spacingLeft=4;spacingRight=4;overflow=hidden;points=[[0,0.5],[1,0.5]];portConstraint=eastwest;rotatable=0;whiteSpace=wrap;html=1;" parent="95YDN_He_4LbqwHWjYOd-18" vertex="1">
          <mxGeometry y="180" width="140" height="30" as="geometry" />
        </mxCell>
        <mxCell id="ecRpgacv2wzvQHXJn-4h-45" value="EndDate" style="text;strokeColor=none;fillColor=none;align=left;verticalAlign=middle;spacingLeft=4;spacingRight=4;overflow=hidden;points=[[0,0.5],[1,0.5]];portConstraint=eastwest;rotatable=0;whiteSpace=wrap;html=1;" parent="95YDN_He_4LbqwHWjYOd-18" vertex="1">
          <mxGeometry y="210" width="140" height="30" as="geometry" />
        </mxCell>
        <mxCell id="ecRpgacv2wzvQHXJn-4h-46" value="DurationPerWeek" style="text;strokeColor=none;fillColor=none;align=left;verticalAlign=middle;spacingLeft=4;spacingRight=4;overflow=hidden;points=[[0,0.5],[1,0.5]];portConstraint=eastwest;rotatable=0;whiteSpace=wrap;html=1;" parent="95YDN_He_4LbqwHWjYOd-18" vertex="1">
          <mxGeometry y="240" width="140" height="30" as="geometry" />
        </mxCell>
        <mxCell id="ecRpgacv2wzvQHXJn-4h-32" value="Express_Recruitment" style="text;strokeColor=none;fillColor=none;align=left;verticalAlign=middle;spacingLeft=4;spacingRight=4;overflow=hidden;points=[[0,0.5],[1,0.5]];portConstraint=eastwest;rotatable=0;whiteSpace=wrap;html=1;" parent="95YDN_He_4LbqwHWjYOd-18" vertex="1">
          <mxGeometry y="270" width="140" height="30" as="geometry" />
        </mxCell>
        <mxCell id="95YDN_He_4LbqwHWjYOd-40" value="Staff_subjects Qualifications" style="swimlane;fontStyle=0;childLayout=stackLayout;horizontal=1;startSize=30;horizontalStack=0;resizeParent=1;resizeParentMax=0;resizeLast=0;collapsible=1;marginBottom=0;whiteSpace=wrap;html=1;" parent="1" vertex="1">
          <mxGeometry x="-70" y="-230" width="140" height="180" as="geometry" />
        </mxCell>
        <mxCell id="95YDN_He_4LbqwHWjYOd-41" value="StaffID {PK, FK}" style="text;strokeColor=none;fillColor=none;align=left;verticalAlign=middle;spacingLeft=4;spacingRight=4;overflow=hidden;points=[[0,0.5],[1,0.5]];portConstraint=eastwest;rotatable=0;whiteSpace=wrap;html=1;" parent="95YDN_He_4LbqwHWjYOd-40" vertex="1">
          <mxGeometry y="30" width="140" height="30" as="geometry" />
        </mxCell>
        <mxCell id="95YDN_He_4LbqwHWjYOd-42" value="SubjectID {PK,FK}" style="text;strokeColor=none;fillColor=none;align=left;verticalAlign=middle;spacingLeft=4;spacingRight=4;overflow=hidden;points=[[0,0.5],[1,0.5]];portConstraint=eastwest;rotatable=0;whiteSpace=wrap;html=1;" parent="95YDN_He_4LbqwHWjYOd-40" vertex="1">
          <mxGeometry y="60" width="140" height="30" as="geometry" />
        </mxCell>
        <mxCell id="95YDN_He_4LbqwHWjYOd-43" value="YearsExperience" style="text;strokeColor=none;fillColor=none;align=left;verticalAlign=middle;spacingLeft=4;spacingRight=4;overflow=hidden;points=[[0,0.5],[1,0.5]];portConstraint=eastwest;rotatable=0;whiteSpace=wrap;html=1;" parent="95YDN_He_4LbqwHWjYOd-40" vertex="1">
          <mxGeometry y="90" width="140" height="30" as="geometry" />
        </mxCell>
        <mxCell id="95YDN_He_4LbqwHWjYOd-44" value="SelfRateCompetitiveness" style="text;strokeColor=none;fillColor=none;align=left;verticalAlign=middle;spacingLeft=4;spacingRight=4;overflow=hidden;points=[[0,0.5],[1,0.5]];portConstraint=eastwest;rotatable=0;whiteSpace=wrap;html=1;" parent="95YDN_He_4LbqwHWjYOd-40" vertex="1">
          <mxGeometry y="120" width="140" height="30" as="geometry" />
        </mxCell>
        <mxCell id="95YDN_He_4LbqwHWjYOd-45" value="Qualifications" style="text;strokeColor=none;fillColor=none;align=left;verticalAlign=middle;spacingLeft=4;spacingRight=4;overflow=hidden;points=[[0,0.5],[1,0.5]];portConstraint=eastwest;rotatable=0;whiteSpace=wrap;html=1;" parent="95YDN_He_4LbqwHWjYOd-40" vertex="1">
          <mxGeometry y="150" width="140" height="30" as="geometry" />
        </mxCell>
        <mxCell id="95YDN_He_4LbqwHWjYOd-46" value="Subjects" style="swimlane;fontStyle=0;childLayout=stackLayout;horizontal=1;startSize=30;horizontalStack=0;resizeParent=1;resizeParentMax=0;resizeLast=0;collapsible=1;marginBottom=0;whiteSpace=wrap;html=1;" parent="1" vertex="1">
          <mxGeometry x="120" width="140" height="90" as="geometry" />
        </mxCell>
        <mxCell id="95YDN_He_4LbqwHWjYOd-47" value="SubjectID {PK}" style="text;strokeColor=none;fillColor=none;align=left;verticalAlign=middle;spacingLeft=4;spacingRight=4;overflow=hidden;points=[[0,0.5],[1,0.5]];portConstraint=eastwest;rotatable=0;whiteSpace=wrap;html=1;" parent="95YDN_He_4LbqwHWjYOd-46" vertex="1">
          <mxGeometry y="30" width="140" height="30" as="geometry" />
        </mxCell>
        <mxCell id="95YDN_He_4LbqwHWjYOd-48" value="SubjectName" style="text;strokeColor=none;fillColor=none;align=left;verticalAlign=middle;spacingLeft=4;spacingRight=4;overflow=hidden;points=[[0,0.5],[1,0.5]];portConstraint=eastwest;rotatable=0;whiteSpace=wrap;html=1;" parent="95YDN_He_4LbqwHWjYOd-46" vertex="1">
          <mxGeometry y="60" width="140" height="30" as="geometry" />
        </mxCell>
        <mxCell id="ecRpgacv2wzvQHXJn-4h-37" value="Recruitment" style="swimlane;fontStyle=0;childLayout=stackLayout;horizontal=1;startSize=30;horizontalStack=0;resizeParent=1;resizeParentMax=0;resizeLast=0;collapsible=1;marginBottom=0;whiteSpace=wrap;html=1;" parent="1" vertex="1">
          <mxGeometry x="110" y="420" width="140" height="150" as="geometry" />
        </mxCell>
        <mxCell id="ecRpgacv2wzvQHXJn-4h-38" value="RecruitmentID {PK}" style="text;strokeColor=none;fillColor=none;align=left;verticalAlign=middle;spacingLeft=4;spacingRight=4;overflow=hidden;points=[[0,0.5],[1,0.5]];portConstraint=eastwest;rotatable=0;whiteSpace=wrap;html=1;" parent="ecRpgacv2wzvQHXJn-4h-37" vertex="1">
          <mxGeometry y="30" width="140" height="30" as="geometry" />
        </mxCell>
        <mxCell id="ecRpgacv2wzvQHXJn-4h-39" value="StaffID {FK}" style="text;strokeColor=none;fillColor=none;align=left;verticalAlign=middle;spacingLeft=4;spacingRight=4;overflow=hidden;points=[[0,0.5],[1,0.5]];portConstraint=eastwest;rotatable=0;whiteSpace=wrap;html=1;" parent="ecRpgacv2wzvQHXJn-4h-37" vertex="1">
          <mxGeometry y="60" width="140" height="30" as="geometry" />
        </mxCell>
        <mxCell id="B8OTZHG8Pvcma3Nkbsvs-14" value="RequestID {FK}" style="text;strokeColor=none;fillColor=none;align=left;verticalAlign=middle;spacingLeft=4;spacingRight=4;overflow=hidden;points=[[0,0.5],[1,0.5]];portConstraint=eastwest;rotatable=0;whiteSpace=wrap;html=1;" parent="ecRpgacv2wzvQHXJn-4h-37" vertex="1">
          <mxGeometry y="90" width="140" height="30" as="geometry" />
        </mxCell>
        <mxCell id="ecRpgacv2wzvQHXJn-4h-40" value="Status" style="text;strokeColor=none;fillColor=none;align=left;verticalAlign=middle;spacingLeft=4;spacingRight=4;overflow=hidden;points=[[0,0.5],[1,0.5]];portConstraint=eastwest;rotatable=0;whiteSpace=wrap;html=1;" parent="ecRpgacv2wzvQHXJn-4h-37" vertex="1">
          <mxGeometry y="120" width="140" height="30" as="geometry" />
        </mxCell>
        <mxCell id="ecRpgacv2wzvQHXJn-4h-49" value="Express Recruitment" style="swimlane;fontStyle=0;childLayout=stackLayout;horizontal=1;startSize=30;horizontalStack=0;resizeParent=1;resizeParentMax=0;resizeLast=0;collapsible=1;marginBottom=0;whiteSpace=wrap;html=1;" parent="1" vertex="1">
          <mxGeometry x="620" y="420" width="140" height="150" as="geometry" />
        </mxCell>
        <mxCell id="ecRpgacv2wzvQHXJn-4h-53" value="ExpressID {PK}" style="text;strokeColor=none;fillColor=none;align=left;verticalAlign=middle;spacingLeft=4;spacingRight=4;overflow=hidden;points=[[0,0.5],[1,0.5]];portConstraint=eastwest;rotatable=0;whiteSpace=wrap;html=1;" parent="ecRpgacv2wzvQHXJn-4h-49" vertex="1">
          <mxGeometry y="30" width="140" height="30" as="geometry" />
        </mxCell>
        <mxCell id="B8OTZHG8Pvcma3Nkbsvs-30" value="RequestID {FK}" style="text;strokeColor=none;fillColor=none;align=left;verticalAlign=middle;spacingLeft=4;spacingRight=4;overflow=hidden;points=[[0,0.5],[1,0.5]];portConstraint=eastwest;rotatable=0;whiteSpace=wrap;html=1;" parent="ecRpgacv2wzvQHXJn-4h-49" vertex="1">
          <mxGeometry y="60" width="140" height="30" as="geometry" />
        </mxCell>
        <mxCell id="B8OTZHG8Pvcma3Nkbsvs-39" value="sentDate" style="text;strokeColor=none;fillColor=none;align=left;verticalAlign=middle;spacingLeft=4;spacingRight=4;overflow=hidden;points=[[0,0.5],[1,0.5]];portConstraint=eastwest;rotatable=0;whiteSpace=wrap;html=1;" parent="ecRpgacv2wzvQHXJn-4h-49" vertex="1">
          <mxGeometry y="90" width="140" height="30" as="geometry" />
        </mxCell>
        <mxCell id="ecRpgacv2wzvQHXJn-4h-55" value="expiredDate" style="text;strokeColor=none;fillColor=none;align=left;verticalAlign=middle;spacingLeft=4;spacingRight=4;overflow=hidden;points=[[0,0.5],[1,0.5]];portConstraint=eastwest;rotatable=0;whiteSpace=wrap;html=1;" parent="ecRpgacv2wzvQHXJn-4h-49" vertex="1">
          <mxGeometry y="120" width="140" height="30" as="geometry" />
        </mxCell>
        <mxCell id="ecRpgacv2wzvQHXJn-4h-60" value="" style="endArrow=none;html=1;rounded=0;entryX=1;entryY=0.5;entryDx=0;entryDy=0;" parent="1" edge="1">
          <mxGeometry width="50" height="50" relative="1" as="geometry">
            <mxPoint x="550" y="10" as="sourcePoint" />
            <mxPoint x="550" y="225" as="targetPoint" />
            <Array as="points">
              <mxPoint x="580" y="10" />
              <mxPoint x="580" y="225" />
            </Array>
          </mxGeometry>
        </mxCell>
        <mxCell id="ecRpgacv2wzvQHXJn-4h-67" value="" style="endArrow=none;html=1;rounded=0;exitX=-0.012;exitY=0.072;exitDx=0;exitDy=0;exitPerimeter=0;entryX=0.583;entryY=0.995;entryDx=0;entryDy=0;entryPerimeter=0;" parent="1" target="95YDN_He_4LbqwHWjYOd-48" edge="1">
          <mxGeometry width="50" height="50" relative="1" as="geometry">
            <mxPoint x="410.00000000000017" y="217.2800000000002" as="sourcePoint" />
            <mxPoint x="202" y="100" as="targetPoint" />
            <Array as="points">
              <mxPoint x="201.68" y="217" />
            </Array>
          </mxGeometry>
        </mxCell>
        <mxCell id="ecRpgacv2wzvQHXJn-4h-68" value="" style="endArrow=none;dashed=1;html=1;dashPattern=1 3;strokeWidth=2;rounded=0;" parent="1" edge="1">
          <mxGeometry width="50" height="50" relative="1" as="geometry">
            <mxPoint x="-1" y="40" as="sourcePoint" />
            <mxPoint x="-1" y="-50" as="targetPoint" />
          </mxGeometry>
        </mxCell>
        <mxCell id="ecRpgacv2wzvQHXJn-4h-69" value="" style="endArrow=none;html=1;rounded=0;" parent="1" edge="1">
          <mxGeometry width="50" height="50" relative="1" as="geometry">
            <mxPoint x="-40" y="160" as="sourcePoint" />
            <mxPoint x="120" y="40" as="targetPoint" />
            <Array as="points">
              <mxPoint x="-40" y="40" />
            </Array>
          </mxGeometry>
        </mxCell>
        <mxCell id="B8OTZHG8Pvcma3Nkbsvs-12" value="" style="endArrow=none;html=1;rounded=0;" parent="1" edge="1">
          <mxGeometry width="50" height="50" relative="1" as="geometry">
            <mxPoint x="110" y="480" as="sourcePoint" />
            <mxPoint x="-80" y="370" as="targetPoint" />
            <Array as="points">
              <mxPoint x="-80" y="480" />
            </Array>
          </mxGeometry>
        </mxCell>
        <mxCell id="B8OTZHG8Pvcma3Nkbsvs-13" value="" style="endArrow=none;html=1;rounded=0;entryX=0.505;entryY=1.037;entryDx=0;entryDy=0;entryPerimeter=0;" parent="1" target="ecRpgacv2wzvQHXJn-4h-32" edge="1">
          <mxGeometry width="50" height="50" relative="1" as="geometry">
            <mxPoint x="251" y="477" as="sourcePoint" />
            <mxPoint x="480" y="460" as="targetPoint" />
            <Array as="points">
              <mxPoint x="480" y="477" />
            </Array>
          </mxGeometry>
        </mxCell>
        <mxCell id="B8OTZHG8Pvcma3Nkbsvs-28" value="" style="endArrow=none;html=1;rounded=0;" parent="1" edge="1">
          <mxGeometry width="50" height="50" relative="1" as="geometry">
            <mxPoint x="550" y="320" as="sourcePoint" />
            <mxPoint x="680" y="420" as="targetPoint" />
            <Array as="points">
              <mxPoint x="680" y="320" />
            </Array>
          </mxGeometry>
        </mxCell>
        <mxCell id="B8OTZHG8Pvcma3Nkbsvs-31" value="" style="endArrow=none;html=1;rounded=0;entryX=0.423;entryY=1.082;entryDx=0;entryDy=0;entryPerimeter=0;" parent="1" edge="1">
          <mxGeometry width="50" height="50" relative="1" as="geometry">
            <mxPoint x="562" y="739" as="sourcePoint" />
            <mxPoint x="679.2199999999998" y="571.46" as="targetPoint" />
            <Array as="points">
              <mxPoint x="680" y="739" />
            </Array>
          </mxGeometry>
        </mxCell>
        <mxCell id="B8OTZHG8Pvcma3Nkbsvs-33" value="Communications" style="swimlane;fontStyle=0;childLayout=stackLayout;horizontal=1;startSize=30;horizontalStack=0;resizeParent=1;resizeParentMax=0;resizeLast=0;collapsible=1;marginBottom=0;whiteSpace=wrap;html=1;" parent="1" vertex="1">
          <mxGeometry x="421" y="671" width="140" height="210" as="geometry" />
        </mxCell>
        <mxCell id="B8OTZHG8Pvcma3Nkbsvs-34" value="CommID {PK}" style="text;strokeColor=none;fillColor=none;align=left;verticalAlign=middle;spacingLeft=4;spacingRight=4;overflow=hidden;points=[[0,0.5],[1,0.5]];portConstraint=eastwest;rotatable=0;whiteSpace=wrap;html=1;" parent="B8OTZHG8Pvcma3Nkbsvs-33" vertex="1">
          <mxGeometry y="30" width="140" height="30" as="geometry" />
        </mxCell>
        <mxCell id="B8OTZHG8Pvcma3Nkbsvs-35" value="ExpressID {FK}" style="text;strokeColor=none;fillColor=none;align=left;verticalAlign=middle;spacingLeft=4;spacingRight=4;overflow=hidden;points=[[0,0.5],[1,0.5]];portConstraint=eastwest;rotatable=0;whiteSpace=wrap;html=1;" parent="B8OTZHG8Pvcma3Nkbsvs-33" vertex="1">
          <mxGeometry y="60" width="140" height="30" as="geometry" />
        </mxCell>
        <mxCell id="B8OTZHG8Pvcma3Nkbsvs-36" value="StaffID {FK}" style="text;strokeColor=none;fillColor=none;align=left;verticalAlign=middle;spacingLeft=4;spacingRight=4;overflow=hidden;points=[[0,0.5],[1,0.5]];portConstraint=eastwest;rotatable=0;whiteSpace=wrap;html=1;" parent="B8OTZHG8Pvcma3Nkbsvs-33" vertex="1">
          <mxGeometry y="90" width="140" height="30" as="geometry" />
        </mxCell>
        <mxCell id="B8OTZHG8Pvcma3Nkbsvs-37" value="CommType" style="text;strokeColor=none;fillColor=none;align=left;verticalAlign=middle;spacingLeft=4;spacingRight=4;overflow=hidden;points=[[0,0.5],[1,0.5]];portConstraint=eastwest;rotatable=0;whiteSpace=wrap;html=1;" parent="B8OTZHG8Pvcma3Nkbsvs-33" vertex="1">
          <mxGeometry y="120" width="140" height="30" as="geometry" />
        </mxCell>
        <mxCell id="B8OTZHG8Pvcma3Nkbsvs-42" value="ResponseTime" style="text;strokeColor=none;fillColor=none;align=left;verticalAlign=middle;spacingLeft=4;spacingRight=4;overflow=hidden;points=[[0,0.5],[1,0.5]];portConstraint=eastwest;rotatable=0;whiteSpace=wrap;html=1;" parent="B8OTZHG8Pvcma3Nkbsvs-33" vertex="1">
          <mxGeometry y="150" width="140" height="30" as="geometry" />
        </mxCell>
        <mxCell id="B8OTZHG8Pvcma3Nkbsvs-41" value="AcceptanceStatus" style="text;strokeColor=none;fillColor=none;align=left;verticalAlign=middle;spacingLeft=4;spacingRight=4;overflow=hidden;points=[[0,0.5],[1,0.5]];portConstraint=eastwest;rotatable=0;whiteSpace=wrap;html=1;" parent="B8OTZHG8Pvcma3Nkbsvs-33" vertex="1">
          <mxGeometry y="180" width="140" height="30" as="geometry" />
        </mxCell>
        <mxCell id="B8OTZHG8Pvcma3Nkbsvs-40" value="" style="endArrow=none;html=1;rounded=0;exitX=0;exitY=0.5;exitDx=0;exitDy=0;" parent="1" source="B8OTZHG8Pvcma3Nkbsvs-35" edge="1">
          <mxGeometry width="50" height="50" relative="1" as="geometry">
            <mxPoint x="-150" y="420" as="sourcePoint" />
            <mxPoint x="-100" y="370" as="targetPoint" />
            <Array as="points">
              <mxPoint x="-100" y="746" />
            </Array>
          </mxGeometry>
        </mxCell>
        <mxCell id="vww7vt43yHL6lgnezQAI-1" value="Staff_Info" style="swimlane;fontStyle=0;childLayout=stackLayout;horizontal=1;startSize=30;horizontalStack=0;resizeParent=1;resizeParentMax=0;resizeLast=0;collapsible=1;marginBottom=0;whiteSpace=wrap;html=1;fillColor=#e1d5e7;strokeColor=#9673a6;" parent="1" vertex="1">
          <mxGeometry x="-1540" width="140" height="240" as="geometry" />
        </mxCell>
        <mxCell id="vww7vt43yHL6lgnezQAI-2" value="StaffID {PK}" style="text;strokeColor=none;fillColor=none;align=left;verticalAlign=middle;spacingLeft=4;spacingRight=4;overflow=hidden;points=[[0,0.5],[1,0.5]];portConstraint=eastwest;rotatable=0;whiteSpace=wrap;html=1;" parent="vww7vt43yHL6lgnezQAI-1" vertex="1">
          <mxGeometry y="30" width="140" height="30" as="geometry" />
        </mxCell>
        <mxCell id="vww7vt43yHL6lgnezQAI-3" value="StaffName" style="text;strokeColor=none;fillColor=none;align=left;verticalAlign=middle;spacingLeft=4;spacingRight=4;overflow=hidden;points=[[0,0.5],[1,0.5]];portConstraint=eastwest;rotatable=0;whiteSpace=wrap;html=1;" parent="vww7vt43yHL6lgnezQAI-1" vertex="1">
          <mxGeometry y="60" width="140" height="30" as="geometry" />
        </mxCell>
        <mxCell id="vww7vt43yHL6lgnezQAI-4" value="HomeAddress" style="text;strokeColor=none;fillColor=none;align=left;verticalAlign=middle;spacingLeft=4;spacingRight=4;overflow=hidden;points=[[0,0.5],[1,0.5]];portConstraint=eastwest;rotatable=0;whiteSpace=wrap;html=1;" parent="vww7vt43yHL6lgnezQAI-1" vertex="1">
          <mxGeometry y="90" width="140" height="30" as="geometry" />
        </mxCell>
        <mxCell id="vww7vt43yHL6lgnezQAI-5" value="EmailAddress" style="text;strokeColor=none;fillColor=none;align=left;verticalAlign=middle;spacingLeft=4;spacingRight=4;overflow=hidden;points=[[0,0.5],[1,0.5]];portConstraint=eastwest;rotatable=0;whiteSpace=wrap;html=1;" parent="vww7vt43yHL6lgnezQAI-1" vertex="1">
          <mxGeometry y="120" width="140" height="30" as="geometry" />
        </mxCell>
        <mxCell id="vww7vt43yHL6lgnezQAI-6" value="MobilePhoneNumber" style="text;strokeColor=none;fillColor=none;align=left;verticalAlign=middle;spacingLeft=4;spacingRight=4;overflow=hidden;points=[[0,0.5],[1,0.5]];portConstraint=eastwest;rotatable=0;whiteSpace=wrap;html=1;" parent="vww7vt43yHL6lgnezQAI-1" vertex="1">
          <mxGeometry y="150" width="140" height="30" as="geometry" />
        </mxCell>
        <mxCell id="vww7vt43yHL6lgnezQAI-268" value="estTimeTravel" style="text;strokeColor=none;fillColor=none;align=left;verticalAlign=middle;spacingLeft=4;spacingRight=4;overflow=hidden;points=[[0,0.5],[1,0.5]];portConstraint=eastwest;rotatable=0;whiteSpace=wrap;html=1;" parent="vww7vt43yHL6lgnezQAI-1" vertex="1">
          <mxGeometry y="180" width="140" height="30" as="geometry" />
        </mxCell>
        <mxCell id="vww7vt43yHL6lgnezQAI-314" value="preferredContactType" style="text;strokeColor=none;fillColor=none;align=left;verticalAlign=middle;spacingLeft=4;spacingRight=4;overflow=hidden;points=[[0,0.5],[1,0.5]];portConstraint=eastwest;rotatable=0;whiteSpace=wrap;html=1;" parent="vww7vt43yHL6lgnezQAI-1" vertex="1">
          <mxGeometry y="210" width="140" height="30" as="geometry" />
        </mxCell>
        <mxCell id="vww7vt43yHL6lgnezQAI-8" value="Subjects_Position" style="swimlane;fontStyle=0;childLayout=stackLayout;horizontal=1;startSize=30;horizontalStack=0;resizeParent=1;resizeParentMax=0;resizeLast=0;collapsible=1;marginBottom=0;whiteSpace=wrap;html=1;fillColor=#e1d5e7;strokeColor=#9673a6;" parent="1" vertex="1">
          <mxGeometry x="-760" y="-200" width="140" height="150" as="geometry" />
        </mxCell>
        <mxCell id="vww7vt43yHL6lgnezQAI-9" value="Subject_PositionID {PK}" style="text;strokeColor=none;fillColor=none;align=left;verticalAlign=middle;spacingLeft=4;spacingRight=4;overflow=hidden;points=[[0,0.5],[1,0.5]];portConstraint=eastwest;rotatable=0;whiteSpace=wrap;html=1;" parent="vww7vt43yHL6lgnezQAI-8" vertex="1">
          <mxGeometry y="30" width="140" height="30" as="geometry" />
        </mxCell>
        <mxCell id="vww7vt43yHL6lgnezQAI-283" value="PositionID {FK}" style="text;strokeColor=none;fillColor=none;align=left;verticalAlign=middle;spacingLeft=4;spacingRight=4;overflow=hidden;points=[[0,0.5],[1,0.5]];portConstraint=eastwest;rotatable=0;whiteSpace=wrap;html=1;" parent="vww7vt43yHL6lgnezQAI-8" vertex="1">
          <mxGeometry y="60" width="140" height="30" as="geometry" />
        </mxCell>
        <mxCell id="vww7vt43yHL6lgnezQAI-260" value="SubjectID {FK}" style="text;strokeColor=none;fillColor=none;align=left;verticalAlign=middle;spacingLeft=4;spacingRight=4;overflow=hidden;points=[[0,0.5],[1,0.5]];portConstraint=eastwest;rotatable=0;whiteSpace=wrap;html=1;" parent="vww7vt43yHL6lgnezQAI-8" vertex="1">
          <mxGeometry y="90" width="140" height="30" as="geometry" />
        </mxCell>
        <mxCell id="vww7vt43yHL6lgnezQAI-11" value="HourlyPayRate" style="text;strokeColor=none;fillColor=none;align=left;verticalAlign=middle;spacingLeft=4;spacingRight=4;overflow=hidden;points=[[0,0.5],[1,0.5]];portConstraint=eastwest;rotatable=0;whiteSpace=wrap;html=1;" parent="vww7vt43yHL6lgnezQAI-8" vertex="1">
          <mxGeometry y="120" width="140" height="30" as="geometry" />
        </mxCell>
        <mxCell id="vww7vt43yHL6lgnezQAI-12" value="Requests" style="swimlane;fontStyle=0;childLayout=stackLayout;horizontal=1;startSize=30;horizontalStack=0;resizeParent=1;resizeParentMax=0;resizeLast=0;collapsible=1;marginBottom=0;whiteSpace=wrap;html=1;fillColor=#e1d5e7;strokeColor=#9673a6;" parent="1" vertex="1">
          <mxGeometry x="-1000" width="140" height="270" as="geometry" />
        </mxCell>
        <mxCell id="vww7vt43yHL6lgnezQAI-13" value="RequestID {PK}" style="text;align=left;verticalAlign=middle;spacingLeft=4;spacingRight=4;overflow=hidden;points=[[0,0.5],[1,0.5]];portConstraint=eastwest;rotatable=0;whiteSpace=wrap;html=1;" parent="vww7vt43yHL6lgnezQAI-12" vertex="1">
          <mxGeometry y="30" width="140" height="30" as="geometry" />
        </mxCell>
        <mxCell id="vww7vt43yHL6lgnezQAI-14" value="Subject_PositionID {FK}" style="text;strokeColor=none;fillColor=none;align=left;verticalAlign=middle;spacingLeft=4;spacingRight=4;overflow=hidden;points=[[0,0.5],[1,0.5]];portConstraint=eastwest;rotatable=0;whiteSpace=wrap;html=1;" parent="vww7vt43yHL6lgnezQAI-12" vertex="1">
          <mxGeometry y="60" width="140" height="30" as="geometry" />
        </mxCell>
        <mxCell id="vww7vt43yHL6lgnezQAI-16" value="Academic_Supervisor {FK}" style="text;strokeColor=none;fillColor=none;align=left;verticalAlign=middle;spacingLeft=4;spacingRight=4;overflow=hidden;points=[[0,0.5],[1,0.5]];portConstraint=eastwest;rotatable=0;whiteSpace=wrap;html=1;" parent="vww7vt43yHL6lgnezQAI-12" vertex="1">
          <mxGeometry y="90" width="140" height="30" as="geometry" />
        </mxCell>
        <mxCell id="vww7vt43yHL6lgnezQAI-18" value="DateStart" style="text;strokeColor=none;fillColor=none;align=left;verticalAlign=middle;spacingLeft=4;spacingRight=4;overflow=hidden;points=[[0,0.5],[1,0.5]];portConstraint=eastwest;rotatable=0;whiteSpace=wrap;html=1;" parent="vww7vt43yHL6lgnezQAI-12" vertex="1">
          <mxGeometry y="120" width="140" height="30" as="geometry" />
        </mxCell>
        <mxCell id="vww7vt43yHL6lgnezQAI-19" value="TeachingDuration" style="text;strokeColor=none;fillColor=none;align=left;verticalAlign=middle;spacingLeft=4;spacingRight=4;overflow=hidden;points=[[0,0.5],[1,0.5]];portConstraint=eastwest;rotatable=0;whiteSpace=wrap;html=1;" parent="vww7vt43yHL6lgnezQAI-12" vertex="1">
          <mxGeometry y="150" width="140" height="30" as="geometry" />
        </mxCell>
        <mxCell id="vww7vt43yHL6lgnezQAI-20" value="WeeklyHours" style="text;strokeColor=none;fillColor=none;align=left;verticalAlign=middle;spacingLeft=4;spacingRight=4;overflow=hidden;points=[[0,0.5],[1,0.5]];portConstraint=eastwest;rotatable=0;whiteSpace=wrap;html=1;" parent="vww7vt43yHL6lgnezQAI-12" vertex="1">
          <mxGeometry y="180" width="140" height="30" as="geometry" />
        </mxCell>
        <mxCell id="vww7vt43yHL6lgnezQAI-17" value="Venue" style="text;strokeColor=none;fillColor=none;align=left;verticalAlign=middle;spacingLeft=4;spacingRight=4;overflow=hidden;points=[[0,0.5],[1,0.5]];portConstraint=eastwest;rotatable=0;whiteSpace=wrap;html=1;" parent="vww7vt43yHL6lgnezQAI-12" vertex="1">
          <mxGeometry y="210" width="140" height="30" as="geometry" />
        </mxCell>
        <mxCell id="vww7vt43yHL6lgnezQAI-21" value="Express_Recruitment" style="text;strokeColor=none;fillColor=none;align=left;verticalAlign=middle;spacingLeft=4;spacingRight=4;overflow=hidden;points=[[0,0.5],[1,0.5]];portConstraint=eastwest;rotatable=0;whiteSpace=wrap;html=1;" parent="vww7vt43yHL6lgnezQAI-12" vertex="1">
          <mxGeometry y="240" width="140" height="30" as="geometry" />
        </mxCell>
        <mxCell id="vww7vt43yHL6lgnezQAI-22" value="Subjects" style="swimlane;fontStyle=0;childLayout=stackLayout;horizontal=1;startSize=30;horizontalStack=0;resizeParent=1;resizeParentMax=0;resizeLast=0;collapsible=1;marginBottom=0;whiteSpace=wrap;html=1;fillColor=#e1d5e7;strokeColor=#9673a6;" parent="1" vertex="1">
          <mxGeometry x="-1220" y="-200" width="140" height="90" as="geometry" />
        </mxCell>
        <mxCell id="vww7vt43yHL6lgnezQAI-23" value="SubjectID {PK}" style="text;strokeColor=none;fillColor=none;align=left;verticalAlign=middle;spacingLeft=4;spacingRight=4;overflow=hidden;points=[[0,0.5],[1,0.5]];portConstraint=eastwest;rotatable=0;whiteSpace=wrap;html=1;" parent="vww7vt43yHL6lgnezQAI-22" vertex="1">
          <mxGeometry y="30" width="140" height="30" as="geometry" />
        </mxCell>
        <mxCell id="vww7vt43yHL6lgnezQAI-24" value="SubjectName" style="text;strokeColor=none;fillColor=none;align=left;verticalAlign=middle;spacingLeft=4;spacingRight=4;overflow=hidden;points=[[0,0.5],[1,0.5]];portConstraint=eastwest;rotatable=0;whiteSpace=wrap;html=1;" parent="vww7vt43yHL6lgnezQAI-22" vertex="1">
          <mxGeometry y="60" width="140" height="30" as="geometry" />
        </mxCell>
        <mxCell id="vww7vt43yHL6lgnezQAI-25" value="Express Recruitment" style="swimlane;fontStyle=0;childLayout=stackLayout;horizontal=1;startSize=30;horizontalStack=0;resizeParent=1;resizeParentMax=0;resizeLast=0;collapsible=1;marginBottom=0;whiteSpace=wrap;html=1;fillColor=#e1d5e7;strokeColor=#9673a6;" parent="1" vertex="1">
          <mxGeometry x="-1000" y="400" width="140" height="150" as="geometry" />
        </mxCell>
        <mxCell id="vww7vt43yHL6lgnezQAI-26" value="ExpressID {PK}" style="text;strokeColor=none;fillColor=none;align=left;verticalAlign=middle;spacingLeft=4;spacingRight=4;overflow=hidden;points=[[0,0.5],[1,0.5]];portConstraint=eastwest;rotatable=0;whiteSpace=wrap;html=1;" parent="vww7vt43yHL6lgnezQAI-25" vertex="1">
          <mxGeometry y="30" width="140" height="30" as="geometry" />
        </mxCell>
        <mxCell id="vww7vt43yHL6lgnezQAI-27" value="RequestID {FK}" style="text;strokeColor=none;fillColor=none;align=left;verticalAlign=middle;spacingLeft=4;spacingRight=4;overflow=hidden;points=[[0,0.5],[1,0.5]];portConstraint=eastwest;rotatable=0;whiteSpace=wrap;html=1;" parent="vww7vt43yHL6lgnezQAI-25" vertex="1">
          <mxGeometry y="60" width="140" height="30" as="geometry" />
        </mxCell>
        <mxCell id="vww7vt43yHL6lgnezQAI-28" value="sentDateTime" style="text;strokeColor=none;fillColor=none;align=left;verticalAlign=middle;spacingLeft=4;spacingRight=4;overflow=hidden;points=[[0,0.5],[1,0.5]];portConstraint=eastwest;rotatable=0;whiteSpace=wrap;html=1;" parent="vww7vt43yHL6lgnezQAI-25" vertex="1">
          <mxGeometry y="90" width="140" height="30" as="geometry" />
        </mxCell>
        <mxCell id="vww7vt43yHL6lgnezQAI-29" value="expiredDateTime" style="text;strokeColor=none;fillColor=none;align=left;verticalAlign=middle;spacingLeft=4;spacingRight=4;overflow=hidden;points=[[0,0.5],[1,0.5]];portConstraint=eastwest;rotatable=0;whiteSpace=wrap;html=1;" parent="vww7vt43yHL6lgnezQAI-25" vertex="1">
          <mxGeometry y="120" width="140" height="30" as="geometry" />
        </mxCell>
        <mxCell id="vww7vt43yHL6lgnezQAI-32" value="" style="endArrow=none;html=1;rounded=0;exitX=0.416;exitY=-0.006;exitDx=0;exitDy=0;exitPerimeter=0;" parent="1" source="vww7vt43yHL6lgnezQAI-1" edge="1">
          <mxGeometry width="50" height="50" relative="1" as="geometry">
            <mxPoint x="-1270" y="-110" as="sourcePoint" />
            <mxPoint x="-1220" y="-160" as="targetPoint" />
            <Array as="points">
              <mxPoint x="-1482" y="-160" />
            </Array>
          </mxGeometry>
        </mxCell>
        <mxCell id="vww7vt43yHL6lgnezQAI-33" value="" style="endArrow=none;html=1;rounded=0;entryX=0.712;entryY=1.03;entryDx=0;entryDy=0;entryPerimeter=0;" parent="1" target="vww7vt43yHL6lgnezQAI-21" edge="1">
          <mxGeometry width="50" height="50" relative="1" as="geometry">
            <mxPoint x="-900" y="400" as="sourcePoint" />
            <mxPoint x="-900" y="300" as="targetPoint" />
          </mxGeometry>
        </mxCell>
        <mxCell id="vww7vt43yHL6lgnezQAI-34" value="" style="endArrow=none;html=1;rounded=0;exitX=0.433;exitY=1.057;exitDx=0;exitDy=0;exitPerimeter=0;" parent="1" source="vww7vt43yHL6lgnezQAI-314" edge="1">
          <mxGeometry width="50" height="50" relative="1" as="geometry">
            <mxPoint x="-1480" y="260" as="sourcePoint" />
            <mxPoint x="-1000" y="480" as="targetPoint" />
            <Array as="points">
              <mxPoint x="-1480" y="480" />
            </Array>
          </mxGeometry>
        </mxCell>
        <mxCell id="vww7vt43yHL6lgnezQAI-35" value="" style="endArrow=none;html=1;rounded=0;exitX=1;exitY=0;exitDx=0;exitDy=0;exitPerimeter=0;" parent="1" source="vww7vt43yHL6lgnezQAI-5" edge="1">
          <mxGeometry width="50" height="50" relative="1" as="geometry">
            <mxPoint x="-1050" y="170" as="sourcePoint" />
            <mxPoint x="-1000" y="120" as="targetPoint" />
          </mxGeometry>
        </mxCell>
        <mxCell id="vww7vt43yHL6lgnezQAI-36" value="Staff_subjects Qualifications" style="swimlane;fontStyle=0;childLayout=stackLayout;horizontal=1;startSize=30;horizontalStack=0;resizeParent=1;resizeParentMax=0;resizeLast=0;collapsible=1;marginBottom=0;whiteSpace=wrap;html=1;fillColor=#e1d5e7;strokeColor=#9673a6;" parent="1" vertex="1">
          <mxGeometry x="-1490" y="-500" width="140" height="240" as="geometry" />
        </mxCell>
        <mxCell id="L3gRwLuE4_txspqH3eWD-1" value="QualificationID {PK}" style="text;strokeColor=none;fillColor=none;align=left;verticalAlign=middle;spacingLeft=4;spacingRight=4;overflow=hidden;points=[[0,0.5],[1,0.5]];portConstraint=eastwest;rotatable=0;whiteSpace=wrap;html=1;" vertex="1" parent="vww7vt43yHL6lgnezQAI-36">
          <mxGeometry y="30" width="140" height="30" as="geometry" />
        </mxCell>
        <mxCell id="vww7vt43yHL6lgnezQAI-274" value="StaffID {FK}" style="text;strokeColor=none;fillColor=none;align=left;verticalAlign=middle;spacingLeft=4;spacingRight=4;overflow=hidden;points=[[0,0.5],[1,0.5]];portConstraint=eastwest;rotatable=0;whiteSpace=wrap;html=1;" parent="vww7vt43yHL6lgnezQAI-36" vertex="1">
          <mxGeometry y="60" width="140" height="30" as="geometry" />
        </mxCell>
        <mxCell id="vww7vt43yHL6lgnezQAI-275" value="SubjectID {FK}" style="text;strokeColor=none;fillColor=none;align=left;verticalAlign=middle;spacingLeft=4;spacingRight=4;overflow=hidden;points=[[0,0.5],[1,0.5]];portConstraint=eastwest;rotatable=0;whiteSpace=wrap;html=1;" parent="vww7vt43yHL6lgnezQAI-36" vertex="1">
          <mxGeometry y="90" width="140" height="30" as="geometry" />
        </mxCell>
        <mxCell id="vww7vt43yHL6lgnezQAI-39" value="YearsExperience" style="text;strokeColor=none;fillColor=none;align=left;verticalAlign=middle;spacingLeft=4;spacingRight=4;overflow=hidden;points=[[0,0.5],[1,0.5]];portConstraint=eastwest;rotatable=0;whiteSpace=wrap;html=1;" parent="vww7vt43yHL6lgnezQAI-36" vertex="1">
          <mxGeometry y="120" width="140" height="30" as="geometry" />
        </mxCell>
        <mxCell id="vww7vt43yHL6lgnezQAI-41" value="Qualifications" style="text;strokeColor=none;fillColor=none;align=left;verticalAlign=middle;spacingLeft=4;spacingRight=4;overflow=hidden;points=[[0,0.5],[1,0.5]];portConstraint=eastwest;rotatable=0;whiteSpace=wrap;html=1;" parent="vww7vt43yHL6lgnezQAI-36" vertex="1">
          <mxGeometry y="150" width="140" height="30" as="geometry" />
        </mxCell>
        <mxCell id="vww7vt43yHL6lgnezQAI-40" value="SelfRateCompetitiveness" style="text;strokeColor=none;fillColor=none;align=left;verticalAlign=middle;spacingLeft=4;spacingRight=4;overflow=hidden;points=[[0,0.5],[1,0.5]];portConstraint=eastwest;rotatable=0;whiteSpace=wrap;html=1;" parent="vww7vt43yHL6lgnezQAI-36" vertex="1">
          <mxGeometry y="180" width="140" height="30" as="geometry" />
        </mxCell>
        <mxCell id="vww7vt43yHL6lgnezQAI-259" value="PositionPreferences" style="text;strokeColor=none;fillColor=none;align=left;verticalAlign=middle;spacingLeft=4;spacingRight=4;overflow=hidden;points=[[0,0.5],[1,0.5]];portConstraint=eastwest;rotatable=0;whiteSpace=wrap;html=1;" parent="vww7vt43yHL6lgnezQAI-36" vertex="1">
          <mxGeometry y="210" width="140" height="30" as="geometry" />
        </mxCell>
        <mxCell id="vww7vt43yHL6lgnezQAI-42" value="" style="endArrow=none;dashed=1;html=1;dashPattern=1 3;strokeWidth=2;rounded=0;entryX=0.5;entryY=1.032;entryDx=0;entryDy=0;entryPerimeter=0;" parent="1" target="vww7vt43yHL6lgnezQAI-259" edge="1">
          <mxGeometry width="50" height="50" relative="1" as="geometry">
            <mxPoint x="-1421" y="-160" as="sourcePoint" />
            <mxPoint x="-1422" y="-268" as="targetPoint" />
          </mxGeometry>
        </mxCell>
        <mxCell id="vww7vt43yHL6lgnezQAI-44" value="Recruitment" style="swimlane;fontStyle=0;childLayout=stackLayout;horizontal=1;startSize=30;horizontalStack=0;resizeParent=1;resizeParentMax=0;resizeLast=0;collapsible=1;marginBottom=0;whiteSpace=wrap;html=1;fillColor=#e1d5e7;strokeColor=#9673a6;" parent="1" vertex="1">
          <mxGeometry x="-1280" y="210" width="140" height="120" as="geometry" />
        </mxCell>
        <mxCell id="vww7vt43yHL6lgnezQAI-46" value="StaffID {PK, FK}" style="text;strokeColor=none;fillColor=none;align=left;verticalAlign=middle;spacingLeft=4;spacingRight=4;overflow=hidden;points=[[0,0.5],[1,0.5]];portConstraint=eastwest;rotatable=0;whiteSpace=wrap;html=1;" parent="vww7vt43yHL6lgnezQAI-44" vertex="1">
          <mxGeometry y="30" width="140" height="30" as="geometry" />
        </mxCell>
        <mxCell id="vww7vt43yHL6lgnezQAI-47" value="RequestID {PK, FK}" style="text;strokeColor=none;fillColor=none;align=left;verticalAlign=middle;spacingLeft=4;spacingRight=4;overflow=hidden;points=[[0,0.5],[1,0.5]];portConstraint=eastwest;rotatable=0;whiteSpace=wrap;html=1;" parent="vww7vt43yHL6lgnezQAI-44" vertex="1">
          <mxGeometry y="60" width="140" height="30" as="geometry" />
        </mxCell>
        <mxCell id="vww7vt43yHL6lgnezQAI-48" value="Status" style="text;strokeColor=none;fillColor=none;align=left;verticalAlign=middle;spacingLeft=4;spacingRight=4;overflow=hidden;points=[[0,0.5],[1,0.5]];portConstraint=eastwest;rotatable=0;whiteSpace=wrap;html=1;" parent="vww7vt43yHL6lgnezQAI-44" vertex="1">
          <mxGeometry y="90" width="140" height="30" as="geometry" />
        </mxCell>
        <mxCell id="vww7vt43yHL6lgnezQAI-49" value="1..*" style="text;html=1;strokeColor=none;fillColor=none;align=center;verticalAlign=middle;whiteSpace=wrap;rounded=0;" parent="1" vertex="1">
          <mxGeometry x="-1280" y="-190" width="60" height="30" as="geometry" />
        </mxCell>
        <mxCell id="vww7vt43yHL6lgnezQAI-50" value="1..*" style="text;html=1;strokeColor=none;fillColor=none;align=center;verticalAlign=middle;whiteSpace=wrap;rounded=0;" parent="1" vertex="1">
          <mxGeometry x="-1480" y="-30" width="60" height="30" as="geometry" />
        </mxCell>
        <mxCell id="vww7vt43yHL6lgnezQAI-51" value="1..*" style="text;html=1;strokeColor=none;fillColor=none;align=center;verticalAlign=middle;whiteSpace=wrap;rounded=0;" parent="1" vertex="1">
          <mxGeometry x="-1400" y="90" width="60" height="30" as="geometry" />
        </mxCell>
        <mxCell id="vww7vt43yHL6lgnezQAI-52" value="0..*" style="text;html=1;strokeColor=none;fillColor=none;align=center;verticalAlign=middle;whiteSpace=wrap;rounded=0;" parent="1" vertex="1">
          <mxGeometry x="-1060" y="90" width="60" height="30" as="geometry" />
        </mxCell>
        <mxCell id="vww7vt43yHL6lgnezQAI-53" value="1..1" style="text;html=1;strokeColor=none;fillColor=none;align=center;verticalAlign=middle;whiteSpace=wrap;rounded=0;" parent="1" vertex="1">
          <mxGeometry x="-1080" y="-170" width="60" height="30" as="geometry" />
        </mxCell>
        <mxCell id="vww7vt43yHL6lgnezQAI-55" value="0..*" style="text;html=1;strokeColor=none;fillColor=none;align=center;verticalAlign=middle;whiteSpace=wrap;rounded=0;" parent="1" vertex="1">
          <mxGeometry x="-1280" y="1370" width="60" height="30" as="geometry" />
        </mxCell>
        <mxCell id="vww7vt43yHL6lgnezQAI-56" value="1..*" style="text;html=1;strokeColor=none;fillColor=none;align=center;verticalAlign=middle;whiteSpace=wrap;rounded=0;" parent="1" vertex="1">
          <mxGeometry x="-820" y="-170" width="60" height="30" as="geometry" />
        </mxCell>
        <mxCell id="vww7vt43yHL6lgnezQAI-57" value="1..1" style="text;html=1;strokeColor=none;fillColor=none;align=center;verticalAlign=middle;whiteSpace=wrap;rounded=0;" parent="1" vertex="1">
          <mxGeometry x="-960" y="270" width="60" height="30" as="geometry" />
        </mxCell>
        <mxCell id="vww7vt43yHL6lgnezQAI-58" value="0..1" style="text;html=1;strokeColor=none;fillColor=none;align=center;verticalAlign=middle;whiteSpace=wrap;rounded=0;" parent="1" vertex="1">
          <mxGeometry x="-960" y="370" width="60" height="30" as="geometry" />
        </mxCell>
        <mxCell id="vww7vt43yHL6lgnezQAI-59" value="0..*" style="text;html=1;strokeColor=none;fillColor=none;align=center;verticalAlign=middle;whiteSpace=wrap;rounded=0;" parent="1" vertex="1">
          <mxGeometry x="-1060" y="450" width="60" height="30" as="geometry" />
        </mxCell>
        <mxCell id="vww7vt43yHL6lgnezQAI-60" value="1..*" style="text;html=1;strokeColor=none;fillColor=none;align=center;verticalAlign=middle;whiteSpace=wrap;rounded=0;" parent="1" vertex="1">
          <mxGeometry x="-1480" y="240" width="60" height="30" as="geometry" />
        </mxCell>
        <mxCell id="vww7vt43yHL6lgnezQAI-61" value="Communications" style="swimlane;fontStyle=0;childLayout=stackLayout;horizontal=1;startSize=30;horizontalStack=0;resizeParent=1;resizeParentMax=0;resizeLast=0;collapsible=1;marginBottom=0;whiteSpace=wrap;html=1;fillColor=#e1d5e7;strokeColor=#9673a6;" parent="1" vertex="1">
          <mxGeometry x="-1320" y="520" width="140" height="150" as="geometry" />
        </mxCell>
        <mxCell id="vww7vt43yHL6lgnezQAI-43" value="" style="endArrow=none;dashed=1;html=1;dashPattern=1 3;strokeWidth=2;rounded=0;" parent="vww7vt43yHL6lgnezQAI-61" edge="1">
          <mxGeometry width="50" height="50" relative="1" as="geometry">
            <mxPoint x="70" as="sourcePoint" />
            <mxPoint x="69.5" y="-40" as="targetPoint" />
          </mxGeometry>
        </mxCell>
        <mxCell id="vww7vt43yHL6lgnezQAI-64" value="StaffID {PK, FK}" style="text;strokeColor=none;fillColor=none;align=left;verticalAlign=middle;spacingLeft=4;spacingRight=4;overflow=hidden;points=[[0,0.5],[1,0.5]];portConstraint=eastwest;rotatable=0;whiteSpace=wrap;html=1;" parent="vww7vt43yHL6lgnezQAI-61" vertex="1">
          <mxGeometry y="30" width="140" height="30" as="geometry" />
        </mxCell>
        <mxCell id="vww7vt43yHL6lgnezQAI-63" value="ExpressID {PK, FK}" style="text;strokeColor=none;fillColor=none;align=left;verticalAlign=middle;spacingLeft=4;spacingRight=4;overflow=hidden;points=[[0,0.5],[1,0.5]];portConstraint=eastwest;rotatable=0;whiteSpace=wrap;html=1;" parent="vww7vt43yHL6lgnezQAI-61" vertex="1">
          <mxGeometry y="60" width="140" height="30" as="geometry" />
        </mxCell>
        <mxCell id="vww7vt43yHL6lgnezQAI-66" value="ResponseDateTime" style="text;strokeColor=none;fillColor=none;align=left;verticalAlign=middle;spacingLeft=4;spacingRight=4;overflow=hidden;points=[[0,0.5],[1,0.5]];portConstraint=eastwest;rotatable=0;whiteSpace=wrap;html=1;" parent="vww7vt43yHL6lgnezQAI-61" vertex="1">
          <mxGeometry y="90" width="140" height="30" as="geometry" />
        </mxCell>
        <mxCell id="vww7vt43yHL6lgnezQAI-67" value="AcceptanceStatus" style="text;strokeColor=none;fillColor=none;align=left;verticalAlign=middle;spacingLeft=4;spacingRight=4;overflow=hidden;points=[[0,0.5],[1,0.5]];portConstraint=eastwest;rotatable=0;whiteSpace=wrap;html=1;" parent="vww7vt43yHL6lgnezQAI-61" vertex="1">
          <mxGeometry y="120" width="140" height="30" as="geometry" />
        </mxCell>
        <mxCell id="vww7vt43yHL6lgnezQAI-68" value="" style="endArrow=none;dashed=1;html=1;dashPattern=1 3;strokeWidth=2;rounded=0;" parent="1" edge="1">
          <mxGeometry width="50" height="50" relative="1" as="geometry">
            <mxPoint x="-1200" y="220" as="sourcePoint" />
            <mxPoint x="-1200" y="130" as="targetPoint" />
          </mxGeometry>
        </mxCell>
        <mxCell id="vww7vt43yHL6lgnezQAI-69" value="&lt;b&gt;Requests&lt;br&gt;&lt;br&gt;&lt;/b&gt;" style="text;html=1;strokeColor=none;fillColor=none;align=center;verticalAlign=middle;whiteSpace=wrap;rounded=0;" parent="1" vertex="1">
          <mxGeometry x="-1240" y="80" width="80" height="30" as="geometry" />
        </mxCell>
        <mxCell id="vww7vt43yHL6lgnezQAI-70" value="&lt;b&gt;Urgently requests&lt;br&gt;&lt;/b&gt;" style="text;html=1;strokeColor=none;fillColor=none;align=center;verticalAlign=middle;whiteSpace=wrap;rounded=0;" parent="1" vertex="1">
          <mxGeometry x="-1305" y="430" width="110" height="30" as="geometry" />
        </mxCell>
        <mxCell id="vww7vt43yHL6lgnezQAI-71" value="&lt;b&gt;Has&lt;br&gt;&lt;/b&gt;" style="text;html=1;strokeColor=none;fillColor=none;align=center;verticalAlign=middle;whiteSpace=wrap;rounded=0;" parent="1" vertex="1">
          <mxGeometry x="-900" y="330" width="50" height="30" as="geometry" />
        </mxCell>
        <mxCell id="vww7vt43yHL6lgnezQAI-73" value="&lt;b&gt;Qualified for&lt;/b&gt;" style="text;html=1;strokeColor=none;fillColor=none;align=center;verticalAlign=middle;whiteSpace=wrap;rounded=0;" parent="1" vertex="1">
          <mxGeometry x="-1480" y="-110" width="60" height="30" as="geometry" />
        </mxCell>
        <mxCell id="vww7vt43yHL6lgnezQAI-76" value="&lt;b&gt;Associates&lt;br&gt;&lt;br&gt;&lt;/b&gt;" style="text;html=1;strokeColor=none;fillColor=none;align=center;verticalAlign=middle;whiteSpace=wrap;rounded=0;" parent="1" vertex="1">
          <mxGeometry x="-957" y="-180" width="80" height="30" as="geometry" />
        </mxCell>
        <mxCell id="vww7vt43yHL6lgnezQAI-78" value="" style="shape=mxgraph.arrows2.wedgeArrow;html=1;bendable=0;startWidth=5.600000000000001;fillColor=strokeColor;defaultFillColor=invert;defaultGradientColor=invert;rounded=0;" parent="1" edge="1">
          <mxGeometry width="100" height="100" relative="1" as="geometry">
            <mxPoint x="-1250" y="464.86" as="sourcePoint" />
            <mxPoint x="-1260" y="464.86" as="targetPoint" />
          </mxGeometry>
        </mxCell>
        <mxCell id="vww7vt43yHL6lgnezQAI-79" value="" style="shape=mxgraph.arrows2.wedgeArrow;html=1;bendable=0;startWidth=5.600000000000001;fillColor=strokeColor;defaultFillColor=invert;defaultGradientColor=invert;rounded=0;" parent="1" edge="1">
          <mxGeometry width="100" height="100" relative="1" as="geometry">
            <mxPoint x="-877" y="360" as="sourcePoint" />
            <mxPoint x="-877" y="370" as="targetPoint" />
          </mxGeometry>
        </mxCell>
        <mxCell id="vww7vt43yHL6lgnezQAI-80" value="" style="shape=mxgraph.arrows2.wedgeArrow;html=1;bendable=0;startWidth=5.600000000000001;fillColor=strokeColor;defaultFillColor=invert;defaultGradientColor=invert;rounded=0;" parent="1" edge="1">
          <mxGeometry width="100" height="100" relative="1" as="geometry">
            <mxPoint x="-1195" y="104.9" as="sourcePoint" />
            <mxPoint x="-1205" y="104.9" as="targetPoint" />
          </mxGeometry>
        </mxCell>
        <mxCell id="vww7vt43yHL6lgnezQAI-81" value="" style="shape=mxgraph.arrows2.wedgeArrow;html=1;bendable=0;startWidth=5.600000000000001;fillColor=strokeColor;defaultFillColor=invert;defaultGradientColor=invert;rounded=0;" parent="1" edge="1">
          <mxGeometry width="100" height="100" relative="1" as="geometry">
            <mxPoint x="-1450" y="-120" as="sourcePoint" />
            <mxPoint x="-1450" y="-130" as="targetPoint" />
          </mxGeometry>
        </mxCell>
        <mxCell id="vww7vt43yHL6lgnezQAI-86" value="" style="shape=mxgraph.arrows2.wedgeArrow;html=1;bendable=0;startWidth=5.600000000000001;fillColor=strokeColor;defaultFillColor=invert;defaultGradientColor=invert;rounded=0;" parent="1" edge="1">
          <mxGeometry width="100" height="100" relative="1" as="geometry">
            <mxPoint x="-920.2" y="-155" as="sourcePoint" />
            <mxPoint x="-910" y="-155" as="targetPoint" />
          </mxGeometry>
        </mxCell>
        <mxCell id="vww7vt43yHL6lgnezQAI-87" value="Staff_Info" style="swimlane;fontStyle=0;childLayout=stackLayout;horizontal=1;startSize=30;horizontalStack=0;resizeParent=1;resizeParentMax=0;resizeLast=0;collapsible=1;marginBottom=0;whiteSpace=wrap;html=1;fillColor=#dae8fc;strokeColor=#6c8ebf;" parent="1" vertex="1">
          <mxGeometry x="-2880" y="80" width="140" height="210" as="geometry" />
        </mxCell>
        <mxCell id="vww7vt43yHL6lgnezQAI-88" value="StaffID {PK}" style="text;strokeColor=none;fillColor=none;align=left;verticalAlign=middle;spacingLeft=4;spacingRight=4;overflow=hidden;points=[[0,0.5],[1,0.5]];portConstraint=eastwest;rotatable=0;whiteSpace=wrap;html=1;" parent="vww7vt43yHL6lgnezQAI-87" vertex="1">
          <mxGeometry y="30" width="140" height="30" as="geometry" />
        </mxCell>
        <mxCell id="vww7vt43yHL6lgnezQAI-89" value="StaffName" style="text;strokeColor=none;fillColor=none;align=left;verticalAlign=middle;spacingLeft=4;spacingRight=4;overflow=hidden;points=[[0,0.5],[1,0.5]];portConstraint=eastwest;rotatable=0;whiteSpace=wrap;html=1;" parent="vww7vt43yHL6lgnezQAI-87" vertex="1">
          <mxGeometry y="60" width="140" height="30" as="geometry" />
        </mxCell>
        <mxCell id="vww7vt43yHL6lgnezQAI-90" value="HomeAddress" style="text;strokeColor=none;fillColor=none;align=left;verticalAlign=middle;spacingLeft=4;spacingRight=4;overflow=hidden;points=[[0,0.5],[1,0.5]];portConstraint=eastwest;rotatable=0;whiteSpace=wrap;html=1;" parent="vww7vt43yHL6lgnezQAI-87" vertex="1">
          <mxGeometry y="90" width="140" height="30" as="geometry" />
        </mxCell>
        <mxCell id="vww7vt43yHL6lgnezQAI-91" value="EmailAddress" style="text;strokeColor=none;fillColor=none;align=left;verticalAlign=middle;spacingLeft=4;spacingRight=4;overflow=hidden;points=[[0,0.5],[1,0.5]];portConstraint=eastwest;rotatable=0;whiteSpace=wrap;html=1;" parent="vww7vt43yHL6lgnezQAI-87" vertex="1">
          <mxGeometry y="120" width="140" height="30" as="geometry" />
        </mxCell>
        <mxCell id="vww7vt43yHL6lgnezQAI-92" value="MobilePhoneNumber" style="text;strokeColor=none;fillColor=none;align=left;verticalAlign=middle;spacingLeft=4;spacingRight=4;overflow=hidden;points=[[0,0.5],[1,0.5]];portConstraint=eastwest;rotatable=0;whiteSpace=wrap;html=1;" parent="vww7vt43yHL6lgnezQAI-87" vertex="1">
          <mxGeometry y="150" width="140" height="30" as="geometry" />
        </mxCell>
        <mxCell id="vww7vt43yHL6lgnezQAI-93" value="estTimeTravel" style="text;strokeColor=none;fillColor=none;align=left;verticalAlign=middle;spacingLeft=4;spacingRight=4;overflow=hidden;points=[[0,0.5],[1,0.5]];portConstraint=eastwest;rotatable=0;whiteSpace=wrap;html=1;" parent="vww7vt43yHL6lgnezQAI-87" vertex="1">
          <mxGeometry y="180" width="140" height="30" as="geometry" />
        </mxCell>
        <mxCell id="vww7vt43yHL6lgnezQAI-94" value="Position" style="swimlane;fontStyle=0;childLayout=stackLayout;horizontal=1;startSize=30;horizontalStack=0;resizeParent=1;resizeParentMax=0;resizeLast=0;collapsible=1;marginBottom=0;whiteSpace=wrap;html=1;fillColor=#dae8fc;strokeColor=#6c8ebf;" parent="1" vertex="1">
          <mxGeometry x="-2000" y="-120" width="140" height="120" as="geometry" />
        </mxCell>
        <mxCell id="vww7vt43yHL6lgnezQAI-95" value="PositionID {PK}" style="text;strokeColor=none;fillColor=none;align=left;verticalAlign=middle;spacingLeft=4;spacingRight=4;overflow=hidden;points=[[0,0.5],[1,0.5]];portConstraint=eastwest;rotatable=0;whiteSpace=wrap;html=1;" parent="vww7vt43yHL6lgnezQAI-94" vertex="1">
          <mxGeometry y="30" width="140" height="30" as="geometry" />
        </mxCell>
        <mxCell id="vww7vt43yHL6lgnezQAI-96" value="PositionType" style="text;strokeColor=none;fillColor=none;align=left;verticalAlign=middle;spacingLeft=4;spacingRight=4;overflow=hidden;points=[[0,0.5],[1,0.5]];portConstraint=eastwest;rotatable=0;whiteSpace=wrap;html=1;" parent="vww7vt43yHL6lgnezQAI-94" vertex="1">
          <mxGeometry y="60" width="140" height="30" as="geometry" />
        </mxCell>
        <mxCell id="vww7vt43yHL6lgnezQAI-97" value="HourlyPayRate" style="text;strokeColor=none;fillColor=none;align=left;verticalAlign=middle;spacingLeft=4;spacingRight=4;overflow=hidden;points=[[0,0.5],[1,0.5]];portConstraint=eastwest;rotatable=0;whiteSpace=wrap;html=1;" parent="vww7vt43yHL6lgnezQAI-94" vertex="1">
          <mxGeometry y="90" width="140" height="30" as="geometry" />
        </mxCell>
        <mxCell id="vww7vt43yHL6lgnezQAI-98" value="Staff_Request" style="swimlane;fontStyle=0;childLayout=stackLayout;horizontal=1;startSize=30;horizontalStack=0;resizeParent=1;resizeParentMax=0;resizeLast=0;collapsible=1;marginBottom=0;whiteSpace=wrap;html=1;fillColor=#dae8fc;strokeColor=#6c8ebf;" parent="1" vertex="1">
          <mxGeometry x="-2240" y="80" width="140" height="300" as="geometry" />
        </mxCell>
        <mxCell id="vww7vt43yHL6lgnezQAI-99" value="RequestID {PK}" style="text;align=left;verticalAlign=middle;spacingLeft=4;spacingRight=4;overflow=hidden;points=[[0,0.5],[1,0.5]];portConstraint=eastwest;rotatable=0;whiteSpace=wrap;html=1;" parent="vww7vt43yHL6lgnezQAI-98" vertex="1">
          <mxGeometry y="30" width="140" height="30" as="geometry" />
        </mxCell>
        <mxCell id="vww7vt43yHL6lgnezQAI-100" value="PositionID {FK}" style="text;strokeColor=none;fillColor=none;align=left;verticalAlign=middle;spacingLeft=4;spacingRight=4;overflow=hidden;points=[[0,0.5],[1,0.5]];portConstraint=eastwest;rotatable=0;whiteSpace=wrap;html=1;" parent="vww7vt43yHL6lgnezQAI-98" vertex="1">
          <mxGeometry y="60" width="140" height="30" as="geometry" />
        </mxCell>
        <mxCell id="vww7vt43yHL6lgnezQAI-101" value="SubjectID {FK}" style="text;strokeColor=none;fillColor=none;align=left;verticalAlign=middle;spacingLeft=4;spacingRight=4;overflow=hidden;points=[[0,0.5],[1,0.5]];portConstraint=eastwest;rotatable=0;whiteSpace=wrap;html=1;" parent="vww7vt43yHL6lgnezQAI-98" vertex="1">
          <mxGeometry y="90" width="140" height="30" as="geometry" />
        </mxCell>
        <mxCell id="vww7vt43yHL6lgnezQAI-102" value="Academic Supervisor" style="text;strokeColor=none;fillColor=none;align=left;verticalAlign=middle;spacingLeft=4;spacingRight=4;overflow=hidden;points=[[0,0.5],[1,0.5]];portConstraint=eastwest;rotatable=0;whiteSpace=wrap;html=1;" parent="vww7vt43yHL6lgnezQAI-98" vertex="1">
          <mxGeometry y="120" width="140" height="30" as="geometry" />
        </mxCell>
        <mxCell id="vww7vt43yHL6lgnezQAI-103" value="Venue" style="text;strokeColor=none;fillColor=none;align=left;verticalAlign=middle;spacingLeft=4;spacingRight=4;overflow=hidden;points=[[0,0.5],[1,0.5]];portConstraint=eastwest;rotatable=0;whiteSpace=wrap;html=1;" parent="vww7vt43yHL6lgnezQAI-98" vertex="1">
          <mxGeometry y="150" width="140" height="30" as="geometry" />
        </mxCell>
        <mxCell id="vww7vt43yHL6lgnezQAI-104" value="StartDate" style="text;strokeColor=none;fillColor=none;align=left;verticalAlign=middle;spacingLeft=4;spacingRight=4;overflow=hidden;points=[[0,0.5],[1,0.5]];portConstraint=eastwest;rotatable=0;whiteSpace=wrap;html=1;" parent="vww7vt43yHL6lgnezQAI-98" vertex="1">
          <mxGeometry y="180" width="140" height="30" as="geometry" />
        </mxCell>
        <mxCell id="vww7vt43yHL6lgnezQAI-105" value="EndDate" style="text;strokeColor=none;fillColor=none;align=left;verticalAlign=middle;spacingLeft=4;spacingRight=4;overflow=hidden;points=[[0,0.5],[1,0.5]];portConstraint=eastwest;rotatable=0;whiteSpace=wrap;html=1;" parent="vww7vt43yHL6lgnezQAI-98" vertex="1">
          <mxGeometry y="210" width="140" height="30" as="geometry" />
        </mxCell>
        <mxCell id="vww7vt43yHL6lgnezQAI-106" value="DurationPerWeek" style="text;strokeColor=none;fillColor=none;align=left;verticalAlign=middle;spacingLeft=4;spacingRight=4;overflow=hidden;points=[[0,0.5],[1,0.5]];portConstraint=eastwest;rotatable=0;whiteSpace=wrap;html=1;" parent="vww7vt43yHL6lgnezQAI-98" vertex="1">
          <mxGeometry y="240" width="140" height="30" as="geometry" />
        </mxCell>
        <mxCell id="vww7vt43yHL6lgnezQAI-107" value="Express_Recruitment" style="text;strokeColor=none;fillColor=none;align=left;verticalAlign=middle;spacingLeft=4;spacingRight=4;overflow=hidden;points=[[0,0.5],[1,0.5]];portConstraint=eastwest;rotatable=0;whiteSpace=wrap;html=1;" parent="vww7vt43yHL6lgnezQAI-98" vertex="1">
          <mxGeometry y="270" width="140" height="30" as="geometry" />
        </mxCell>
        <mxCell id="vww7vt43yHL6lgnezQAI-108" value="Subjects" style="swimlane;fontStyle=0;childLayout=stackLayout;horizontal=1;startSize=30;horizontalStack=0;resizeParent=1;resizeParentMax=0;resizeLast=0;collapsible=1;marginBottom=0;whiteSpace=wrap;html=1;fillColor=#dae8fc;strokeColor=#6c8ebf;" parent="1" vertex="1">
          <mxGeometry x="-2460" y="-120" width="140" height="90" as="geometry" />
        </mxCell>
        <mxCell id="vww7vt43yHL6lgnezQAI-109" value="SubjectID {PK}" style="text;strokeColor=none;fillColor=none;align=left;verticalAlign=middle;spacingLeft=4;spacingRight=4;overflow=hidden;points=[[0,0.5],[1,0.5]];portConstraint=eastwest;rotatable=0;whiteSpace=wrap;html=1;" parent="vww7vt43yHL6lgnezQAI-108" vertex="1">
          <mxGeometry y="30" width="140" height="30" as="geometry" />
        </mxCell>
        <mxCell id="vww7vt43yHL6lgnezQAI-110" value="SubjectName" style="text;strokeColor=none;fillColor=none;align=left;verticalAlign=middle;spacingLeft=4;spacingRight=4;overflow=hidden;points=[[0,0.5],[1,0.5]];portConstraint=eastwest;rotatable=0;whiteSpace=wrap;html=1;" parent="vww7vt43yHL6lgnezQAI-108" vertex="1">
          <mxGeometry y="60" width="140" height="30" as="geometry" />
        </mxCell>
        <mxCell id="vww7vt43yHL6lgnezQAI-111" value="Express Recruitment" style="swimlane;fontStyle=0;childLayout=stackLayout;horizontal=1;startSize=30;horizontalStack=0;resizeParent=1;resizeParentMax=0;resizeLast=0;collapsible=1;marginBottom=0;whiteSpace=wrap;html=1;fillColor=#dae8fc;strokeColor=#6c8ebf;" parent="1" vertex="1">
          <mxGeometry x="-2240" y="480" width="140" height="150" as="geometry" />
        </mxCell>
        <mxCell id="vww7vt43yHL6lgnezQAI-112" value="ExpressID {PK}" style="text;strokeColor=none;fillColor=none;align=left;verticalAlign=middle;spacingLeft=4;spacingRight=4;overflow=hidden;points=[[0,0.5],[1,0.5]];portConstraint=eastwest;rotatable=0;whiteSpace=wrap;html=1;" parent="vww7vt43yHL6lgnezQAI-111" vertex="1">
          <mxGeometry y="30" width="140" height="30" as="geometry" />
        </mxCell>
        <mxCell id="vww7vt43yHL6lgnezQAI-113" value="RequestID {FK}" style="text;strokeColor=none;fillColor=none;align=left;verticalAlign=middle;spacingLeft=4;spacingRight=4;overflow=hidden;points=[[0,0.5],[1,0.5]];portConstraint=eastwest;rotatable=0;whiteSpace=wrap;html=1;" parent="vww7vt43yHL6lgnezQAI-111" vertex="1">
          <mxGeometry y="60" width="140" height="30" as="geometry" />
        </mxCell>
        <mxCell id="vww7vt43yHL6lgnezQAI-114" value="sentDateTime" style="text;strokeColor=none;fillColor=none;align=left;verticalAlign=middle;spacingLeft=4;spacingRight=4;overflow=hidden;points=[[0,0.5],[1,0.5]];portConstraint=eastwest;rotatable=0;whiteSpace=wrap;html=1;" parent="vww7vt43yHL6lgnezQAI-111" vertex="1">
          <mxGeometry y="90" width="140" height="30" as="geometry" />
        </mxCell>
        <mxCell id="vww7vt43yHL6lgnezQAI-115" value="expiredDateTime" style="text;strokeColor=none;fillColor=none;align=left;verticalAlign=middle;spacingLeft=4;spacingRight=4;overflow=hidden;points=[[0,0.5],[1,0.5]];portConstraint=eastwest;rotatable=0;whiteSpace=wrap;html=1;" parent="vww7vt43yHL6lgnezQAI-111" vertex="1">
          <mxGeometry y="120" width="140" height="30" as="geometry" />
        </mxCell>
        <mxCell id="vww7vt43yHL6lgnezQAI-116" value="" style="endArrow=none;html=1;rounded=0;entryX=1;entryY=0.5;entryDx=0;entryDy=0;" parent="1" target="vww7vt43yHL6lgnezQAI-109" edge="1">
          <mxGeometry width="50" height="50" relative="1" as="geometry">
            <mxPoint x="-2200" y="80" as="sourcePoint" />
            <mxPoint x="-2150" y="30" as="targetPoint" />
            <Array as="points">
              <mxPoint x="-2200" y="-75" />
            </Array>
          </mxGeometry>
        </mxCell>
        <mxCell id="vww7vt43yHL6lgnezQAI-117" value="" style="endArrow=none;html=1;rounded=0;exitX=0.856;exitY=0.001;exitDx=0;exitDy=0;exitPerimeter=0;" parent="1" source="vww7vt43yHL6lgnezQAI-98" edge="1">
          <mxGeometry width="50" height="50" relative="1" as="geometry">
            <mxPoint x="-2050" y="-30" as="sourcePoint" />
            <mxPoint x="-2000" y="-80" as="targetPoint" />
            <Array as="points">
              <mxPoint x="-2120" y="-80" />
            </Array>
          </mxGeometry>
        </mxCell>
        <mxCell id="vww7vt43yHL6lgnezQAI-119" value="" style="endArrow=none;html=1;rounded=0;" parent="1" edge="1">
          <mxGeometry width="50" height="50" relative="1" as="geometry">
            <mxPoint x="-2140" y="480" as="sourcePoint" />
            <mxPoint x="-2140" y="380" as="targetPoint" />
          </mxGeometry>
        </mxCell>
        <mxCell id="vww7vt43yHL6lgnezQAI-122" value="Staff_subjects Qualifications" style="swimlane;fontStyle=0;childLayout=stackLayout;horizontal=1;startSize=30;horizontalStack=0;resizeParent=1;resizeParentMax=0;resizeLast=0;collapsible=1;marginBottom=0;whiteSpace=wrap;html=1;fillColor=#dae8fc;strokeColor=#6c8ebf;" parent="1" vertex="1">
          <mxGeometry x="-2780" y="-155" width="140" height="120" as="geometry" />
        </mxCell>
        <mxCell id="vww7vt43yHL6lgnezQAI-123" value="YearsExperience" style="text;strokeColor=none;fillColor=none;align=left;verticalAlign=middle;spacingLeft=4;spacingRight=4;overflow=hidden;points=[[0,0.5],[1,0.5]];portConstraint=eastwest;rotatable=0;whiteSpace=wrap;html=1;" parent="vww7vt43yHL6lgnezQAI-122" vertex="1">
          <mxGeometry y="30" width="140" height="30" as="geometry" />
        </mxCell>
        <mxCell id="vww7vt43yHL6lgnezQAI-124" value="SelfRateCompetitiveness" style="text;strokeColor=none;fillColor=none;align=left;verticalAlign=middle;spacingLeft=4;spacingRight=4;overflow=hidden;points=[[0,0.5],[1,0.5]];portConstraint=eastwest;rotatable=0;whiteSpace=wrap;html=1;" parent="vww7vt43yHL6lgnezQAI-122" vertex="1">
          <mxGeometry y="60" width="140" height="30" as="geometry" />
        </mxCell>
        <mxCell id="vww7vt43yHL6lgnezQAI-125" value="Qualifications" style="text;strokeColor=none;fillColor=none;align=left;verticalAlign=middle;spacingLeft=4;spacingRight=4;overflow=hidden;points=[[0,0.5],[1,0.5]];portConstraint=eastwest;rotatable=0;whiteSpace=wrap;html=1;" parent="vww7vt43yHL6lgnezQAI-122" vertex="1">
          <mxGeometry y="90" width="140" height="30" as="geometry" />
        </mxCell>
        <mxCell id="vww7vt43yHL6lgnezQAI-127" value="Recruitment" style="swimlane;fontStyle=0;childLayout=stackLayout;horizontal=1;startSize=30;horizontalStack=0;resizeParent=1;resizeParentMax=0;resizeLast=0;collapsible=1;marginBottom=0;whiteSpace=wrap;html=1;fillColor=#dae8fc;strokeColor=#6c8ebf;" parent="1" vertex="1">
          <mxGeometry x="-2560" y="120" width="140" height="120" as="geometry" />
        </mxCell>
        <mxCell id="vww7vt43yHL6lgnezQAI-128" value="StaffID {PK, FK}" style="text;strokeColor=none;fillColor=none;align=left;verticalAlign=middle;spacingLeft=4;spacingRight=4;overflow=hidden;points=[[0,0.5],[1,0.5]];portConstraint=eastwest;rotatable=0;whiteSpace=wrap;html=1;" parent="vww7vt43yHL6lgnezQAI-127" vertex="1">
          <mxGeometry y="30" width="140" height="30" as="geometry" />
        </mxCell>
        <mxCell id="vww7vt43yHL6lgnezQAI-129" value="RequestID {PK, FK}" style="text;strokeColor=none;fillColor=none;align=left;verticalAlign=middle;spacingLeft=4;spacingRight=4;overflow=hidden;points=[[0,0.5],[1,0.5]];portConstraint=eastwest;rotatable=0;whiteSpace=wrap;html=1;" parent="vww7vt43yHL6lgnezQAI-127" vertex="1">
          <mxGeometry y="60" width="140" height="30" as="geometry" />
        </mxCell>
        <mxCell id="vww7vt43yHL6lgnezQAI-130" value="Status" style="text;strokeColor=none;fillColor=none;align=left;verticalAlign=middle;spacingLeft=4;spacingRight=4;overflow=hidden;points=[[0,0.5],[1,0.5]];portConstraint=eastwest;rotatable=0;whiteSpace=wrap;html=1;" parent="vww7vt43yHL6lgnezQAI-127" vertex="1">
          <mxGeometry y="90" width="140" height="30" as="geometry" />
        </mxCell>
        <mxCell id="vww7vt43yHL6lgnezQAI-131" value="1..*" style="text;html=1;strokeColor=none;fillColor=none;align=center;verticalAlign=middle;whiteSpace=wrap;rounded=0;" parent="1" vertex="1">
          <mxGeometry x="-2640" y="-110" width="60" height="30" as="geometry" />
        </mxCell>
        <mxCell id="vww7vt43yHL6lgnezQAI-132" value="1..*" style="text;html=1;strokeColor=none;fillColor=none;align=center;verticalAlign=middle;whiteSpace=wrap;rounded=0;" parent="1" vertex="1">
          <mxGeometry x="-2780" y="-35" width="60" height="30" as="geometry" />
        </mxCell>
        <mxCell id="vww7vt43yHL6lgnezQAI-135" value="1..1" style="text;html=1;strokeColor=none;fillColor=none;align=center;verticalAlign=middle;whiteSpace=wrap;rounded=0;" parent="1" vertex="1">
          <mxGeometry x="-2320" y="-110" width="60" height="30" as="geometry" />
        </mxCell>
        <mxCell id="vww7vt43yHL6lgnezQAI-136" value="1..*" style="text;html=1;strokeColor=none;fillColor=none;align=center;verticalAlign=middle;whiteSpace=wrap;rounded=0;" parent="1" vertex="1">
          <mxGeometry x="-2260" y="50" width="60" height="30" as="geometry" />
        </mxCell>
        <mxCell id="vww7vt43yHL6lgnezQAI-137" value="1..*" style="text;html=1;strokeColor=none;fillColor=none;align=center;verticalAlign=middle;whiteSpace=wrap;rounded=0;" parent="1" vertex="1">
          <mxGeometry x="-2120" y="50" width="60" height="30" as="geometry" />
        </mxCell>
        <mxCell id="vww7vt43yHL6lgnezQAI-138" value="1..1" style="text;html=1;strokeColor=none;fillColor=none;align=center;verticalAlign=middle;whiteSpace=wrap;rounded=0;" parent="1" vertex="1">
          <mxGeometry x="-2060" y="-110" width="60" height="30" as="geometry" />
        </mxCell>
        <mxCell id="vww7vt43yHL6lgnezQAI-139" value="1..1" style="text;html=1;strokeColor=none;fillColor=none;align=center;verticalAlign=middle;whiteSpace=wrap;rounded=0;" parent="1" vertex="1">
          <mxGeometry x="-2200" y="380" width="60" height="30" as="geometry" />
        </mxCell>
        <mxCell id="vww7vt43yHL6lgnezQAI-140" value="0..1" style="text;html=1;strokeColor=none;fillColor=none;align=center;verticalAlign=middle;whiteSpace=wrap;rounded=0;" parent="1" vertex="1">
          <mxGeometry x="-2200" y="450" width="60" height="30" as="geometry" />
        </mxCell>
        <mxCell id="vww7vt43yHL6lgnezQAI-141" value="1..*" style="text;html=1;strokeColor=none;fillColor=none;align=center;verticalAlign=middle;whiteSpace=wrap;rounded=0;" parent="1" vertex="1">
          <mxGeometry x="-2420" y="170" width="60" height="30" as="geometry" />
        </mxCell>
        <mxCell id="vww7vt43yHL6lgnezQAI-142" value="1..1" style="text;html=1;strokeColor=none;fillColor=none;align=center;verticalAlign=middle;whiteSpace=wrap;rounded=0;" parent="1" vertex="1">
          <mxGeometry x="-2740" y="170" width="60" height="30" as="geometry" />
        </mxCell>
        <mxCell id="vww7vt43yHL6lgnezQAI-143" value="Communications" style="swimlane;fontStyle=0;childLayout=stackLayout;horizontal=1;startSize=30;horizontalStack=0;resizeParent=1;resizeParentMax=0;resizeLast=0;collapsible=1;marginBottom=0;whiteSpace=wrap;html=1;fillColor=#dae8fc;strokeColor=#6c8ebf;" parent="1" vertex="1">
          <mxGeometry x="-2560" y="460" width="140" height="180" as="geometry" />
        </mxCell>
        <mxCell id="vww7vt43yHL6lgnezQAI-145" value="StaffID {FK}" style="text;strokeColor=none;fillColor=none;align=left;verticalAlign=middle;spacingLeft=4;spacingRight=4;overflow=hidden;points=[[0,0.5],[1,0.5]];portConstraint=eastwest;rotatable=0;whiteSpace=wrap;html=1;" parent="vww7vt43yHL6lgnezQAI-143" vertex="1">
          <mxGeometry y="30" width="140" height="30" as="geometry" />
        </mxCell>
        <mxCell id="vww7vt43yHL6lgnezQAI-146" value="ExpressID {FK}" style="text;strokeColor=none;fillColor=none;align=left;verticalAlign=middle;spacingLeft=4;spacingRight=4;overflow=hidden;points=[[0,0.5],[1,0.5]];portConstraint=eastwest;rotatable=0;whiteSpace=wrap;html=1;" parent="vww7vt43yHL6lgnezQAI-143" vertex="1">
          <mxGeometry y="60" width="140" height="30" as="geometry" />
        </mxCell>
        <mxCell id="vww7vt43yHL6lgnezQAI-147" value="CommType" style="text;strokeColor=none;fillColor=none;align=left;verticalAlign=middle;spacingLeft=4;spacingRight=4;overflow=hidden;points=[[0,0.5],[1,0.5]];portConstraint=eastwest;rotatable=0;whiteSpace=wrap;html=1;" parent="vww7vt43yHL6lgnezQAI-143" vertex="1">
          <mxGeometry y="90" width="140" height="30" as="geometry" />
        </mxCell>
        <mxCell id="vww7vt43yHL6lgnezQAI-148" value="ResponseTime" style="text;strokeColor=none;fillColor=none;align=left;verticalAlign=middle;spacingLeft=4;spacingRight=4;overflow=hidden;points=[[0,0.5],[1,0.5]];portConstraint=eastwest;rotatable=0;whiteSpace=wrap;html=1;" parent="vww7vt43yHL6lgnezQAI-143" vertex="1">
          <mxGeometry y="120" width="140" height="30" as="geometry" />
        </mxCell>
        <mxCell id="vww7vt43yHL6lgnezQAI-149" value="AcceptanceStatus" style="text;strokeColor=none;fillColor=none;align=left;verticalAlign=middle;spacingLeft=4;spacingRight=4;overflow=hidden;points=[[0,0.5],[1,0.5]];portConstraint=eastwest;rotatable=0;whiteSpace=wrap;html=1;" parent="vww7vt43yHL6lgnezQAI-143" vertex="1">
          <mxGeometry y="150" width="140" height="30" as="geometry" />
        </mxCell>
        <mxCell id="vww7vt43yHL6lgnezQAI-151" value="&lt;b&gt;Requests&lt;br&gt;&lt;/b&gt;" style="text;html=1;strokeColor=none;fillColor=none;align=center;verticalAlign=middle;whiteSpace=wrap;rounded=0;" parent="1" vertex="1">
          <mxGeometry x="-2370" y="160" width="80" height="20" as="geometry" />
        </mxCell>
        <mxCell id="vww7vt43yHL6lgnezQAI-152" value="&lt;b&gt;Urgently requests&lt;br&gt;&lt;/b&gt;" style="text;html=1;strokeColor=none;fillColor=none;align=center;verticalAlign=middle;whiteSpace=wrap;rounded=0;" parent="1" vertex="1">
          <mxGeometry x="-2380" y="500" width="110" height="30" as="geometry" />
        </mxCell>
        <mxCell id="vww7vt43yHL6lgnezQAI-153" value="&lt;b&gt;Has&lt;br&gt;&lt;/b&gt;" style="text;html=1;strokeColor=none;fillColor=none;align=center;verticalAlign=middle;whiteSpace=wrap;rounded=0;" parent="1" vertex="1">
          <mxGeometry x="-2140" y="410" width="60" height="30" as="geometry" />
        </mxCell>
        <mxCell id="vww7vt43yHL6lgnezQAI-154" value="&lt;b&gt;Qualified for&lt;/b&gt;" style="text;html=1;strokeColor=none;fillColor=none;align=center;verticalAlign=middle;whiteSpace=wrap;rounded=0;" parent="1" vertex="1">
          <mxGeometry x="-2720" width="60" height="30" as="geometry" />
        </mxCell>
        <mxCell id="vww7vt43yHL6lgnezQAI-155" value="&lt;b&gt;Associates&lt;br&gt;&lt;br&gt;&lt;/b&gt;" style="text;html=1;strokeColor=none;fillColor=none;align=center;verticalAlign=middle;whiteSpace=wrap;rounded=0;" parent="1" vertex="1">
          <mxGeometry x="-2260" y="-30" width="50" height="30" as="geometry" />
        </mxCell>
        <mxCell id="vww7vt43yHL6lgnezQAI-156" value="&lt;b&gt;Associates&lt;br&gt;&lt;br&gt;&lt;/b&gt;" style="text;html=1;strokeColor=none;fillColor=none;align=center;verticalAlign=middle;whiteSpace=wrap;rounded=0;" parent="1" vertex="1">
          <mxGeometry x="-2120" y="-30" width="80" height="30" as="geometry" />
        </mxCell>
        <mxCell id="vww7vt43yHL6lgnezQAI-157" value="" style="shape=mxgraph.arrows2.wedgeArrow;html=1;bendable=0;startWidth=5.600000000000001;fillColor=strokeColor;defaultFillColor=invert;defaultGradientColor=invert;rounded=0;" parent="1" edge="1">
          <mxGeometry width="100" height="100" relative="1" as="geometry">
            <mxPoint x="-2320" y="540" as="sourcePoint" />
            <mxPoint x="-2330" y="540" as="targetPoint" />
          </mxGeometry>
        </mxCell>
        <mxCell id="vww7vt43yHL6lgnezQAI-158" value="" style="shape=mxgraph.arrows2.wedgeArrow;html=1;bendable=0;startWidth=5.600000000000001;fillColor=strokeColor;defaultFillColor=invert;defaultGradientColor=invert;rounded=0;" parent="1" edge="1">
          <mxGeometry width="100" height="100" relative="1" as="geometry">
            <mxPoint x="-2110.17" y="440" as="sourcePoint" />
            <mxPoint x="-2110.17" y="450" as="targetPoint" />
          </mxGeometry>
        </mxCell>
        <mxCell id="vww7vt43yHL6lgnezQAI-159" value="" style="shape=mxgraph.arrows2.wedgeArrow;html=1;bendable=0;startWidth=5.600000000000001;fillColor=strokeColor;defaultFillColor=invert;defaultGradientColor=invert;rounded=0;" parent="1" edge="1">
          <mxGeometry width="100" height="100" relative="1" as="geometry">
            <mxPoint x="-2325" y="184.79" as="sourcePoint" />
            <mxPoint x="-2335" y="184.79" as="targetPoint" />
          </mxGeometry>
        </mxCell>
        <mxCell id="vww7vt43yHL6lgnezQAI-160" value="" style="shape=mxgraph.arrows2.wedgeArrow;html=1;bendable=0;startWidth=5.600000000000001;fillColor=strokeColor;defaultFillColor=invert;defaultGradientColor=invert;rounded=0;" parent="1" edge="1">
          <mxGeometry width="100" height="100" relative="1" as="geometry">
            <mxPoint x="-2690" y="-10" as="sourcePoint" />
            <mxPoint x="-2690" y="-20" as="targetPoint" />
          </mxGeometry>
        </mxCell>
        <mxCell id="vww7vt43yHL6lgnezQAI-161" value="" style="shape=mxgraph.arrows2.wedgeArrow;html=1;bendable=0;startWidth=5.600000000000001;fillColor=strokeColor;defaultFillColor=invert;defaultGradientColor=invert;rounded=0;" parent="1" edge="1">
          <mxGeometry width="100" height="100" relative="1" as="geometry">
            <mxPoint x="-2240" y="-10" as="sourcePoint" />
            <mxPoint x="-2240" as="targetPoint" />
          </mxGeometry>
        </mxCell>
        <mxCell id="vww7vt43yHL6lgnezQAI-162" value="" style="shape=mxgraph.arrows2.wedgeArrow;html=1;bendable=0;startWidth=5.600000000000001;fillColor=strokeColor;defaultFillColor=invert;defaultGradientColor=invert;rounded=0;" parent="1" edge="1">
          <mxGeometry width="100" height="100" relative="1" as="geometry">
            <mxPoint x="-2080.1" y="-10" as="sourcePoint" />
            <mxPoint x="-2080.1" as="targetPoint" />
          </mxGeometry>
        </mxCell>
        <mxCell id="vww7vt43yHL6lgnezQAI-163" value="" style="endArrow=none;html=1;rounded=0;exitX=1;exitY=0.5;exitDx=0;exitDy=0;" parent="1" source="vww7vt43yHL6lgnezQAI-124" edge="1">
          <mxGeometry width="50" height="50" relative="1" as="geometry">
            <mxPoint x="-2510" y="-30" as="sourcePoint" />
            <mxPoint x="-2460" y="-80" as="targetPoint" />
          </mxGeometry>
        </mxCell>
        <mxCell id="vww7vt43yHL6lgnezQAI-165" value="" style="endArrow=none;html=1;rounded=0;exitX=0.999;exitY=0.333;exitDx=0;exitDy=0;entryX=0.428;entryY=1.017;entryDx=0;entryDy=0;entryPerimeter=0;exitPerimeter=0;" parent="1" source="vww7vt43yHL6lgnezQAI-88" target="vww7vt43yHL6lgnezQAI-125" edge="1">
          <mxGeometry width="50" height="50" relative="1" as="geometry">
            <mxPoint x="-2770" y="20" as="sourcePoint" />
            <mxPoint x="-2720" y="-30" as="targetPoint" />
            <Array as="points">
              <mxPoint x="-2720" y="120" />
            </Array>
          </mxGeometry>
        </mxCell>
        <mxCell id="vww7vt43yHL6lgnezQAI-242" value="1..1" style="text;html=1;strokeColor=none;fillColor=none;align=center;verticalAlign=middle;whiteSpace=wrap;rounded=0;" parent="1" vertex="1">
          <mxGeometry x="-2300" y="170" width="60" height="30" as="geometry" />
        </mxCell>
        <mxCell id="vww7vt43yHL6lgnezQAI-243" value="" style="endArrow=none;html=1;rounded=0;" parent="1" edge="1">
          <mxGeometry width="50" height="50" relative="1" as="geometry">
            <mxPoint x="-2740" y="200" as="sourcePoint" />
            <mxPoint x="-2560" y="200" as="targetPoint" />
          </mxGeometry>
        </mxCell>
        <mxCell id="vww7vt43yHL6lgnezQAI-244" value="" style="endArrow=none;html=1;rounded=0;" parent="1" edge="1">
          <mxGeometry width="50" height="50" relative="1" as="geometry">
            <mxPoint x="-2420" y="200" as="sourcePoint" />
            <mxPoint x="-2240" y="200" as="targetPoint" />
          </mxGeometry>
        </mxCell>
        <mxCell id="vww7vt43yHL6lgnezQAI-245" value="&lt;b&gt;Is Offered&lt;br&gt;&lt;/b&gt;" style="text;html=1;strokeColor=none;fillColor=none;align=center;verticalAlign=middle;whiteSpace=wrap;rounded=0;" parent="1" vertex="1">
          <mxGeometry x="-2690" y="160" width="80" height="20" as="geometry" />
        </mxCell>
        <mxCell id="vww7vt43yHL6lgnezQAI-246" value="" style="shape=mxgraph.arrows2.wedgeArrow;html=1;bendable=0;startWidth=5.600000000000001;fillColor=strokeColor;defaultFillColor=invert;defaultGradientColor=invert;rounded=0;" parent="1" edge="1">
          <mxGeometry width="100" height="100" relative="1" as="geometry">
            <mxPoint x="-2655" y="185.2" as="sourcePoint" />
            <mxPoint x="-2645" y="184.8" as="targetPoint" />
          </mxGeometry>
        </mxCell>
        <mxCell id="vww7vt43yHL6lgnezQAI-247" value="" style="endArrow=none;html=1;rounded=0;exitX=0;exitY=0.333;exitDx=0;exitDy=0;exitPerimeter=0;" parent="1" source="vww7vt43yHL6lgnezQAI-147" edge="1">
          <mxGeometry width="50" height="50" relative="1" as="geometry">
            <mxPoint x="-2850" y="340" as="sourcePoint" />
            <mxPoint x="-2800" y="290" as="targetPoint" />
            <Array as="points">
              <mxPoint x="-2800" y="560" />
            </Array>
          </mxGeometry>
        </mxCell>
        <mxCell id="vww7vt43yHL6lgnezQAI-248" value="" style="endArrow=none;html=1;rounded=0;exitX=0.995;exitY=0.36;exitDx=0;exitDy=0;exitPerimeter=0;" parent="1" source="vww7vt43yHL6lgnezQAI-147" edge="1">
          <mxGeometry width="50" height="50" relative="1" as="geometry">
            <mxPoint x="-2290" y="610" as="sourcePoint" />
            <mxPoint x="-2240" y="560" as="targetPoint" />
          </mxGeometry>
        </mxCell>
        <mxCell id="vww7vt43yHL6lgnezQAI-249" value="&lt;b&gt;Is Offered&lt;br&gt;&lt;/b&gt;" style="text;html=1;strokeColor=none;fillColor=none;align=center;verticalAlign=middle;whiteSpace=wrap;rounded=0;" parent="1" vertex="1">
          <mxGeometry x="-2800" y="415" width="80" height="20" as="geometry" />
        </mxCell>
        <mxCell id="vww7vt43yHL6lgnezQAI-251" value="" style="shape=mxgraph.arrows2.wedgeArrow;html=1;bendable=0;startWidth=5.600000000000001;fillColor=strokeColor;defaultFillColor=invert;defaultGradientColor=invert;rounded=0;" parent="1" edge="1">
          <mxGeometry width="100" height="100" relative="1" as="geometry">
            <mxPoint x="-2760.21" y="437" as="sourcePoint" />
            <mxPoint x="-2760.21" y="447" as="targetPoint" />
          </mxGeometry>
        </mxCell>
        <mxCell id="vww7vt43yHL6lgnezQAI-252" value="1..1" style="text;html=1;strokeColor=none;fillColor=none;align=center;verticalAlign=middle;whiteSpace=wrap;rounded=0;" parent="1" vertex="1">
          <mxGeometry x="-2800" y="290" width="60" height="30" as="geometry" />
        </mxCell>
        <mxCell id="vww7vt43yHL6lgnezQAI-253" value="0..*" style="text;html=1;strokeColor=none;fillColor=none;align=center;verticalAlign=middle;whiteSpace=wrap;rounded=0;" parent="1" vertex="1">
          <mxGeometry x="-2620" y="530" width="60" height="30" as="geometry" />
        </mxCell>
        <mxCell id="vww7vt43yHL6lgnezQAI-254" value="1..*" style="text;html=1;strokeColor=none;fillColor=none;align=center;verticalAlign=middle;whiteSpace=wrap;rounded=0;" parent="1" vertex="1">
          <mxGeometry x="-2420" y="530" width="60" height="30" as="geometry" />
        </mxCell>
        <mxCell id="vww7vt43yHL6lgnezQAI-255" value="1..1" style="text;html=1;strokeColor=none;fillColor=none;align=center;verticalAlign=middle;whiteSpace=wrap;rounded=0;" parent="1" vertex="1">
          <mxGeometry x="-2300" y="530" width="60" height="30" as="geometry" />
        </mxCell>
        <mxCell id="vww7vt43yHL6lgnezQAI-256" value="0..*" style="text;html=1;strokeColor=none;fillColor=none;align=center;verticalAlign=middle;whiteSpace=wrap;rounded=0;" parent="1" vertex="1">
          <mxGeometry x="-2620" y="170" width="60" height="30" as="geometry" />
        </mxCell>
        <mxCell id="vww7vt43yHL6lgnezQAI-257" value="1..1" style="text;html=1;strokeColor=none;fillColor=none;align=center;verticalAlign=middle;whiteSpace=wrap;rounded=0;" parent="1" vertex="1">
          <mxGeometry x="-2710" y="90" width="60" height="30" as="geometry" />
        </mxCell>
        <mxCell id="vww7vt43yHL6lgnezQAI-258" value="1..1" style="text;html=1;strokeColor=none;fillColor=none;align=center;verticalAlign=middle;whiteSpace=wrap;rounded=0;" parent="1" vertex="1">
          <mxGeometry x="-2520" y="-110" width="60" height="30" as="geometry" />
        </mxCell>
        <mxCell id="vww7vt43yHL6lgnezQAI-261" value="" style="endArrow=none;html=1;rounded=0;" parent="1" edge="1">
          <mxGeometry width="50" height="50" relative="1" as="geometry">
            <mxPoint x="-1080" y="-140" as="sourcePoint" />
            <mxPoint x="-760" y="-140" as="targetPoint" />
          </mxGeometry>
        </mxCell>
        <mxCell id="vww7vt43yHL6lgnezQAI-263" value="" style="endArrow=none;html=1;rounded=0;entryX=0.574;entryY=1;entryDx=0;entryDy=0;entryPerimeter=0;" parent="1" target="vww7vt43yHL6lgnezQAI-11" edge="1">
          <mxGeometry width="50" height="50" relative="1" as="geometry">
            <mxPoint x="-860" y="39" as="sourcePoint" />
            <mxPoint x="-681.68" y="-30" as="targetPoint" />
            <Array as="points">
              <mxPoint x="-680" y="40" />
            </Array>
          </mxGeometry>
        </mxCell>
        <mxCell id="vww7vt43yHL6lgnezQAI-264" value="1..1" style="text;html=1;strokeColor=none;fillColor=none;align=center;verticalAlign=middle;whiteSpace=wrap;rounded=0;" parent="1" vertex="1">
          <mxGeometry x="-1180" y="1320" width="60" height="30" as="geometry" />
        </mxCell>
        <mxCell id="vww7vt43yHL6lgnezQAI-265" value="&lt;b&gt;Is Assigned&lt;/b&gt;" style="text;html=1;strokeColor=none;fillColor=none;align=center;verticalAlign=middle;whiteSpace=wrap;rounded=0;" parent="1" vertex="1">
          <mxGeometry x="-760" y="50" width="90" height="30" as="geometry" />
        </mxCell>
        <mxCell id="vww7vt43yHL6lgnezQAI-266" value="" style="shape=mxgraph.arrows2.wedgeArrow;html=1;bendable=0;startWidth=5.600000000000001;fillColor=strokeColor;defaultFillColor=invert;defaultGradientColor=invert;rounded=0;" parent="1" edge="1">
          <mxGeometry width="100" height="100" relative="1" as="geometry">
            <mxPoint x="-760" y="64.8" as="sourcePoint" />
            <mxPoint x="-770" y="64.8" as="targetPoint" />
          </mxGeometry>
        </mxCell>
        <mxCell id="vww7vt43yHL6lgnezQAI-277" value="" style="endArrow=none;html=1;rounded=0;exitX=0.5;exitY=0;exitDx=0;exitDy=0;" parent="1" source="vww7vt43yHL6lgnezQAI-8" edge="1">
          <mxGeometry width="50" height="50" relative="1" as="geometry">
            <mxPoint x="-740" y="-250" as="sourcePoint" />
            <mxPoint x="-690" y="-300" as="targetPoint" />
          </mxGeometry>
        </mxCell>
        <mxCell id="vww7vt43yHL6lgnezQAI-278" value="Position" style="swimlane;fontStyle=0;childLayout=stackLayout;horizontal=1;startSize=30;horizontalStack=0;resizeParent=1;resizeParentMax=0;resizeLast=0;collapsible=1;marginBottom=0;whiteSpace=wrap;html=1;fillColor=#e1d5e7;strokeColor=#9673a6;" parent="1" vertex="1">
          <mxGeometry x="-760" y="-390" width="140" height="90" as="geometry" />
        </mxCell>
        <mxCell id="vww7vt43yHL6lgnezQAI-279" value="PositionID {PK}" style="text;strokeColor=none;fillColor=none;align=left;verticalAlign=middle;spacingLeft=4;spacingRight=4;overflow=hidden;points=[[0,0.5],[1,0.5]];portConstraint=eastwest;rotatable=0;whiteSpace=wrap;html=1;" parent="vww7vt43yHL6lgnezQAI-278" vertex="1">
          <mxGeometry y="30" width="140" height="30" as="geometry" />
        </mxCell>
        <mxCell id="vww7vt43yHL6lgnezQAI-280" value="PositionType" style="text;strokeColor=none;fillColor=none;align=left;verticalAlign=middle;spacingLeft=4;spacingRight=4;overflow=hidden;points=[[0,0.5],[1,0.5]];portConstraint=eastwest;rotatable=0;whiteSpace=wrap;html=1;" parent="vww7vt43yHL6lgnezQAI-278" vertex="1">
          <mxGeometry y="60" width="140" height="30" as="geometry" />
        </mxCell>
        <mxCell id="vww7vt43yHL6lgnezQAI-292" value="1..*" style="text;html=1;strokeColor=none;fillColor=none;align=center;verticalAlign=middle;whiteSpace=wrap;rounded=0;" parent="1" vertex="1">
          <mxGeometry x="-750" y="-230" width="60" height="30" as="geometry" />
        </mxCell>
        <mxCell id="vww7vt43yHL6lgnezQAI-293" value="1..1" style="text;html=1;strokeColor=none;fillColor=none;align=center;verticalAlign=middle;whiteSpace=wrap;rounded=0;" parent="1" vertex="1">
          <mxGeometry x="-750" y="-300" width="60" height="30" as="geometry" />
        </mxCell>
        <mxCell id="vww7vt43yHL6lgnezQAI-294" value="Academic Supervisor" style="swimlane;fontStyle=0;childLayout=stackLayout;horizontal=1;startSize=30;horizontalStack=0;resizeParent=1;resizeParentMax=0;resizeLast=0;collapsible=1;marginBottom=0;whiteSpace=wrap;html=1;fillColor=#e1d5e7;strokeColor=#9673a6;" parent="1" vertex="1">
          <mxGeometry x="-760" y="160" width="140" height="90" as="geometry" />
        </mxCell>
        <mxCell id="vww7vt43yHL6lgnezQAI-295" value="AcadID {PK}" style="text;strokeColor=none;fillColor=none;align=left;verticalAlign=middle;spacingLeft=4;spacingRight=4;overflow=hidden;points=[[0,0.5],[1,0.5]];portConstraint=eastwest;rotatable=0;whiteSpace=wrap;html=1;" parent="vww7vt43yHL6lgnezQAI-294" vertex="1">
          <mxGeometry y="30" width="140" height="30" as="geometry" />
        </mxCell>
        <mxCell id="vww7vt43yHL6lgnezQAI-296" value="AcadName" style="text;strokeColor=none;fillColor=none;align=left;verticalAlign=middle;spacingLeft=4;spacingRight=4;overflow=hidden;points=[[0,0.5],[1,0.5]];portConstraint=eastwest;rotatable=0;whiteSpace=wrap;html=1;" parent="vww7vt43yHL6lgnezQAI-294" vertex="1">
          <mxGeometry y="60" width="140" height="30" as="geometry" />
        </mxCell>
        <mxCell id="vww7vt43yHL6lgnezQAI-298" value="" style="endArrow=none;html=1;rounded=0;entryX=0.5;entryY=0;entryDx=0;entryDy=0;" parent="1" target="vww7vt43yHL6lgnezQAI-294" edge="1">
          <mxGeometry width="50" height="50" relative="1" as="geometry">
            <mxPoint x="-860" y="120" as="sourcePoint" />
            <mxPoint x="-810" y="70" as="targetPoint" />
            <Array as="points">
              <mxPoint x="-690" y="120" />
            </Array>
          </mxGeometry>
        </mxCell>
        <mxCell id="L3gRwLuE4_txspqH3eWD-2" value="" style="endArrow=none;html=1;rounded=0;exitX=1.024;exitY=-0.166;exitDx=0;exitDy=0;exitPerimeter=0;" edge="1" parent="1" source="vww7vt43yHL6lgnezQAI-40">
          <mxGeometry width="50" height="50" relative="1" as="geometry">
            <mxPoint x="-810" y="-280" as="sourcePoint" />
            <mxPoint x="-760" y="-330" as="targetPoint" />
          </mxGeometry>
        </mxCell>
        <mxCell id="L3gRwLuE4_txspqH3eWD-14" value="Staff_Info" style="swimlane;fontStyle=0;childLayout=stackLayout;horizontal=1;startSize=30;horizontalStack=0;resizeParent=1;resizeParentMax=0;resizeLast=0;collapsible=1;marginBottom=0;whiteSpace=wrap;html=1;fillColor=#e1d5e7;strokeColor=#9673a6;" vertex="1" parent="1">
          <mxGeometry x="-2110" y="1060" width="140" height="240" as="geometry" />
        </mxCell>
        <mxCell id="L3gRwLuE4_txspqH3eWD-15" value="StaffID {PK}" style="text;strokeColor=none;fillColor=none;align=left;verticalAlign=middle;spacingLeft=4;spacingRight=4;overflow=hidden;points=[[0,0.5],[1,0.5]];portConstraint=eastwest;rotatable=0;whiteSpace=wrap;html=1;" vertex="1" parent="L3gRwLuE4_txspqH3eWD-14">
          <mxGeometry y="30" width="140" height="30" as="geometry" />
        </mxCell>
        <mxCell id="L3gRwLuE4_txspqH3eWD-16" value="StaffName" style="text;strokeColor=none;fillColor=none;align=left;verticalAlign=middle;spacingLeft=4;spacingRight=4;overflow=hidden;points=[[0,0.5],[1,0.5]];portConstraint=eastwest;rotatable=0;whiteSpace=wrap;html=1;" vertex="1" parent="L3gRwLuE4_txspqH3eWD-14">
          <mxGeometry y="60" width="140" height="30" as="geometry" />
        </mxCell>
        <mxCell id="L3gRwLuE4_txspqH3eWD-17" value="HomeAddress" style="text;strokeColor=none;fillColor=none;align=left;verticalAlign=middle;spacingLeft=4;spacingRight=4;overflow=hidden;points=[[0,0.5],[1,0.5]];portConstraint=eastwest;rotatable=0;whiteSpace=wrap;html=1;" vertex="1" parent="L3gRwLuE4_txspqH3eWD-14">
          <mxGeometry y="90" width="140" height="30" as="geometry" />
        </mxCell>
        <mxCell id="L3gRwLuE4_txspqH3eWD-18" value="EmailAddress" style="text;strokeColor=none;fillColor=none;align=left;verticalAlign=middle;spacingLeft=4;spacingRight=4;overflow=hidden;points=[[0,0.5],[1,0.5]];portConstraint=eastwest;rotatable=0;whiteSpace=wrap;html=1;" vertex="1" parent="L3gRwLuE4_txspqH3eWD-14">
          <mxGeometry y="120" width="140" height="30" as="geometry" />
        </mxCell>
        <mxCell id="L3gRwLuE4_txspqH3eWD-19" value="MobilePhoneNumber" style="text;strokeColor=none;fillColor=none;align=left;verticalAlign=middle;spacingLeft=4;spacingRight=4;overflow=hidden;points=[[0,0.5],[1,0.5]];portConstraint=eastwest;rotatable=0;whiteSpace=wrap;html=1;" vertex="1" parent="L3gRwLuE4_txspqH3eWD-14">
          <mxGeometry y="150" width="140" height="30" as="geometry" />
        </mxCell>
        <mxCell id="L3gRwLuE4_txspqH3eWD-20" value="estTimeTravel" style="text;strokeColor=none;fillColor=none;align=left;verticalAlign=middle;spacingLeft=4;spacingRight=4;overflow=hidden;points=[[0,0.5],[1,0.5]];portConstraint=eastwest;rotatable=0;whiteSpace=wrap;html=1;" vertex="1" parent="L3gRwLuE4_txspqH3eWD-14">
          <mxGeometry y="180" width="140" height="30" as="geometry" />
        </mxCell>
        <mxCell id="L3gRwLuE4_txspqH3eWD-21" value="preferredContactType" style="text;strokeColor=none;fillColor=none;align=left;verticalAlign=middle;spacingLeft=4;spacingRight=4;overflow=hidden;points=[[0,0.5],[1,0.5]];portConstraint=eastwest;rotatable=0;whiteSpace=wrap;html=1;" vertex="1" parent="L3gRwLuE4_txspqH3eWD-14">
          <mxGeometry y="210" width="140" height="30" as="geometry" />
        </mxCell>
        <mxCell id="L3gRwLuE4_txspqH3eWD-22" value="Subjects_Position" style="swimlane;fontStyle=0;childLayout=stackLayout;horizontal=1;startSize=30;horizontalStack=0;resizeParent=1;resizeParentMax=0;resizeLast=0;collapsible=1;marginBottom=0;whiteSpace=wrap;html=1;fillColor=#e1d5e7;strokeColor=#9673a6;" vertex="1" parent="1">
          <mxGeometry x="-1200" y="1230" width="140" height="90" as="geometry" />
        </mxCell>
        <mxCell id="L3gRwLuE4_txspqH3eWD-23" value="Subject_PositionID {PK}" style="text;strokeColor=none;fillColor=none;align=left;verticalAlign=middle;spacingLeft=4;spacingRight=4;overflow=hidden;points=[[0,0.5],[1,0.5]];portConstraint=eastwest;rotatable=0;whiteSpace=wrap;html=1;" vertex="1" parent="L3gRwLuE4_txspqH3eWD-22">
          <mxGeometry y="30" width="140" height="30" as="geometry" />
        </mxCell>
        <mxCell id="L3gRwLuE4_txspqH3eWD-26" value="HourlyPayRate" style="text;strokeColor=none;fillColor=none;align=left;verticalAlign=middle;spacingLeft=4;spacingRight=4;overflow=hidden;points=[[0,0.5],[1,0.5]];portConstraint=eastwest;rotatable=0;whiteSpace=wrap;html=1;" vertex="1" parent="L3gRwLuE4_txspqH3eWD-22">
          <mxGeometry y="60" width="140" height="30" as="geometry" />
        </mxCell>
        <mxCell id="L3gRwLuE4_txspqH3eWD-27" value="Requests" style="swimlane;fontStyle=0;childLayout=stackLayout;horizontal=1;startSize=30;horizontalStack=0;resizeParent=1;resizeParentMax=0;resizeLast=0;collapsible=1;marginBottom=0;whiteSpace=wrap;html=1;fillColor=#e1d5e7;strokeColor=#9673a6;" vertex="1" parent="1">
          <mxGeometry x="-1420" y="1350" width="140" height="210" as="geometry" />
        </mxCell>
        <mxCell id="L3gRwLuE4_txspqH3eWD-28" value="RequestID {PK}" style="text;align=left;verticalAlign=middle;spacingLeft=4;spacingRight=4;overflow=hidden;points=[[0,0.5],[1,0.5]];portConstraint=eastwest;rotatable=0;whiteSpace=wrap;html=1;" vertex="1" parent="L3gRwLuE4_txspqH3eWD-27">
          <mxGeometry y="30" width="140" height="30" as="geometry" />
        </mxCell>
        <mxCell id="L3gRwLuE4_txspqH3eWD-31" value="DateStart" style="text;strokeColor=none;fillColor=none;align=left;verticalAlign=middle;spacingLeft=4;spacingRight=4;overflow=hidden;points=[[0,0.5],[1,0.5]];portConstraint=eastwest;rotatable=0;whiteSpace=wrap;html=1;" vertex="1" parent="L3gRwLuE4_txspqH3eWD-27">
          <mxGeometry y="60" width="140" height="30" as="geometry" />
        </mxCell>
        <mxCell id="L3gRwLuE4_txspqH3eWD-32" value="TeachingDuration" style="text;strokeColor=none;fillColor=none;align=left;verticalAlign=middle;spacingLeft=4;spacingRight=4;overflow=hidden;points=[[0,0.5],[1,0.5]];portConstraint=eastwest;rotatable=0;whiteSpace=wrap;html=1;" vertex="1" parent="L3gRwLuE4_txspqH3eWD-27">
          <mxGeometry y="90" width="140" height="30" as="geometry" />
        </mxCell>
        <mxCell id="L3gRwLuE4_txspqH3eWD-33" value="WeeklyHours" style="text;strokeColor=none;fillColor=none;align=left;verticalAlign=middle;spacingLeft=4;spacingRight=4;overflow=hidden;points=[[0,0.5],[1,0.5]];portConstraint=eastwest;rotatable=0;whiteSpace=wrap;html=1;" vertex="1" parent="L3gRwLuE4_txspqH3eWD-27">
          <mxGeometry y="120" width="140" height="30" as="geometry" />
        </mxCell>
        <mxCell id="L3gRwLuE4_txspqH3eWD-34" value="Venue" style="text;strokeColor=none;fillColor=none;align=left;verticalAlign=middle;spacingLeft=4;spacingRight=4;overflow=hidden;points=[[0,0.5],[1,0.5]];portConstraint=eastwest;rotatable=0;whiteSpace=wrap;html=1;" vertex="1" parent="L3gRwLuE4_txspqH3eWD-27">
          <mxGeometry y="150" width="140" height="30" as="geometry" />
        </mxCell>
        <mxCell id="L3gRwLuE4_txspqH3eWD-35" value="Express_Recruitment" style="text;strokeColor=none;fillColor=none;align=left;verticalAlign=middle;spacingLeft=4;spacingRight=4;overflow=hidden;points=[[0,0.5],[1,0.5]];portConstraint=eastwest;rotatable=0;whiteSpace=wrap;html=1;" vertex="1" parent="L3gRwLuE4_txspqH3eWD-27">
          <mxGeometry y="180" width="140" height="30" as="geometry" />
        </mxCell>
        <mxCell id="L3gRwLuE4_txspqH3eWD-36" value="Subjects" style="swimlane;fontStyle=0;childLayout=stackLayout;horizontal=1;startSize=30;horizontalStack=0;resizeParent=1;resizeParentMax=0;resizeLast=0;collapsible=1;marginBottom=0;whiteSpace=wrap;html=1;fillColor=#e1d5e7;strokeColor=#9673a6;" vertex="1" parent="1">
          <mxGeometry x="-1520" y="1060" width="140" height="90" as="geometry" />
        </mxCell>
        <mxCell id="L3gRwLuE4_txspqH3eWD-37" value="SubjectID {PK}" style="text;strokeColor=none;fillColor=none;align=left;verticalAlign=middle;spacingLeft=4;spacingRight=4;overflow=hidden;points=[[0,0.5],[1,0.5]];portConstraint=eastwest;rotatable=0;whiteSpace=wrap;html=1;" vertex="1" parent="L3gRwLuE4_txspqH3eWD-36">
          <mxGeometry y="30" width="140" height="30" as="geometry" />
        </mxCell>
        <mxCell id="L3gRwLuE4_txspqH3eWD-38" value="SubjectName" style="text;strokeColor=none;fillColor=none;align=left;verticalAlign=middle;spacingLeft=4;spacingRight=4;overflow=hidden;points=[[0,0.5],[1,0.5]];portConstraint=eastwest;rotatable=0;whiteSpace=wrap;html=1;" vertex="1" parent="L3gRwLuE4_txspqH3eWD-36">
          <mxGeometry y="60" width="140" height="30" as="geometry" />
        </mxCell>
        <mxCell id="L3gRwLuE4_txspqH3eWD-39" value="Express Recruitment" style="swimlane;fontStyle=0;childLayout=stackLayout;horizontal=1;startSize=30;horizontalStack=0;resizeParent=1;resizeParentMax=0;resizeLast=0;collapsible=1;marginBottom=0;whiteSpace=wrap;html=1;fillColor=#e1d5e7;strokeColor=#9673a6;" vertex="1" parent="1">
          <mxGeometry x="-1680" y="1580" width="140" height="120" as="geometry" />
        </mxCell>
        <mxCell id="L3gRwLuE4_txspqH3eWD-40" value="ExpressID {PK}" style="text;strokeColor=none;fillColor=none;align=left;verticalAlign=middle;spacingLeft=4;spacingRight=4;overflow=hidden;points=[[0,0.5],[1,0.5]];portConstraint=eastwest;rotatable=0;whiteSpace=wrap;html=1;" vertex="1" parent="L3gRwLuE4_txspqH3eWD-39">
          <mxGeometry y="30" width="140" height="30" as="geometry" />
        </mxCell>
        <mxCell id="L3gRwLuE4_txspqH3eWD-42" value="sentDateTime" style="text;strokeColor=none;fillColor=none;align=left;verticalAlign=middle;spacingLeft=4;spacingRight=4;overflow=hidden;points=[[0,0.5],[1,0.5]];portConstraint=eastwest;rotatable=0;whiteSpace=wrap;html=1;" vertex="1" parent="L3gRwLuE4_txspqH3eWD-39">
          <mxGeometry y="60" width="140" height="30" as="geometry" />
        </mxCell>
        <mxCell id="L3gRwLuE4_txspqH3eWD-43" value="expiredDateTime" style="text;strokeColor=none;fillColor=none;align=left;verticalAlign=middle;spacingLeft=4;spacingRight=4;overflow=hidden;points=[[0,0.5],[1,0.5]];portConstraint=eastwest;rotatable=0;whiteSpace=wrap;html=1;" vertex="1" parent="L3gRwLuE4_txspqH3eWD-39">
          <mxGeometry y="90" width="140" height="30" as="geometry" />
        </mxCell>
        <mxCell id="L3gRwLuE4_txspqH3eWD-44" value="Staff_subjects Qualifications" style="swimlane;fontStyle=0;childLayout=stackLayout;horizontal=1;startSize=30;horizontalStack=0;resizeParent=1;resizeParentMax=0;resizeLast=0;collapsible=1;marginBottom=0;whiteSpace=wrap;html=1;fillColor=#e1d5e7;strokeColor=#9673a6;" vertex="1" parent="1">
          <mxGeometry x="-1840" y="1060" width="140" height="180" as="geometry" />
        </mxCell>
        <mxCell id="L3gRwLuE4_txspqH3eWD-45" value="QualificationID {PK}" style="text;strokeColor=none;fillColor=none;align=left;verticalAlign=middle;spacingLeft=4;spacingRight=4;overflow=hidden;points=[[0,0.5],[1,0.5]];portConstraint=eastwest;rotatable=0;whiteSpace=wrap;html=1;" vertex="1" parent="L3gRwLuE4_txspqH3eWD-44">
          <mxGeometry y="30" width="140" height="30" as="geometry" />
        </mxCell>
        <mxCell id="L3gRwLuE4_txspqH3eWD-48" value="YearsExperience" style="text;strokeColor=none;fillColor=none;align=left;verticalAlign=middle;spacingLeft=4;spacingRight=4;overflow=hidden;points=[[0,0.5],[1,0.5]];portConstraint=eastwest;rotatable=0;whiteSpace=wrap;html=1;" vertex="1" parent="L3gRwLuE4_txspqH3eWD-44">
          <mxGeometry y="60" width="140" height="30" as="geometry" />
        </mxCell>
        <mxCell id="L3gRwLuE4_txspqH3eWD-49" value="Qualifications" style="text;strokeColor=none;fillColor=none;align=left;verticalAlign=middle;spacingLeft=4;spacingRight=4;overflow=hidden;points=[[0,0.5],[1,0.5]];portConstraint=eastwest;rotatable=0;whiteSpace=wrap;html=1;" vertex="1" parent="L3gRwLuE4_txspqH3eWD-44">
          <mxGeometry y="90" width="140" height="30" as="geometry" />
        </mxCell>
        <mxCell id="L3gRwLuE4_txspqH3eWD-50" value="SelfRateCompetitiveness" style="text;strokeColor=none;fillColor=none;align=left;verticalAlign=middle;spacingLeft=4;spacingRight=4;overflow=hidden;points=[[0,0.5],[1,0.5]];portConstraint=eastwest;rotatable=0;whiteSpace=wrap;html=1;" vertex="1" parent="L3gRwLuE4_txspqH3eWD-44">
          <mxGeometry y="120" width="140" height="30" as="geometry" />
        </mxCell>
        <mxCell id="L3gRwLuE4_txspqH3eWD-51" value="PositionPreferences" style="text;strokeColor=none;fillColor=none;align=left;verticalAlign=middle;spacingLeft=4;spacingRight=4;overflow=hidden;points=[[0,0.5],[1,0.5]];portConstraint=eastwest;rotatable=0;whiteSpace=wrap;html=1;" vertex="1" parent="L3gRwLuE4_txspqH3eWD-44">
          <mxGeometry y="150" width="140" height="30" as="geometry" />
        </mxCell>
        <mxCell id="L3gRwLuE4_txspqH3eWD-52" value="Recruitment" style="swimlane;fontStyle=0;childLayout=stackLayout;horizontal=1;startSize=30;horizontalStack=0;resizeParent=1;resizeParentMax=0;resizeLast=0;collapsible=1;marginBottom=0;whiteSpace=wrap;html=1;fillColor=#e1d5e7;strokeColor=#9673a6;" vertex="1" parent="1">
          <mxGeometry x="-1680" y="1315" width="140" height="60" as="geometry" />
        </mxCell>
        <mxCell id="L3gRwLuE4_txspqH3eWD-55" value="Status" style="text;strokeColor=none;fillColor=none;align=left;verticalAlign=middle;spacingLeft=4;spacingRight=4;overflow=hidden;points=[[0,0.5],[1,0.5]];portConstraint=eastwest;rotatable=0;whiteSpace=wrap;html=1;" vertex="1" parent="L3gRwLuE4_txspqH3eWD-52">
          <mxGeometry y="30" width="140" height="30" as="geometry" />
        </mxCell>
        <mxCell id="L3gRwLuE4_txspqH3eWD-56" value="Communications" style="swimlane;fontStyle=0;childLayout=stackLayout;horizontal=1;startSize=30;horizontalStack=0;resizeParent=1;resizeParentMax=0;resizeLast=0;collapsible=1;marginBottom=0;whiteSpace=wrap;html=1;fillColor=#e1d5e7;strokeColor=#9673a6;" vertex="1" parent="1">
          <mxGeometry x="-1960" y="1510" width="140" height="90" as="geometry" />
        </mxCell>
        <mxCell id="L3gRwLuE4_txspqH3eWD-60" value="ResponseDateTime" style="text;strokeColor=none;fillColor=none;align=left;verticalAlign=middle;spacingLeft=4;spacingRight=4;overflow=hidden;points=[[0,0.5],[1,0.5]];portConstraint=eastwest;rotatable=0;whiteSpace=wrap;html=1;" vertex="1" parent="L3gRwLuE4_txspqH3eWD-56">
          <mxGeometry y="30" width="140" height="30" as="geometry" />
        </mxCell>
        <mxCell id="L3gRwLuE4_txspqH3eWD-61" value="AcceptanceStatus" style="text;strokeColor=none;fillColor=none;align=left;verticalAlign=middle;spacingLeft=4;spacingRight=4;overflow=hidden;points=[[0,0.5],[1,0.5]];portConstraint=eastwest;rotatable=0;whiteSpace=wrap;html=1;" vertex="1" parent="L3gRwLuE4_txspqH3eWD-56">
          <mxGeometry y="60" width="140" height="30" as="geometry" />
        </mxCell>
        <mxCell id="L3gRwLuE4_txspqH3eWD-62" value="Position" style="swimlane;fontStyle=0;childLayout=stackLayout;horizontal=1;startSize=30;horizontalStack=0;resizeParent=1;resizeParentMax=0;resizeLast=0;collapsible=1;marginBottom=0;whiteSpace=wrap;html=1;fillColor=#e1d5e7;strokeColor=#9673a6;" vertex="1" parent="1">
          <mxGeometry x="-1200" y="1060" width="140" height="90" as="geometry" />
        </mxCell>
        <mxCell id="L3gRwLuE4_txspqH3eWD-63" value="PositionID {PK}" style="text;strokeColor=none;fillColor=none;align=left;verticalAlign=middle;spacingLeft=4;spacingRight=4;overflow=hidden;points=[[0,0.5],[1,0.5]];portConstraint=eastwest;rotatable=0;whiteSpace=wrap;html=1;" vertex="1" parent="L3gRwLuE4_txspqH3eWD-62">
          <mxGeometry y="30" width="140" height="30" as="geometry" />
        </mxCell>
        <mxCell id="L3gRwLuE4_txspqH3eWD-64" value="PositionType" style="text;strokeColor=none;fillColor=none;align=left;verticalAlign=middle;spacingLeft=4;spacingRight=4;overflow=hidden;points=[[0,0.5],[1,0.5]];portConstraint=eastwest;rotatable=0;whiteSpace=wrap;html=1;" vertex="1" parent="L3gRwLuE4_txspqH3eWD-62">
          <mxGeometry y="60" width="140" height="30" as="geometry" />
        </mxCell>
        <mxCell id="L3gRwLuE4_txspqH3eWD-65" value="Academic Supervisor" style="swimlane;fontStyle=0;childLayout=stackLayout;horizontal=1;startSize=30;horizontalStack=0;resizeParent=1;resizeParentMax=0;resizeLast=0;collapsible=1;marginBottom=0;whiteSpace=wrap;html=1;fillColor=#e1d5e7;strokeColor=#9673a6;" vertex="1" parent="1">
          <mxGeometry x="-1200" y="1520" width="140" height="90" as="geometry" />
        </mxCell>
        <mxCell id="L3gRwLuE4_txspqH3eWD-66" value="AcadID {PK}" style="text;strokeColor=none;fillColor=none;align=left;verticalAlign=middle;spacingLeft=4;spacingRight=4;overflow=hidden;points=[[0,0.5],[1,0.5]];portConstraint=eastwest;rotatable=0;whiteSpace=wrap;html=1;" vertex="1" parent="L3gRwLuE4_txspqH3eWD-65">
          <mxGeometry y="30" width="140" height="30" as="geometry" />
        </mxCell>
        <mxCell id="L3gRwLuE4_txspqH3eWD-67" value="AcadName" style="text;strokeColor=none;fillColor=none;align=left;verticalAlign=middle;spacingLeft=4;spacingRight=4;overflow=hidden;points=[[0,0.5],[1,0.5]];portConstraint=eastwest;rotatable=0;whiteSpace=wrap;html=1;" vertex="1" parent="L3gRwLuE4_txspqH3eWD-65">
          <mxGeometry y="60" width="140" height="30" as="geometry" />
        </mxCell>
        <mxCell id="L3gRwLuE4_txspqH3eWD-68" value="Staff_Info" style="swimlane;fontStyle=0;childLayout=stackLayout;horizontal=1;startSize=30;horizontalStack=0;resizeParent=1;resizeParentMax=0;resizeLast=0;collapsible=1;marginBottom=0;whiteSpace=wrap;html=1;fillColor=#dae8fc;strokeColor=#6c8ebf;" vertex="1" parent="1">
          <mxGeometry x="-3440" y="1100" width="140" height="240" as="geometry" />
        </mxCell>
        <mxCell id="L3gRwLuE4_txspqH3eWD-69" value="StaffID {PK}" style="text;strokeColor=none;fillColor=none;align=left;verticalAlign=middle;spacingLeft=4;spacingRight=4;overflow=hidden;points=[[0,0.5],[1,0.5]];portConstraint=eastwest;rotatable=0;whiteSpace=wrap;html=1;" vertex="1" parent="L3gRwLuE4_txspqH3eWD-68">
          <mxGeometry y="30" width="140" height="30" as="geometry" />
        </mxCell>
        <mxCell id="L3gRwLuE4_txspqH3eWD-70" value="StaffName" style="text;strokeColor=none;fillColor=none;align=left;verticalAlign=middle;spacingLeft=4;spacingRight=4;overflow=hidden;points=[[0,0.5],[1,0.5]];portConstraint=eastwest;rotatable=0;whiteSpace=wrap;html=1;" vertex="1" parent="L3gRwLuE4_txspqH3eWD-68">
          <mxGeometry y="60" width="140" height="30" as="geometry" />
        </mxCell>
        <mxCell id="L3gRwLuE4_txspqH3eWD-71" value="HomeAddress" style="text;strokeColor=none;fillColor=none;align=left;verticalAlign=middle;spacingLeft=4;spacingRight=4;overflow=hidden;points=[[0,0.5],[1,0.5]];portConstraint=eastwest;rotatable=0;whiteSpace=wrap;html=1;" vertex="1" parent="L3gRwLuE4_txspqH3eWD-68">
          <mxGeometry y="90" width="140" height="30" as="geometry" />
        </mxCell>
        <mxCell id="L3gRwLuE4_txspqH3eWD-72" value="EmailAddress" style="text;strokeColor=none;fillColor=none;align=left;verticalAlign=middle;spacingLeft=4;spacingRight=4;overflow=hidden;points=[[0,0.5],[1,0.5]];portConstraint=eastwest;rotatable=0;whiteSpace=wrap;html=1;" vertex="1" parent="L3gRwLuE4_txspqH3eWD-68">
          <mxGeometry y="120" width="140" height="30" as="geometry" />
        </mxCell>
        <mxCell id="L3gRwLuE4_txspqH3eWD-73" value="MobilePhoneNumber" style="text;strokeColor=none;fillColor=none;align=left;verticalAlign=middle;spacingLeft=4;spacingRight=4;overflow=hidden;points=[[0,0.5],[1,0.5]];portConstraint=eastwest;rotatable=0;whiteSpace=wrap;html=1;" vertex="1" parent="L3gRwLuE4_txspqH3eWD-68">
          <mxGeometry y="150" width="140" height="30" as="geometry" />
        </mxCell>
        <mxCell id="L3gRwLuE4_txspqH3eWD-74" value="estTimeTravel" style="text;strokeColor=none;fillColor=none;align=left;verticalAlign=middle;spacingLeft=4;spacingRight=4;overflow=hidden;points=[[0,0.5],[1,0.5]];portConstraint=eastwest;rotatable=0;whiteSpace=wrap;html=1;" vertex="1" parent="L3gRwLuE4_txspqH3eWD-68">
          <mxGeometry y="180" width="140" height="30" as="geometry" />
        </mxCell>
        <mxCell id="L3gRwLuE4_txspqH3eWD-75" value="preferredContactType" style="text;strokeColor=none;fillColor=none;align=left;verticalAlign=middle;spacingLeft=4;spacingRight=4;overflow=hidden;points=[[0,0.5],[1,0.5]];portConstraint=eastwest;rotatable=0;whiteSpace=wrap;html=1;" vertex="1" parent="L3gRwLuE4_txspqH3eWD-68">
          <mxGeometry y="210" width="140" height="30" as="geometry" />
        </mxCell>
        <mxCell id="L3gRwLuE4_txspqH3eWD-76" value="Subjects_Position" style="swimlane;fontStyle=0;childLayout=stackLayout;horizontal=1;startSize=30;horizontalStack=0;resizeParent=1;resizeParentMax=0;resizeLast=0;collapsible=1;marginBottom=0;whiteSpace=wrap;html=1;fillColor=#dae8fc;strokeColor=#6c8ebf;" vertex="1" parent="1">
          <mxGeometry x="-2480" y="1270" width="140" height="150" as="geometry" />
        </mxCell>
        <mxCell id="L3gRwLuE4_txspqH3eWD-77" value="Subject_PositionID {PK}" style="text;strokeColor=none;fillColor=none;align=left;verticalAlign=middle;spacingLeft=4;spacingRight=4;overflow=hidden;points=[[0,0.5],[1,0.5]];portConstraint=eastwest;rotatable=0;whiteSpace=wrap;html=1;" vertex="1" parent="L3gRwLuE4_txspqH3eWD-76">
          <mxGeometry y="30" width="140" height="30" as="geometry" />
        </mxCell>
        <mxCell id="L3gRwLuE4_txspqH3eWD-78" value="PositionID {FK}" style="text;strokeColor=none;fillColor=none;align=left;verticalAlign=middle;spacingLeft=4;spacingRight=4;overflow=hidden;points=[[0,0.5],[1,0.5]];portConstraint=eastwest;rotatable=0;whiteSpace=wrap;html=1;" vertex="1" parent="L3gRwLuE4_txspqH3eWD-76">
          <mxGeometry y="60" width="140" height="30" as="geometry" />
        </mxCell>
        <mxCell id="L3gRwLuE4_txspqH3eWD-79" value="SubjectID {FK}" style="text;strokeColor=none;fillColor=none;align=left;verticalAlign=middle;spacingLeft=4;spacingRight=4;overflow=hidden;points=[[0,0.5],[1,0.5]];portConstraint=eastwest;rotatable=0;whiteSpace=wrap;html=1;" vertex="1" parent="L3gRwLuE4_txspqH3eWD-76">
          <mxGeometry y="90" width="140" height="30" as="geometry" />
        </mxCell>
        <mxCell id="L3gRwLuE4_txspqH3eWD-80" value="HourlyPayRate" style="text;strokeColor=none;fillColor=none;align=left;verticalAlign=middle;spacingLeft=4;spacingRight=4;overflow=hidden;points=[[0,0.5],[1,0.5]];portConstraint=eastwest;rotatable=0;whiteSpace=wrap;html=1;" vertex="1" parent="L3gRwLuE4_txspqH3eWD-76">
          <mxGeometry y="120" width="140" height="30" as="geometry" />
        </mxCell>
        <mxCell id="L3gRwLuE4_txspqH3eWD-81" value="Requests" style="swimlane;fontStyle=0;childLayout=stackLayout;horizontal=1;startSize=30;horizontalStack=0;resizeParent=1;resizeParentMax=0;resizeLast=0;collapsible=1;marginBottom=0;whiteSpace=wrap;html=1;fillColor=#dae8fc;strokeColor=#6c8ebf;" vertex="1" parent="1">
          <mxGeometry x="-2695" y="1520" width="145" height="270" as="geometry" />
        </mxCell>
        <mxCell id="L3gRwLuE4_txspqH3eWD-82" value="RequestID {PK}" style="text;align=left;verticalAlign=middle;spacingLeft=4;spacingRight=4;overflow=hidden;points=[[0,0.5],[1,0.5]];portConstraint=eastwest;rotatable=0;whiteSpace=wrap;html=1;" vertex="1" parent="L3gRwLuE4_txspqH3eWD-81">
          <mxGeometry y="30" width="145" height="30" as="geometry" />
        </mxCell>
        <mxCell id="L3gRwLuE4_txspqH3eWD-83" value="Subject_PositionID {FK}" style="text;strokeColor=none;fillColor=none;align=left;verticalAlign=middle;spacingLeft=4;spacingRight=4;overflow=hidden;points=[[0,0.5],[1,0.5]];portConstraint=eastwest;rotatable=0;whiteSpace=wrap;html=1;" vertex="1" parent="L3gRwLuE4_txspqH3eWD-81">
          <mxGeometry y="60" width="145" height="30" as="geometry" />
        </mxCell>
        <mxCell id="L3gRwLuE4_txspqH3eWD-84" value="AcadID {FK}" style="text;strokeColor=none;fillColor=none;align=left;verticalAlign=middle;spacingLeft=4;spacingRight=4;overflow=hidden;points=[[0,0.5],[1,0.5]];portConstraint=eastwest;rotatable=0;whiteSpace=wrap;html=1;" vertex="1" parent="L3gRwLuE4_txspqH3eWD-81">
          <mxGeometry y="90" width="145" height="30" as="geometry" />
        </mxCell>
        <mxCell id="L3gRwLuE4_txspqH3eWD-85" value="DateStart" style="text;strokeColor=none;fillColor=none;align=left;verticalAlign=middle;spacingLeft=4;spacingRight=4;overflow=hidden;points=[[0,0.5],[1,0.5]];portConstraint=eastwest;rotatable=0;whiteSpace=wrap;html=1;" vertex="1" parent="L3gRwLuE4_txspqH3eWD-81">
          <mxGeometry y="120" width="145" height="30" as="geometry" />
        </mxCell>
        <mxCell id="L3gRwLuE4_txspqH3eWD-86" value="TeachingDuration" style="text;strokeColor=none;fillColor=none;align=left;verticalAlign=middle;spacingLeft=4;spacingRight=4;overflow=hidden;points=[[0,0.5],[1,0.5]];portConstraint=eastwest;rotatable=0;whiteSpace=wrap;html=1;" vertex="1" parent="L3gRwLuE4_txspqH3eWD-81">
          <mxGeometry y="150" width="145" height="30" as="geometry" />
        </mxCell>
        <mxCell id="L3gRwLuE4_txspqH3eWD-87" value="WeeklyHours" style="text;strokeColor=none;fillColor=none;align=left;verticalAlign=middle;spacingLeft=4;spacingRight=4;overflow=hidden;points=[[0,0.5],[1,0.5]];portConstraint=eastwest;rotatable=0;whiteSpace=wrap;html=1;" vertex="1" parent="L3gRwLuE4_txspqH3eWD-81">
          <mxGeometry y="180" width="145" height="30" as="geometry" />
        </mxCell>
        <mxCell id="L3gRwLuE4_txspqH3eWD-88" value="Venue" style="text;strokeColor=none;fillColor=none;align=left;verticalAlign=middle;spacingLeft=4;spacingRight=4;overflow=hidden;points=[[0,0.5],[1,0.5]];portConstraint=eastwest;rotatable=0;whiteSpace=wrap;html=1;" vertex="1" parent="L3gRwLuE4_txspqH3eWD-81">
          <mxGeometry y="210" width="145" height="30" as="geometry" />
        </mxCell>
        <mxCell id="L3gRwLuE4_txspqH3eWD-89" value="Express_Recruitment" style="text;strokeColor=none;fillColor=none;align=left;verticalAlign=middle;spacingLeft=4;spacingRight=4;overflow=hidden;points=[[0,0.5],[1,0.5]];portConstraint=eastwest;rotatable=0;whiteSpace=wrap;html=1;" vertex="1" parent="L3gRwLuE4_txspqH3eWD-81">
          <mxGeometry y="240" width="145" height="30" as="geometry" />
        </mxCell>
        <mxCell id="L3gRwLuE4_txspqH3eWD-90" value="Subjects" style="swimlane;fontStyle=0;childLayout=stackLayout;horizontal=1;startSize=30;horizontalStack=0;resizeParent=1;resizeParentMax=0;resizeLast=0;collapsible=1;marginBottom=0;whiteSpace=wrap;html=1;fillColor=#dae8fc;strokeColor=#6c8ebf;" vertex="1" parent="1">
          <mxGeometry x="-2800" y="1100" width="140" height="90" as="geometry" />
        </mxCell>
        <mxCell id="L3gRwLuE4_txspqH3eWD-91" value="SubjectID {PK}" style="text;strokeColor=none;fillColor=none;align=left;verticalAlign=middle;spacingLeft=4;spacingRight=4;overflow=hidden;points=[[0,0.5],[1,0.5]];portConstraint=eastwest;rotatable=0;whiteSpace=wrap;html=1;" vertex="1" parent="L3gRwLuE4_txspqH3eWD-90">
          <mxGeometry y="30" width="140" height="30" as="geometry" />
        </mxCell>
        <mxCell id="L3gRwLuE4_txspqH3eWD-92" value="SubjectName" style="text;strokeColor=none;fillColor=none;align=left;verticalAlign=middle;spacingLeft=4;spacingRight=4;overflow=hidden;points=[[0,0.5],[1,0.5]];portConstraint=eastwest;rotatable=0;whiteSpace=wrap;html=1;" vertex="1" parent="L3gRwLuE4_txspqH3eWD-90">
          <mxGeometry y="60" width="140" height="30" as="geometry" />
        </mxCell>
        <mxCell id="L3gRwLuE4_txspqH3eWD-93" value="Express Recruitment" style="swimlane;fontStyle=0;childLayout=stackLayout;horizontal=1;startSize=30;horizontalStack=0;resizeParent=1;resizeParentMax=0;resizeLast=0;collapsible=1;marginBottom=0;whiteSpace=wrap;html=1;fillColor=#dae8fc;strokeColor=#6c8ebf;" vertex="1" parent="1">
          <mxGeometry x="-3000" y="1680" width="140" height="150" as="geometry" />
        </mxCell>
        <mxCell id="L3gRwLuE4_txspqH3eWD-94" value="ExpressID {PK}" style="text;strokeColor=none;fillColor=none;align=left;verticalAlign=middle;spacingLeft=4;spacingRight=4;overflow=hidden;points=[[0,0.5],[1,0.5]];portConstraint=eastwest;rotatable=0;whiteSpace=wrap;html=1;" vertex="1" parent="L3gRwLuE4_txspqH3eWD-93">
          <mxGeometry y="30" width="140" height="30" as="geometry" />
        </mxCell>
        <mxCell id="L3gRwLuE4_txspqH3eWD-95" value="RequestID {FK}" style="text;strokeColor=none;fillColor=none;align=left;verticalAlign=middle;spacingLeft=4;spacingRight=4;overflow=hidden;points=[[0,0.5],[1,0.5]];portConstraint=eastwest;rotatable=0;whiteSpace=wrap;html=1;" vertex="1" parent="L3gRwLuE4_txspqH3eWD-93">
          <mxGeometry y="60" width="140" height="30" as="geometry" />
        </mxCell>
        <mxCell id="L3gRwLuE4_txspqH3eWD-96" value="sentDateTime" style="text;strokeColor=none;fillColor=none;align=left;verticalAlign=middle;spacingLeft=4;spacingRight=4;overflow=hidden;points=[[0,0.5],[1,0.5]];portConstraint=eastwest;rotatable=0;whiteSpace=wrap;html=1;" vertex="1" parent="L3gRwLuE4_txspqH3eWD-93">
          <mxGeometry y="90" width="140" height="30" as="geometry" />
        </mxCell>
        <mxCell id="L3gRwLuE4_txspqH3eWD-97" value="expiredDateTime" style="text;strokeColor=none;fillColor=none;align=left;verticalAlign=middle;spacingLeft=4;spacingRight=4;overflow=hidden;points=[[0,0.5],[1,0.5]];portConstraint=eastwest;rotatable=0;whiteSpace=wrap;html=1;" vertex="1" parent="L3gRwLuE4_txspqH3eWD-93">
          <mxGeometry y="120" width="140" height="30" as="geometry" />
        </mxCell>
        <mxCell id="L3gRwLuE4_txspqH3eWD-98" value="Staff_subjects Qualifications" style="swimlane;fontStyle=0;childLayout=stackLayout;horizontal=1;startSize=30;horizontalStack=0;resizeParent=1;resizeParentMax=0;resizeLast=0;collapsible=1;marginBottom=0;whiteSpace=wrap;html=1;fillColor=#dae8fc;strokeColor=#6c8ebf;" vertex="1" parent="1">
          <mxGeometry x="-3120" y="1100" width="140" height="240" as="geometry" />
        </mxCell>
        <mxCell id="L3gRwLuE4_txspqH3eWD-99" value="QualificationID {PK}" style="text;strokeColor=none;fillColor=none;align=left;verticalAlign=middle;spacingLeft=4;spacingRight=4;overflow=hidden;points=[[0,0.5],[1,0.5]];portConstraint=eastwest;rotatable=0;whiteSpace=wrap;html=1;" vertex="1" parent="L3gRwLuE4_txspqH3eWD-98">
          <mxGeometry y="30" width="140" height="30" as="geometry" />
        </mxCell>
        <mxCell id="L3gRwLuE4_txspqH3eWD-100" value="StaffID {FK}" style="text;strokeColor=none;fillColor=none;align=left;verticalAlign=middle;spacingLeft=4;spacingRight=4;overflow=hidden;points=[[0,0.5],[1,0.5]];portConstraint=eastwest;rotatable=0;whiteSpace=wrap;html=1;" vertex="1" parent="L3gRwLuE4_txspqH3eWD-98">
          <mxGeometry y="60" width="140" height="30" as="geometry" />
        </mxCell>
        <mxCell id="L3gRwLuE4_txspqH3eWD-101" value="SubjectID {FK}" style="text;strokeColor=none;fillColor=none;align=left;verticalAlign=middle;spacingLeft=4;spacingRight=4;overflow=hidden;points=[[0,0.5],[1,0.5]];portConstraint=eastwest;rotatable=0;whiteSpace=wrap;html=1;" vertex="1" parent="L3gRwLuE4_txspqH3eWD-98">
          <mxGeometry y="90" width="140" height="30" as="geometry" />
        </mxCell>
        <mxCell id="L3gRwLuE4_txspqH3eWD-102" value="YearsExperience" style="text;strokeColor=none;fillColor=none;align=left;verticalAlign=middle;spacingLeft=4;spacingRight=4;overflow=hidden;points=[[0,0.5],[1,0.5]];portConstraint=eastwest;rotatable=0;whiteSpace=wrap;html=1;" vertex="1" parent="L3gRwLuE4_txspqH3eWD-98">
          <mxGeometry y="120" width="140" height="30" as="geometry" />
        </mxCell>
        <mxCell id="L3gRwLuE4_txspqH3eWD-103" value="Qualifications" style="text;strokeColor=none;fillColor=none;align=left;verticalAlign=middle;spacingLeft=4;spacingRight=4;overflow=hidden;points=[[0,0.5],[1,0.5]];portConstraint=eastwest;rotatable=0;whiteSpace=wrap;html=1;" vertex="1" parent="L3gRwLuE4_txspqH3eWD-98">
          <mxGeometry y="150" width="140" height="30" as="geometry" />
        </mxCell>
        <mxCell id="L3gRwLuE4_txspqH3eWD-104" value="SelfRateCompetitiveness" style="text;strokeColor=none;fillColor=none;align=left;verticalAlign=middle;spacingLeft=4;spacingRight=4;overflow=hidden;points=[[0,0.5],[1,0.5]];portConstraint=eastwest;rotatable=0;whiteSpace=wrap;html=1;" vertex="1" parent="L3gRwLuE4_txspqH3eWD-98">
          <mxGeometry y="180" width="140" height="30" as="geometry" />
        </mxCell>
        <mxCell id="L3gRwLuE4_txspqH3eWD-105" value="PositionPreferences" style="text;strokeColor=none;fillColor=none;align=left;verticalAlign=middle;spacingLeft=4;spacingRight=4;overflow=hidden;points=[[0,0.5],[1,0.5]];portConstraint=eastwest;rotatable=0;whiteSpace=wrap;html=1;" vertex="1" parent="L3gRwLuE4_txspqH3eWD-98">
          <mxGeometry y="210" width="140" height="30" as="geometry" />
        </mxCell>
        <mxCell id="L3gRwLuE4_txspqH3eWD-106" value="Recruitment" style="swimlane;fontStyle=0;childLayout=stackLayout;horizontal=1;startSize=30;horizontalStack=0;resizeParent=1;resizeParentMax=0;resizeLast=0;collapsible=1;marginBottom=0;whiteSpace=wrap;html=1;fillColor=#dae8fc;strokeColor=#6c8ebf;" vertex="1" parent="1">
          <mxGeometry x="-3000" y="1520" width="140" height="120" as="geometry" />
        </mxCell>
        <mxCell id="L3gRwLuE4_txspqH3eWD-107" value="StaffID {PK, FK}" style="text;strokeColor=none;fillColor=none;align=left;verticalAlign=middle;spacingLeft=4;spacingRight=4;overflow=hidden;points=[[0,0.5],[1,0.5]];portConstraint=eastwest;rotatable=0;whiteSpace=wrap;html=1;" vertex="1" parent="L3gRwLuE4_txspqH3eWD-106">
          <mxGeometry y="30" width="140" height="30" as="geometry" />
        </mxCell>
        <mxCell id="L3gRwLuE4_txspqH3eWD-108" value="RequestID {PK, FK}" style="text;strokeColor=none;fillColor=none;align=left;verticalAlign=middle;spacingLeft=4;spacingRight=4;overflow=hidden;points=[[0,0.5],[1,0.5]];portConstraint=eastwest;rotatable=0;whiteSpace=wrap;html=1;" vertex="1" parent="L3gRwLuE4_txspqH3eWD-106">
          <mxGeometry y="60" width="140" height="30" as="geometry" />
        </mxCell>
        <mxCell id="L3gRwLuE4_txspqH3eWD-109" value="Status" style="text;strokeColor=none;fillColor=none;align=left;verticalAlign=middle;spacingLeft=4;spacingRight=4;overflow=hidden;points=[[0,0.5],[1,0.5]];portConstraint=eastwest;rotatable=0;whiteSpace=wrap;html=1;" vertex="1" parent="L3gRwLuE4_txspqH3eWD-106">
          <mxGeometry y="90" width="140" height="30" as="geometry" />
        </mxCell>
        <mxCell id="L3gRwLuE4_txspqH3eWD-110" value="Communications" style="swimlane;fontStyle=0;childLayout=stackLayout;horizontal=1;startSize=30;horizontalStack=0;resizeParent=1;resizeParentMax=0;resizeLast=0;collapsible=1;marginBottom=0;whiteSpace=wrap;html=1;fillColor=#dae8fc;strokeColor=#6c8ebf;" vertex="1" parent="1">
          <mxGeometry x="-3430" y="1520" width="140" height="150" as="geometry" />
        </mxCell>
        <mxCell id="L3gRwLuE4_txspqH3eWD-111" value="StaffID {PK, FK}" style="text;strokeColor=none;fillColor=none;align=left;verticalAlign=middle;spacingLeft=4;spacingRight=4;overflow=hidden;points=[[0,0.5],[1,0.5]];portConstraint=eastwest;rotatable=0;whiteSpace=wrap;html=1;" vertex="1" parent="L3gRwLuE4_txspqH3eWD-110">
          <mxGeometry y="30" width="140" height="30" as="geometry" />
        </mxCell>
        <mxCell id="L3gRwLuE4_txspqH3eWD-112" value="ExpressID {PK, FK}" style="text;strokeColor=none;fillColor=none;align=left;verticalAlign=middle;spacingLeft=4;spacingRight=4;overflow=hidden;points=[[0,0.5],[1,0.5]];portConstraint=eastwest;rotatable=0;whiteSpace=wrap;html=1;" vertex="1" parent="L3gRwLuE4_txspqH3eWD-110">
          <mxGeometry y="60" width="140" height="30" as="geometry" />
        </mxCell>
        <mxCell id="L3gRwLuE4_txspqH3eWD-113" value="ResponseDateTime" style="text;strokeColor=none;fillColor=none;align=left;verticalAlign=middle;spacingLeft=4;spacingRight=4;overflow=hidden;points=[[0,0.5],[1,0.5]];portConstraint=eastwest;rotatable=0;whiteSpace=wrap;html=1;" vertex="1" parent="L3gRwLuE4_txspqH3eWD-110">
          <mxGeometry y="90" width="140" height="30" as="geometry" />
        </mxCell>
        <mxCell id="L3gRwLuE4_txspqH3eWD-114" value="AcceptanceStatus" style="text;strokeColor=none;fillColor=none;align=left;verticalAlign=middle;spacingLeft=4;spacingRight=4;overflow=hidden;points=[[0,0.5],[1,0.5]];portConstraint=eastwest;rotatable=0;whiteSpace=wrap;html=1;" vertex="1" parent="L3gRwLuE4_txspqH3eWD-110">
          <mxGeometry y="120" width="140" height="30" as="geometry" />
        </mxCell>
        <mxCell id="L3gRwLuE4_txspqH3eWD-115" value="Position" style="swimlane;fontStyle=0;childLayout=stackLayout;horizontal=1;startSize=30;horizontalStack=0;resizeParent=1;resizeParentMax=0;resizeLast=0;collapsible=1;marginBottom=0;whiteSpace=wrap;html=1;fillColor=#dae8fc;strokeColor=#6c8ebf;" vertex="1" parent="1">
          <mxGeometry x="-2480" y="1100" width="140" height="90" as="geometry" />
        </mxCell>
        <mxCell id="L3gRwLuE4_txspqH3eWD-116" value="PositionID {PK}" style="text;strokeColor=none;fillColor=none;align=left;verticalAlign=middle;spacingLeft=4;spacingRight=4;overflow=hidden;points=[[0,0.5],[1,0.5]];portConstraint=eastwest;rotatable=0;whiteSpace=wrap;html=1;" vertex="1" parent="L3gRwLuE4_txspqH3eWD-115">
          <mxGeometry y="30" width="140" height="30" as="geometry" />
        </mxCell>
        <mxCell id="L3gRwLuE4_txspqH3eWD-117" value="PositionType" style="text;strokeColor=none;fillColor=none;align=left;verticalAlign=middle;spacingLeft=4;spacingRight=4;overflow=hidden;points=[[0,0.5],[1,0.5]];portConstraint=eastwest;rotatable=0;whiteSpace=wrap;html=1;" vertex="1" parent="L3gRwLuE4_txspqH3eWD-115">
          <mxGeometry y="60" width="140" height="30" as="geometry" />
        </mxCell>
        <mxCell id="L3gRwLuE4_txspqH3eWD-118" value="Academic Supervisor" style="swimlane;fontStyle=0;childLayout=stackLayout;horizontal=1;startSize=30;horizontalStack=0;resizeParent=1;resizeParentMax=0;resizeLast=0;collapsible=1;marginBottom=0;whiteSpace=wrap;html=1;fillColor=#dae8fc;strokeColor=#6c8ebf;" vertex="1" parent="1">
          <mxGeometry x="-2480" y="1640" width="140" height="90" as="geometry" />
        </mxCell>
        <mxCell id="L3gRwLuE4_txspqH3eWD-119" value="AcadID {PK}" style="text;strokeColor=none;fillColor=none;align=left;verticalAlign=middle;spacingLeft=4;spacingRight=4;overflow=hidden;points=[[0,0.5],[1,0.5]];portConstraint=eastwest;rotatable=0;whiteSpace=wrap;html=1;" vertex="1" parent="L3gRwLuE4_txspqH3eWD-118">
          <mxGeometry y="30" width="140" height="30" as="geometry" />
        </mxCell>
        <mxCell id="L3gRwLuE4_txspqH3eWD-120" value="AcadName" style="text;strokeColor=none;fillColor=none;align=left;verticalAlign=middle;spacingLeft=4;spacingRight=4;overflow=hidden;points=[[0,0.5],[1,0.5]];portConstraint=eastwest;rotatable=0;whiteSpace=wrap;html=1;" vertex="1" parent="L3gRwLuE4_txspqH3eWD-118">
          <mxGeometry y="60" width="140" height="30" as="geometry" />
        </mxCell>
        <mxCell id="L3gRwLuE4_txspqH3eWD-121" value="" style="endArrow=none;html=1;rounded=0;exitX=1;exitY=0.5;exitDx=0;exitDy=0;" edge="1" parent="1" source="L3gRwLuE4_txspqH3eWD-19">
          <mxGeometry width="50" height="50" relative="1" as="geometry">
            <mxPoint x="-1890" y="1150" as="sourcePoint" />
            <mxPoint x="-1840" y="1100" as="targetPoint" />
            <Array as="points">
              <mxPoint x="-1900" y="1225" />
              <mxPoint x="-1900" y="1100" />
            </Array>
          </mxGeometry>
        </mxCell>
        <mxCell id="L3gRwLuE4_txspqH3eWD-122" value="" style="endArrow=none;html=1;rounded=0;exitX=1;exitY=0.5;exitDx=0;exitDy=0;" edge="1" parent="1" source="L3gRwLuE4_txspqH3eWD-49">
          <mxGeometry width="50" height="50" relative="1" as="geometry">
            <mxPoint x="-1570" y="1140" as="sourcePoint" />
            <mxPoint x="-1520" y="1090" as="targetPoint" />
            <Array as="points">
              <mxPoint x="-1600" y="1165" />
              <mxPoint x="-1600" y="1090" />
            </Array>
          </mxGeometry>
        </mxCell>
        <mxCell id="L3gRwLuE4_txspqH3eWD-123" value="" style="endArrow=none;html=1;rounded=0;exitX=0.571;exitY=-0.006;exitDx=0;exitDy=0;exitPerimeter=0;" edge="1" parent="1" source="L3gRwLuE4_txspqH3eWD-44">
          <mxGeometry width="50" height="50" relative="1" as="geometry">
            <mxPoint x="-1701" y="1230" as="sourcePoint" />
            <mxPoint x="-1200" y="1100" as="targetPoint" />
            <Array as="points">
              <mxPoint x="-1760" y="1000" />
              <mxPoint x="-1320" y="1000" />
              <mxPoint x="-1320" y="1100" />
            </Array>
          </mxGeometry>
        </mxCell>
        <mxCell id="L3gRwLuE4_txspqH3eWD-124" value="" style="endArrow=none;html=1;rounded=0;exitX=1;exitY=0.5;exitDx=0;exitDy=0;entryX=1;entryY=0.5;entryDx=0;entryDy=0;" edge="1" parent="1" source="L3gRwLuE4_txspqH3eWD-23" target="L3gRwLuE4_txspqH3eWD-64">
          <mxGeometry width="50" height="50" relative="1" as="geometry">
            <mxPoint x="-1009.3600000000001" y="1240.0000000000002" as="sourcePoint" />
            <mxPoint x="-1010" y="1162.61" as="targetPoint" />
            <Array as="points">
              <mxPoint x="-1020" y="1275" />
              <mxPoint x="-1020" y="1135" />
            </Array>
          </mxGeometry>
        </mxCell>
        <mxCell id="L3gRwLuE4_txspqH3eWD-126" value="" style="endArrow=none;html=1;rounded=0;" edge="1" parent="1">
          <mxGeometry width="50" height="50" relative="1" as="geometry">
            <mxPoint x="-1280" y="1400" as="sourcePoint" />
            <mxPoint x="-1120" y="1320" as="targetPoint" />
            <Array as="points">
              <mxPoint x="-1120" y="1400" />
            </Array>
          </mxGeometry>
        </mxCell>
        <mxCell id="L3gRwLuE4_txspqH3eWD-127" value="" style="endArrow=none;html=1;rounded=0;" edge="1" parent="1">
          <mxGeometry width="50" height="50" relative="1" as="geometry">
            <mxPoint x="-1120" y="1520" as="sourcePoint" />
            <mxPoint x="-1280" y="1440" as="targetPoint" />
            <Array as="points">
              <mxPoint x="-1120" y="1440" />
            </Array>
          </mxGeometry>
        </mxCell>
        <mxCell id="L3gRwLuE4_txspqH3eWD-128" value="" style="endArrow=none;html=1;rounded=0;exitX=1;exitY=0.333;exitDx=0;exitDy=0;exitPerimeter=0;" edge="1" parent="1" source="L3gRwLuE4_txspqH3eWD-21">
          <mxGeometry width="50" height="50" relative="1" as="geometry">
            <mxPoint x="-1470" y="1490" as="sourcePoint" />
            <mxPoint x="-1420" y="1440" as="targetPoint" />
            <Array as="points">
              <mxPoint x="-1800" y="1280" />
              <mxPoint x="-1800" y="1440" />
            </Array>
          </mxGeometry>
        </mxCell>
        <mxCell id="L3gRwLuE4_txspqH3eWD-129" value="" style="endArrow=none;html=1;rounded=0;exitX=-0.014;exitY=0.262;exitDx=0;exitDy=0;exitPerimeter=0;entryX=0;entryY=0;entryDx=0;entryDy=0;" edge="1" parent="1" source="L3gRwLuE4_txspqH3eWD-43" target="L3gRwLuE4_txspqH3eWD-132">
          <mxGeometry width="50" height="50" relative="1" as="geometry">
            <mxPoint x="-2090" y="1680" as="sourcePoint" />
            <mxPoint x="-2040" y="1630" as="targetPoint" />
            <Array as="points">
              <mxPoint x="-2040" y="1680" />
            </Array>
          </mxGeometry>
        </mxCell>
        <mxCell id="L3gRwLuE4_txspqH3eWD-130" value="" style="endArrow=none;html=1;rounded=0;" edge="1" parent="1">
          <mxGeometry width="50" height="50" relative="1" as="geometry">
            <mxPoint x="-1540" y="1680" as="sourcePoint" />
            <mxPoint x="-1360" y="1560" as="targetPoint" />
            <Array as="points">
              <mxPoint x="-1360" y="1680" />
            </Array>
          </mxGeometry>
        </mxCell>
        <mxCell id="L3gRwLuE4_txspqH3eWD-131" value="" style="endArrow=none;dashed=1;html=1;dashPattern=1 3;strokeWidth=2;rounded=0;entryX=0.57;entryY=1.067;entryDx=0;entryDy=0;entryPerimeter=0;" edge="1" parent="1" target="L3gRwLuE4_txspqH3eWD-55">
          <mxGeometry width="50" height="50" relative="1" as="geometry">
            <mxPoint x="-1600" y="1440" as="sourcePoint" />
            <mxPoint x="-1600" y="1380" as="targetPoint" />
          </mxGeometry>
        </mxCell>
        <mxCell id="L3gRwLuE4_txspqH3eWD-132" value="0..*" style="text;html=1;strokeColor=none;fillColor=none;align=center;verticalAlign=middle;whiteSpace=wrap;rounded=0;" vertex="1" parent="1">
          <mxGeometry x="-2040" y="1300" width="60" height="30" as="geometry" />
        </mxCell>
        <mxCell id="L3gRwLuE4_txspqH3eWD-133" value="0..*" style="text;html=1;strokeColor=none;fillColor=none;align=center;verticalAlign=middle;whiteSpace=wrap;rounded=0;" vertex="1" parent="1">
          <mxGeometry x="-1740" y="1650" width="60" height="30" as="geometry" />
        </mxCell>
        <mxCell id="L3gRwLuE4_txspqH3eWD-134" value="1..1" style="text;html=1;strokeColor=none;fillColor=none;align=center;verticalAlign=middle;whiteSpace=wrap;rounded=0;" vertex="1" parent="1">
          <mxGeometry x="-1420" y="1560" width="60" height="30" as="geometry" />
        </mxCell>
        <mxCell id="L3gRwLuE4_txspqH3eWD-135" value="0..1" style="text;html=1;strokeColor=none;fillColor=none;align=center;verticalAlign=middle;whiteSpace=wrap;rounded=0;" vertex="1" parent="1">
          <mxGeometry x="-1540" y="1650" width="60" height="30" as="geometry" />
        </mxCell>
        <mxCell id="L3gRwLuE4_txspqH3eWD-136" value="1..1" style="text;html=1;strokeColor=none;fillColor=none;align=center;verticalAlign=middle;whiteSpace=wrap;rounded=0;" vertex="1" parent="1">
          <mxGeometry x="-1180" y="1490" width="60" height="30" as="geometry" />
        </mxCell>
        <mxCell id="L3gRwLuE4_txspqH3eWD-137" value="0..*" style="text;html=1;strokeColor=none;fillColor=none;align=center;verticalAlign=middle;whiteSpace=wrap;rounded=0;" vertex="1" parent="1">
          <mxGeometry x="-1280" y="1440" width="60" height="30" as="geometry" />
        </mxCell>
        <mxCell id="L3gRwLuE4_txspqH3eWD-138" value="0..*" style="text;html=1;strokeColor=none;fillColor=none;align=center;verticalAlign=middle;whiteSpace=wrap;rounded=0;" vertex="1" parent="1">
          <mxGeometry x="-1480" y="1410" width="60" height="30" as="geometry" />
        </mxCell>
        <mxCell id="L3gRwLuE4_txspqH3eWD-139" value="0..*" style="text;html=1;strokeColor=none;fillColor=none;align=center;verticalAlign=middle;whiteSpace=wrap;rounded=0;" vertex="1" parent="1">
          <mxGeometry x="-1970" y="1250" width="60" height="30" as="geometry" />
        </mxCell>
        <mxCell id="L3gRwLuE4_txspqH3eWD-140" value="1..*" style="text;html=1;strokeColor=none;fillColor=none;align=center;verticalAlign=middle;whiteSpace=wrap;rounded=0;" vertex="1" parent="1">
          <mxGeometry x="-1900" y="1070" width="60" height="30" as="geometry" />
        </mxCell>
        <mxCell id="L3gRwLuE4_txspqH3eWD-141" value="1..1" style="text;html=1;strokeColor=none;fillColor=none;align=center;verticalAlign=middle;whiteSpace=wrap;rounded=0;" vertex="1" parent="1">
          <mxGeometry x="-1970" y="1194" width="60" height="30" as="geometry" />
        </mxCell>
        <mxCell id="L3gRwLuE4_txspqH3eWD-142" value="1..1" style="text;html=1;strokeColor=none;fillColor=none;align=center;verticalAlign=middle;whiteSpace=wrap;rounded=0;" vertex="1" parent="1">
          <mxGeometry x="-1580" y="1060" width="60" height="30" as="geometry" />
        </mxCell>
        <mxCell id="L3gRwLuE4_txspqH3eWD-143" value="0..*" style="text;html=1;strokeColor=none;fillColor=none;align=center;verticalAlign=middle;whiteSpace=wrap;rounded=0;" vertex="1" parent="1">
          <mxGeometry x="-1700" y="1135" width="60" height="30" as="geometry" />
        </mxCell>
        <mxCell id="L3gRwLuE4_txspqH3eWD-144" value="1..1" style="text;html=1;strokeColor=none;fillColor=none;align=center;verticalAlign=middle;whiteSpace=wrap;rounded=0;" vertex="1" parent="1">
          <mxGeometry x="-1260" y="1070" width="60" height="30" as="geometry" />
        </mxCell>
        <mxCell id="L3gRwLuE4_txspqH3eWD-145" value="0..*" style="text;html=1;strokeColor=none;fillColor=none;align=center;verticalAlign=middle;whiteSpace=wrap;rounded=0;" vertex="1" parent="1">
          <mxGeometry x="-1760" y="1000" width="60" height="30" as="geometry" />
        </mxCell>
        <mxCell id="L3gRwLuE4_txspqH3eWD-146" value="0..*" style="text;html=1;strokeColor=none;fillColor=none;align=center;verticalAlign=middle;whiteSpace=wrap;rounded=0;" vertex="1" parent="1">
          <mxGeometry x="-1060" y="1280" width="60" height="30" as="geometry" />
        </mxCell>
        <mxCell id="L3gRwLuE4_txspqH3eWD-147" value="" style="endArrow=none;html=1;rounded=0;" edge="1" parent="1">
          <mxGeometry width="50" height="50" relative="1" as="geometry">
            <mxPoint x="-1200" y="1240" as="sourcePoint" />
            <mxPoint x="-1440" y="1150" as="targetPoint" />
            <Array as="points">
              <mxPoint x="-1440" y="1240" />
            </Array>
          </mxGeometry>
        </mxCell>
        <mxCell id="L3gRwLuE4_txspqH3eWD-148" value="1..1" style="text;html=1;strokeColor=none;fillColor=none;align=center;verticalAlign=middle;whiteSpace=wrap;rounded=0;" vertex="1" parent="1">
          <mxGeometry x="-1440" y="1150" width="60" height="30" as="geometry" />
        </mxCell>
        <mxCell id="L3gRwLuE4_txspqH3eWD-149" value="0..*" style="text;html=1;strokeColor=none;fillColor=none;align=center;verticalAlign=middle;whiteSpace=wrap;rounded=0;" vertex="1" parent="1">
          <mxGeometry x="-1260" y="1240" width="60" height="30" as="geometry" />
        </mxCell>
        <mxCell id="L3gRwLuE4_txspqH3eWD-151" value="" style="endArrow=none;dashed=1;html=1;dashPattern=1 3;strokeWidth=2;rounded=0;" edge="1" parent="1">
          <mxGeometry width="50" height="50" relative="1" as="geometry">
            <mxPoint x="-1890.5" y="1680" as="sourcePoint" />
            <mxPoint x="-1890.5" y="1600" as="targetPoint" />
          </mxGeometry>
        </mxCell>
        <mxCell id="L3gRwLuE4_txspqH3eWD-152" value="" style="endArrow=none;html=1;rounded=0;exitX=1;exitY=0.333;exitDx=0;exitDy=0;exitPerimeter=0;" edge="1" parent="1" source="L3gRwLuE4_txspqH3eWD-71">
          <mxGeometry width="50" height="50" relative="1" as="geometry">
            <mxPoint x="-3170" y="1250" as="sourcePoint" />
            <mxPoint x="-3120" y="1200" as="targetPoint" />
          </mxGeometry>
        </mxCell>
        <mxCell id="L3gRwLuE4_txspqH3eWD-153" value="" style="endArrow=none;html=1;rounded=0;exitX=1;exitY=0.333;exitDx=0;exitDy=0;exitPerimeter=0;" edge="1" parent="1">
          <mxGeometry width="50" height="50" relative="1" as="geometry">
            <mxPoint x="-2980" y="1120" as="sourcePoint" />
            <mxPoint x="-2800" y="1120" as="targetPoint" />
          </mxGeometry>
        </mxCell>
        <mxCell id="L3gRwLuE4_txspqH3eWD-155" value="" style="endArrow=none;html=1;rounded=0;entryX=0.207;entryY=-0.007;entryDx=0;entryDy=0;entryPerimeter=0;" edge="1" parent="1">
          <mxGeometry width="50" height="50" relative="1" as="geometry">
            <mxPoint x="-3400" y="1340" as="sourcePoint" />
            <mxPoint x="-3400.02" y="1518.9500000000003" as="targetPoint" />
          </mxGeometry>
        </mxCell>
        <mxCell id="L3gRwLuE4_txspqH3eWD-156" value="" style="endArrow=none;html=1;rounded=0;entryX=0;entryY=0.667;entryDx=0;entryDy=0;entryPerimeter=0;" edge="1" parent="1" target="L3gRwLuE4_txspqH3eWD-95">
          <mxGeometry width="50" height="50" relative="1" as="geometry">
            <mxPoint x="-3290" y="1600" as="sourcePoint" />
            <mxPoint x="-3240" y="1550" as="targetPoint" />
            <Array as="points">
              <mxPoint x="-3160" y="1600" />
              <mxPoint x="-3160" y="1760" />
            </Array>
          </mxGeometry>
        </mxCell>
        <mxCell id="L3gRwLuE4_txspqH3eWD-157" value="" style="endArrow=none;html=1;rounded=0;exitX=1;exitY=0.667;exitDx=0;exitDy=0;exitPerimeter=0;" edge="1" parent="1" source="L3gRwLuE4_txspqH3eWD-108">
          <mxGeometry width="50" height="50" relative="1" as="geometry">
            <mxPoint x="-2745" y="1610" as="sourcePoint" />
            <mxPoint x="-2695" y="1540" as="targetPoint" />
            <Array as="points">
              <mxPoint x="-2760" y="1600" />
              <mxPoint x="-2760" y="1540" />
            </Array>
          </mxGeometry>
        </mxCell>
        <mxCell id="L3gRwLuE4_txspqH3eWD-158" value="" style="endArrow=none;html=1;rounded=0;entryX=0;entryY=0.333;entryDx=0;entryDy=0;entryPerimeter=0;" edge="1" parent="1" target="L3gRwLuE4_txspqH3eWD-86">
          <mxGeometry width="50" height="50" relative="1" as="geometry">
            <mxPoint x="-2860" y="1760" as="sourcePoint" />
            <mxPoint x="-2700" y="1680" as="targetPoint" />
            <Array as="points">
              <mxPoint x="-2760" y="1760" />
              <mxPoint x="-2760" y="1680" />
            </Array>
          </mxGeometry>
        </mxCell>
        <mxCell id="L3gRwLuE4_txspqH3eWD-159" value="" style="endArrow=none;html=1;rounded=0;" edge="1" parent="1">
          <mxGeometry width="50" height="50" relative="1" as="geometry">
            <mxPoint x="-2400" y="1270" as="sourcePoint" />
            <mxPoint x="-2400" y="1190" as="targetPoint" />
          </mxGeometry>
        </mxCell>
        <mxCell id="L3gRwLuE4_txspqH3eWD-160" value="" style="endArrow=none;html=1;rounded=0;" edge="1" parent="1">
          <mxGeometry width="50" height="50" relative="1" as="geometry">
            <mxPoint x="-2480" y="1280" as="sourcePoint" />
            <mxPoint x="-2720" y="1190" as="targetPoint" />
            <Array as="points">
              <mxPoint x="-2720" y="1280" />
            </Array>
          </mxGeometry>
        </mxCell>
        <mxCell id="L3gRwLuE4_txspqH3eWD-161" value="" style="endArrow=none;html=1;rounded=0;exitX=0.516;exitY=0.001;exitDx=0;exitDy=0;exitPerimeter=0;" edge="1" parent="1" source="L3gRwLuE4_txspqH3eWD-81">
          <mxGeometry width="50" height="50" relative="1" as="geometry">
            <mxPoint x="-2450" y="1470" as="sourcePoint" />
            <mxPoint x="-2400" y="1420" as="targetPoint" />
            <Array as="points">
              <mxPoint x="-2620" y="1450" />
              <mxPoint x="-2400" y="1450" />
            </Array>
          </mxGeometry>
        </mxCell>
        <mxCell id="L3gRwLuE4_txspqH3eWD-162" value="" style="endArrow=none;html=1;rounded=0;" edge="1" parent="1">
          <mxGeometry width="50" height="50" relative="1" as="geometry">
            <mxPoint x="-2400" y="1640" as="sourcePoint" />
            <mxPoint x="-2550" y="1560" as="targetPoint" />
            <Array as="points">
              <mxPoint x="-2400" y="1560" />
            </Array>
          </mxGeometry>
        </mxCell>
        <mxCell id="L3gRwLuE4_txspqH3eWD-163" value="" style="endArrow=none;html=1;rounded=0;" edge="1" parent="1">
          <mxGeometry width="50" height="50" relative="1" as="geometry">
            <mxPoint x="-2920" y="1520" as="sourcePoint" />
            <mxPoint x="-3320" y="1340" as="targetPoint" />
            <Array as="points">
              <mxPoint x="-2920" y="1440" />
              <mxPoint x="-3320" y="1440" />
            </Array>
          </mxGeometry>
        </mxCell>
        <mxCell id="L3gRwLuE4_txspqH3eWD-166" value="&lt;b&gt;Requests&lt;br&gt;&lt;br&gt;&lt;/b&gt;" style="text;html=1;strokeColor=none;fillColor=none;align=center;verticalAlign=middle;whiteSpace=wrap;rounded=0;" vertex="1" parent="1">
          <mxGeometry x="-1800" y="1395" width="80" height="30" as="geometry" />
        </mxCell>
        <mxCell id="L3gRwLuE4_txspqH3eWD-167" value="&lt;b&gt;Urgently requests&lt;br&gt;&lt;/b&gt;" style="text;html=1;strokeColor=none;fillColor=none;align=center;verticalAlign=middle;whiteSpace=wrap;rounded=0;" vertex="1" parent="1">
          <mxGeometry x="-2125" y="1866.98" width="110" height="30" as="geometry" />
        </mxCell>
        <mxCell id="L3gRwLuE4_txspqH3eWD-168" value="&lt;b&gt;Can be&lt;br&gt;&lt;/b&gt;" style="text;html=1;strokeColor=none;fillColor=none;align=center;verticalAlign=middle;whiteSpace=wrap;rounded=0;" vertex="1" parent="1">
          <mxGeometry x="-1355" y="1600" width="50" height="30" as="geometry" />
        </mxCell>
        <mxCell id="L3gRwLuE4_txspqH3eWD-170" value="&lt;b&gt;Associates&lt;br&gt;&lt;br&gt;&lt;/b&gt;" style="text;html=1;strokeColor=none;fillColor=none;align=center;verticalAlign=middle;whiteSpace=wrap;rounded=0;" vertex="1" parent="1">
          <mxGeometry x="-1660" y="960" width="80" height="30" as="geometry" />
        </mxCell>
        <mxCell id="L3gRwLuE4_txspqH3eWD-171" value="" style="shape=mxgraph.arrows2.wedgeArrow;html=1;bendable=0;startWidth=5.600000000000001;fillColor=strokeColor;defaultFillColor=invert;defaultGradientColor=invert;rounded=0;" edge="1" parent="1">
          <mxGeometry width="100" height="100" relative="1" as="geometry">
            <mxPoint x="-2070" y="1901.8400000000001" as="sourcePoint" />
            <mxPoint x="-2080" y="1901.8400000000001" as="targetPoint" />
          </mxGeometry>
        </mxCell>
        <mxCell id="L3gRwLuE4_txspqH3eWD-172" value="" style="shape=mxgraph.arrows2.wedgeArrow;html=1;bendable=0;startWidth=5.600000000000001;fillColor=strokeColor;defaultFillColor=invert;defaultGradientColor=invert;rounded=0;" edge="1" parent="1">
          <mxGeometry width="100" height="100" relative="1" as="geometry">
            <mxPoint x="-1330.24" y="1630" as="sourcePoint" />
            <mxPoint x="-1330.24" y="1640" as="targetPoint" />
          </mxGeometry>
        </mxCell>
        <mxCell id="L3gRwLuE4_txspqH3eWD-174" value="" style="shape=mxgraph.arrows2.wedgeArrow;html=1;bendable=0;startWidth=5.600000000000001;fillColor=strokeColor;defaultFillColor=invert;defaultGradientColor=invert;rounded=0;" edge="1" parent="1">
          <mxGeometry width="100" height="100" relative="1" as="geometry">
            <mxPoint x="-1870.17" y="1155" as="sourcePoint" />
            <mxPoint x="-1870.17" y="1145" as="targetPoint" />
          </mxGeometry>
        </mxCell>
        <mxCell id="L3gRwLuE4_txspqH3eWD-175" value="" style="shape=mxgraph.arrows2.wedgeArrow;html=1;bendable=0;startWidth=5.600000000000001;fillColor=strokeColor;defaultFillColor=invert;defaultGradientColor=invert;rounded=0;" edge="1" parent="1">
          <mxGeometry width="100" height="100" relative="1" as="geometry">
            <mxPoint x="-1620" y="985" as="sourcePoint" />
            <mxPoint x="-1630" y="985" as="targetPoint" />
          </mxGeometry>
        </mxCell>
        <mxCell id="L3gRwLuE4_txspqH3eWD-178" value="&lt;b&gt;Qualified for&lt;/b&gt;" style="text;html=1;strokeColor=none;fillColor=none;align=center;verticalAlign=middle;whiteSpace=wrap;rounded=0;" vertex="1" parent="1">
          <mxGeometry x="-1900" y="1160" width="60" height="30" as="geometry" />
        </mxCell>
        <mxCell id="L3gRwLuE4_txspqH3eWD-179" value="&lt;b&gt;Associates&lt;br&gt;&lt;br&gt;&lt;/b&gt;" style="text;html=1;strokeColor=none;fillColor=none;align=center;verticalAlign=middle;whiteSpace=wrap;rounded=0;" vertex="1" parent="1">
          <mxGeometry x="-1600" y="1110" width="80" height="30" as="geometry" />
        </mxCell>
        <mxCell id="L3gRwLuE4_txspqH3eWD-180" value="" style="shape=mxgraph.arrows2.wedgeArrow;html=1;bendable=0;startWidth=5.600000000000001;fillColor=strokeColor;defaultFillColor=invert;defaultGradientColor=invert;rounded=0;" edge="1" parent="1">
          <mxGeometry width="100" height="100" relative="1" as="geometry">
            <mxPoint x="-1560.1000000000001" y="1135" as="sourcePoint" />
            <mxPoint x="-1560.04" y="1143.66" as="targetPoint" />
          </mxGeometry>
        </mxCell>
        <mxCell id="L3gRwLuE4_txspqH3eWD-181" value="&lt;b&gt;Designated to&lt;br&gt;&lt;/b&gt;" style="text;html=1;strokeColor=none;fillColor=none;align=center;verticalAlign=middle;whiteSpace=wrap;rounded=0;" vertex="1" parent="1">
          <mxGeometry x="-1020" y="1160" width="80" height="30" as="geometry" />
        </mxCell>
        <mxCell id="L3gRwLuE4_txspqH3eWD-182" value="1..1" style="text;html=1;strokeColor=none;fillColor=none;align=center;verticalAlign=middle;whiteSpace=wrap;rounded=0;" vertex="1" parent="1">
          <mxGeometry x="-1060" y="1105" width="60" height="30" as="geometry" />
        </mxCell>
        <mxCell id="L3gRwLuE4_txspqH3eWD-184" value="" style="shape=mxgraph.arrows2.wedgeArrow;html=1;bendable=0;startWidth=10.000000000000004;fillColor=strokeColor;defaultFillColor=invert;defaultGradientColor=invert;rounded=0;" edge="1" parent="1">
          <mxGeometry width="100" height="100" relative="1" as="geometry">
            <mxPoint x="-980" y="1194" as="sourcePoint" />
            <mxPoint x="-980" y="1210" as="targetPoint" />
          </mxGeometry>
        </mxCell>
        <mxCell id="L3gRwLuE4_txspqH3eWD-185" value="&lt;b&gt;Designated to&lt;br&gt;&lt;/b&gt;" style="text;html=1;strokeColor=none;fillColor=none;align=center;verticalAlign=middle;whiteSpace=wrap;rounded=0;" vertex="1" parent="1">
          <mxGeometry x="-1380" y="1190" width="80" height="30" as="geometry" />
        </mxCell>
        <mxCell id="L3gRwLuE4_txspqH3eWD-186" value="" style="shape=mxgraph.arrows2.wedgeArrow;html=1;bendable=0;startWidth=5.600000000000001;fillColor=strokeColor;defaultFillColor=invert;defaultGradientColor=invert;rounded=0;" edge="1" parent="1">
          <mxGeometry width="100" height="100" relative="1" as="geometry">
            <mxPoint x="-1343.2" y="1225" as="sourcePoint" />
            <mxPoint x="-1333" y="1225" as="targetPoint" />
          </mxGeometry>
        </mxCell>
        <mxCell id="L3gRwLuE4_txspqH3eWD-188" value="" style="shape=mxgraph.arrows2.wedgeArrow;html=1;bendable=0;startWidth=5.600000000000001;fillColor=strokeColor;defaultFillColor=invert;defaultGradientColor=invert;rounded=0;" edge="1" parent="1">
          <mxGeometry width="100" height="100" relative="1" as="geometry">
            <mxPoint x="-1760.21" y="1390" as="sourcePoint" />
            <mxPoint x="-1760.21" y="1380" as="targetPoint" />
          </mxGeometry>
        </mxCell>
        <mxCell id="L3gRwLuE4_txspqH3eWD-190" value="&lt;b&gt;Assigned to&lt;br&gt;&lt;/b&gt;" style="text;html=1;strokeColor=none;fillColor=none;align=center;verticalAlign=middle;whiteSpace=wrap;rounded=0;" vertex="1" parent="1">
          <mxGeometry x="-1110" y="1460" width="80" height="30" as="geometry" />
        </mxCell>
        <mxCell id="L3gRwLuE4_txspqH3eWD-191" value="" style="shape=mxgraph.arrows2.wedgeArrow;html=1;bendable=0;startWidth=5.600000000000001;fillColor=strokeColor;defaultFillColor=invert;defaultGradientColor=invert;rounded=0;" edge="1" parent="1">
          <mxGeometry width="100" height="100" relative="1" as="geometry">
            <mxPoint x="-1070.17" y="1460" as="sourcePoint" />
            <mxPoint x="-1070.17" y="1450" as="targetPoint" />
          </mxGeometry>
        </mxCell>
        <mxCell id="L3gRwLuE4_txspqH3eWD-194" value="&lt;b&gt;Urgently Requests&lt;br&gt;&lt;br&gt;&lt;/b&gt;" style="text;html=1;strokeColor=none;fillColor=none;align=center;verticalAlign=middle;whiteSpace=wrap;rounded=0;" vertex="1" parent="1">
          <mxGeometry x="-2040" y="1650" width="80" height="30" as="geometry" />
        </mxCell>
        <mxCell id="L3gRwLuE4_txspqH3eWD-195" value="" style="shape=mxgraph.arrows2.wedgeArrow;html=1;bendable=0;startWidth=5.600000000000001;fillColor=strokeColor;defaultFillColor=invert;defaultGradientColor=invert;rounded=0;" edge="1" parent="1">
          <mxGeometry width="100" height="100" relative="1" as="geometry">
            <mxPoint x="-2000.21" y="1645" as="sourcePoint" />
            <mxPoint x="-2000.21" y="1635" as="targetPoint" />
          </mxGeometry>
        </mxCell>
        <mxCell id="L3gRwLuE4_txspqH3eWD-197" value="&lt;b&gt;Urgently Requests&lt;br&gt;&lt;br&gt;&lt;/b&gt;" style="text;html=1;strokeColor=none;fillColor=none;align=center;verticalAlign=middle;whiteSpace=wrap;rounded=0;" vertex="1" parent="1">
          <mxGeometry x="-3160" y="1730" width="80" height="30" as="geometry" />
        </mxCell>
        <mxCell id="L3gRwLuE4_txspqH3eWD-198" value="" style="shape=mxgraph.arrows2.wedgeArrow;html=1;bendable=0;startWidth=5.600000000000001;fillColor=strokeColor;defaultFillColor=invert;defaultGradientColor=invert;rounded=0;" edge="1" parent="1">
          <mxGeometry width="100" height="100" relative="1" as="geometry">
            <mxPoint x="-3120" y="1720" as="sourcePoint" />
            <mxPoint x="-3120" y="1710" as="targetPoint" />
          </mxGeometry>
        </mxCell>
        <mxCell id="L3gRwLuE4_txspqH3eWD-199" value="&lt;b&gt;Requests&lt;br&gt;&lt;/b&gt;" style="text;html=1;strokeColor=none;fillColor=none;align=center;verticalAlign=middle;whiteSpace=wrap;rounded=0;" vertex="1" parent="1">
          <mxGeometry x="-2800" y="1600" width="80" height="30" as="geometry" />
        </mxCell>
        <mxCell id="L3gRwLuE4_txspqH3eWD-200" value="" style="shape=mxgraph.arrows2.wedgeArrow;html=1;bendable=0;startWidth=5.600000000000001;fillColor=strokeColor;defaultFillColor=invert;defaultGradientColor=invert;rounded=0;" edge="1" parent="1">
          <mxGeometry width="100" height="100" relative="1" as="geometry">
            <mxPoint x="-2800" y="1614.8" as="sourcePoint" />
            <mxPoint x="-2810" y="1614.8" as="targetPoint" />
          </mxGeometry>
        </mxCell>
        <mxCell id="L3gRwLuE4_txspqH3eWD-201" value="&lt;b&gt;Can be&lt;br&gt;&lt;/b&gt;" style="text;html=1;strokeColor=none;fillColor=none;align=center;verticalAlign=middle;whiteSpace=wrap;rounded=0;" vertex="1" parent="1">
          <mxGeometry x="-2760" y="1710" width="50" height="30" as="geometry" />
        </mxCell>
        <mxCell id="L3gRwLuE4_txspqH3eWD-203" value="&lt;b&gt;Qualified for&lt;/b&gt;" style="text;html=1;strokeColor=none;fillColor=none;align=center;verticalAlign=middle;whiteSpace=wrap;rounded=0;" vertex="1" parent="1">
          <mxGeometry x="-3250" y="1160" width="80" height="30" as="geometry" />
        </mxCell>
        <mxCell id="L3gRwLuE4_txspqH3eWD-204" value="&lt;b&gt;Associates&lt;br&gt;&lt;br&gt;&lt;/b&gt;" style="text;html=1;strokeColor=none;fillColor=none;align=center;verticalAlign=middle;whiteSpace=wrap;rounded=0;" vertex="1" parent="1">
          <mxGeometry x="-2930" y="1150" width="80" height="30" as="geometry" />
        </mxCell>
        <mxCell id="L3gRwLuE4_txspqH3eWD-205" value="&lt;b&gt;Designated to&lt;br&gt;&lt;/b&gt;" style="text;html=1;strokeColor=none;fillColor=none;align=center;verticalAlign=middle;whiteSpace=wrap;rounded=0;" vertex="1" parent="1">
          <mxGeometry x="-2510" y="1210" width="80" height="30" as="geometry" />
        </mxCell>
        <mxCell id="L3gRwLuE4_txspqH3eWD-206" value="&lt;b&gt;Designated to&lt;br&gt;&lt;/b&gt;" style="text;html=1;strokeColor=none;fillColor=none;align=center;verticalAlign=middle;whiteSpace=wrap;rounded=0;" vertex="1" parent="1">
          <mxGeometry x="-2680" y="1230" width="80" height="30" as="geometry" />
        </mxCell>
        <mxCell id="L3gRwLuE4_txspqH3eWD-207" value="&lt;b&gt;Assigned to&lt;br&gt;&lt;/b&gt;" style="text;html=1;strokeColor=none;fillColor=none;align=center;verticalAlign=middle;whiteSpace=wrap;rounded=0;" vertex="1" parent="1">
          <mxGeometry x="-2390" y="1570" width="80" height="30" as="geometry" />
        </mxCell>
        <mxCell id="L3gRwLuE4_txspqH3eWD-208" value="&lt;b&gt;Assigned to&lt;br&gt;&lt;/b&gt;" style="text;html=1;strokeColor=none;fillColor=none;align=center;verticalAlign=middle;whiteSpace=wrap;rounded=0;" vertex="1" parent="1">
          <mxGeometry x="-1110" y="1335" width="80" height="30" as="geometry" />
        </mxCell>
        <mxCell id="L3gRwLuE4_txspqH3eWD-209" value="" style="shape=mxgraph.arrows2.wedgeArrow;html=1;bendable=0;startWidth=5.600000000000001;fillColor=strokeColor;defaultFillColor=invert;defaultGradientColor=invert;rounded=0;" edge="1" parent="1">
          <mxGeometry width="100" height="100" relative="1" as="geometry">
            <mxPoint x="-1070.2" y="1370" as="sourcePoint" />
            <mxPoint x="-1070.2" y="1380" as="targetPoint" />
          </mxGeometry>
        </mxCell>
        <mxCell id="L3gRwLuE4_txspqH3eWD-210" value="&lt;b&gt;Assigned to&lt;br&gt;&lt;/b&gt;" style="text;html=1;strokeColor=none;fillColor=none;align=center;verticalAlign=middle;whiteSpace=wrap;rounded=0;" vertex="1" parent="1">
          <mxGeometry x="-2540" y="1450" width="80" height="30" as="geometry" />
        </mxCell>
        <mxCell id="L3gRwLuE4_txspqH3eWD-211" value="" style="shape=mxgraph.arrows2.wedgeArrow;html=1;bendable=0;startWidth=5.600000000000001;fillColor=strokeColor;defaultFillColor=invert;defaultGradientColor=invert;rounded=0;" edge="1" parent="1">
          <mxGeometry width="100" height="100" relative="1" as="geometry">
            <mxPoint x="-2550" y="1464.8" as="sourcePoint" />
            <mxPoint x="-2560" y="1464.8" as="targetPoint" />
          </mxGeometry>
        </mxCell>
        <mxCell id="L3gRwLuE4_txspqH3eWD-212" value="" style="shape=mxgraph.arrows2.wedgeArrow;html=1;bendable=0;startWidth=5.600000000000001;fillColor=strokeColor;defaultFillColor=invert;defaultGradientColor=invert;rounded=0;" edge="1" parent="1">
          <mxGeometry width="100" height="100" relative="1" as="geometry">
            <mxPoint x="-2350.17" y="1570" as="sourcePoint" />
            <mxPoint x="-2350.17" y="1560" as="targetPoint" />
          </mxGeometry>
        </mxCell>
        <mxCell id="L3gRwLuE4_txspqH3eWD-213" value="" style="shape=mxgraph.arrows2.wedgeArrow;html=1;bendable=0;startWidth=5.600000000000001;fillColor=strokeColor;defaultFillColor=invert;defaultGradientColor=invert;rounded=0;" edge="1" parent="1">
          <mxGeometry width="100" height="100" relative="1" as="geometry">
            <mxPoint x="-2420" y="1220" as="sourcePoint" />
            <mxPoint x="-2420" y="1230" as="targetPoint" />
          </mxGeometry>
        </mxCell>
        <mxCell id="L3gRwLuE4_txspqH3eWD-214" value="" style="shape=mxgraph.arrows2.wedgeArrow;html=1;bendable=0;startWidth=5.600000000000001;fillColor=strokeColor;defaultFillColor=invert;defaultGradientColor=invert;rounded=0;" edge="1" parent="1">
          <mxGeometry width="100" height="100" relative="1" as="geometry">
            <mxPoint x="-2640" y="1269.6000000000001" as="sourcePoint" />
            <mxPoint x="-2630" y="1269.9" as="targetPoint" />
          </mxGeometry>
        </mxCell>
        <mxCell id="L3gRwLuE4_txspqH3eWD-216" value="" style="shape=mxgraph.arrows2.wedgeArrow;html=1;bendable=0;startWidth=5.600000000000001;fillColor=strokeColor;defaultFillColor=invert;defaultGradientColor=invert;rounded=0;" edge="1" parent="1">
          <mxGeometry width="100" height="100" relative="1" as="geometry">
            <mxPoint x="-2735.2" y="1740" as="sourcePoint" />
            <mxPoint x="-2735.2" y="1750" as="targetPoint" />
          </mxGeometry>
        </mxCell>
        <mxCell id="L3gRwLuE4_txspqH3eWD-217" value="" style="shape=mxgraph.arrows2.wedgeArrow;html=1;bendable=0;startWidth=5.600000000000001;fillColor=strokeColor;defaultFillColor=invert;defaultGradientColor=invert;rounded=0;" edge="1" parent="1">
          <mxGeometry width="100" height="100" relative="1" as="geometry">
            <mxPoint x="-2885" y="1135.0000000000002" as="sourcePoint" />
            <mxPoint x="-2895" y="1135" as="targetPoint" />
          </mxGeometry>
        </mxCell>
        <mxCell id="L3gRwLuE4_txspqH3eWD-219" value="" style="shape=mxgraph.arrows2.wedgeArrow;html=1;bendable=0;startWidth=5.600000000000001;fillColor=strokeColor;defaultFillColor=invert;defaultGradientColor=invert;rounded=0;" edge="1" parent="1">
          <mxGeometry width="100" height="100" relative="1" as="geometry">
            <mxPoint x="-3215" y="1189.7200000000003" as="sourcePoint" />
            <mxPoint x="-3205" y="1189.72" as="targetPoint" />
          </mxGeometry>
        </mxCell>
        <mxCell id="L3gRwLuE4_txspqH3eWD-220" value="&lt;b&gt;IsRecruited&lt;br&gt;&lt;/b&gt;" style="text;html=1;strokeColor=none;fillColor=none;align=center;verticalAlign=middle;whiteSpace=wrap;rounded=0;" vertex="1" parent="1">
          <mxGeometry x="-3170" y="1389.78" width="80" height="30" as="geometry" />
        </mxCell>
        <mxCell id="L3gRwLuE4_txspqH3eWD-221" value="" style="shape=mxgraph.arrows2.wedgeArrow;html=1;bendable=0;startWidth=5.600000000000001;fillColor=strokeColor;defaultFillColor=invert;defaultGradientColor=invert;rounded=0;" edge="1" parent="1">
          <mxGeometry width="100" height="100" relative="1" as="geometry">
            <mxPoint x="-3130" y="1429.38" as="sourcePoint" />
            <mxPoint x="-3120" y="1429.68" as="targetPoint" />
          </mxGeometry>
        </mxCell>
        <mxCell id="L3gRwLuE4_txspqH3eWD-223" value="&lt;b&gt;UrgentlyRecruited&lt;br&gt;&lt;/b&gt;" style="text;html=1;strokeColor=none;fillColor=none;align=center;verticalAlign=middle;whiteSpace=wrap;rounded=0;" vertex="1" parent="1">
          <mxGeometry x="-3530" y="1409.9999999999998" width="80" height="30" as="geometry" />
        </mxCell>
        <mxCell id="L3gRwLuE4_txspqH3eWD-224" value="" style="shape=mxgraph.arrows2.wedgeArrow;html=1;bendable=0;startWidth=6.944444444444443;fillColor=strokeColor;defaultFillColor=invert;defaultGradientColor=invert;rounded=0;" edge="1" parent="1">
          <mxGeometry width="100" height="100" relative="1" as="geometry">
            <mxPoint x="-3420" y="1420" as="sourcePoint" />
            <mxPoint x="-3420" y="1430" as="targetPoint" />
          </mxGeometry>
        </mxCell>
        <mxCell id="L3gRwLuE4_txspqH3eWD-225" value="1..1" style="text;html=1;strokeColor=none;fillColor=none;align=center;verticalAlign=middle;whiteSpace=wrap;rounded=0;" vertex="1" parent="1">
          <mxGeometry x="-3300" y="1165" width="60" height="30" as="geometry" />
        </mxCell>
        <mxCell id="L3gRwLuE4_txspqH3eWD-226" value="1..1" style="text;html=1;strokeColor=none;fillColor=none;align=center;verticalAlign=middle;whiteSpace=wrap;rounded=0;" vertex="1" parent="1">
          <mxGeometry x="-3400" y="1340" width="60" height="30" as="geometry" />
        </mxCell>
        <mxCell id="L3gRwLuE4_txspqH3eWD-228" value="1..1" style="text;html=1;strokeColor=none;fillColor=none;align=center;verticalAlign=middle;whiteSpace=wrap;rounded=0;" vertex="1" parent="1">
          <mxGeometry x="-3060" y="1730" width="60" height="30" as="geometry" />
        </mxCell>
        <mxCell id="L3gRwLuE4_txspqH3eWD-229" value="1..1" style="text;html=1;strokeColor=none;fillColor=none;align=center;verticalAlign=middle;whiteSpace=wrap;rounded=0;" vertex="1" parent="1">
          <mxGeometry x="-2860" y="1120" width="60" height="30" as="geometry" />
        </mxCell>
        <mxCell id="L3gRwLuE4_txspqH3eWD-230" value="1..1" style="text;html=1;strokeColor=none;fillColor=none;align=center;verticalAlign=middle;whiteSpace=wrap;rounded=0;" vertex="1" parent="1">
          <mxGeometry x="-2780" y="1190" width="60" height="30" as="geometry" />
        </mxCell>
        <mxCell id="L3gRwLuE4_txspqH3eWD-231" value="1..1" style="text;html=1;strokeColor=none;fillColor=none;align=center;verticalAlign=middle;whiteSpace=wrap;rounded=0;" vertex="1" parent="1">
          <mxGeometry x="-2400" y="1190" width="60" height="30" as="geometry" />
        </mxCell>
        <mxCell id="L3gRwLuE4_txspqH3eWD-232" value="1..1" style="text;html=1;strokeColor=none;fillColor=none;align=center;verticalAlign=middle;whiteSpace=wrap;rounded=0;" vertex="1" parent="1">
          <mxGeometry x="-2400" y="1420" width="60" height="30" as="geometry" />
        </mxCell>
        <mxCell id="L3gRwLuE4_txspqH3eWD-233" value="1..1" style="text;html=1;strokeColor=none;fillColor=none;align=center;verticalAlign=middle;whiteSpace=wrap;rounded=0;" vertex="1" parent="1">
          <mxGeometry x="-2400" y="1610" width="60" height="30" as="geometry" />
        </mxCell>
        <mxCell id="L3gRwLuE4_txspqH3eWD-234" value="1..1" style="text;html=1;strokeColor=none;fillColor=none;align=center;verticalAlign=middle;whiteSpace=wrap;rounded=0;" vertex="1" parent="1">
          <mxGeometry x="-2755" y="1540" width="60" height="30" as="geometry" />
        </mxCell>
        <mxCell id="L3gRwLuE4_txspqH3eWD-235" value="1..1" style="text;html=1;strokeColor=none;fillColor=none;align=center;verticalAlign=middle;whiteSpace=wrap;rounded=0;" vertex="1" parent="1">
          <mxGeometry x="-2755" y="1650" width="60" height="30" as="geometry" />
        </mxCell>
        <mxCell id="L3gRwLuE4_txspqH3eWD-236" value="0..1" style="text;html=1;strokeColor=none;fillColor=none;align=center;verticalAlign=middle;whiteSpace=wrap;rounded=0;" vertex="1" parent="1">
          <mxGeometry x="-2860" y="1730" width="60" height="30" as="geometry" />
        </mxCell>
        <mxCell id="L3gRwLuE4_txspqH3eWD-237" value="1..1" style="text;html=1;strokeColor=none;fillColor=none;align=center;verticalAlign=middle;whiteSpace=wrap;rounded=0;" vertex="1" parent="1">
          <mxGeometry x="-3320" y="1340" width="60" height="30" as="geometry" />
        </mxCell>
        <mxCell id="L3gRwLuE4_txspqH3eWD-238" value="0..*" style="text;html=1;strokeColor=none;fillColor=none;align=center;verticalAlign=middle;whiteSpace=wrap;rounded=0;" vertex="1" parent="1">
          <mxGeometry x="-2980" y="1120" width="60" height="30" as="geometry" />
        </mxCell>
        <mxCell id="L3gRwLuE4_txspqH3eWD-239" value="1..*" style="text;html=1;strokeColor=none;fillColor=none;align=center;verticalAlign=middle;whiteSpace=wrap;rounded=0;" vertex="1" parent="1">
          <mxGeometry x="-3180" y="1170" width="60" height="30" as="geometry" />
        </mxCell>
        <mxCell id="L3gRwLuE4_txspqH3eWD-240" value="0..*" style="text;html=1;strokeColor=none;fillColor=none;align=center;verticalAlign=middle;whiteSpace=wrap;rounded=0;" vertex="1" parent="1">
          <mxGeometry x="-2540" y="1280" width="60" height="30" as="geometry" />
        </mxCell>
        <mxCell id="L3gRwLuE4_txspqH3eWD-241" value="0..*" style="text;html=1;strokeColor=none;fillColor=none;align=center;verticalAlign=middle;whiteSpace=wrap;rounded=0;" vertex="1" parent="1">
          <mxGeometry x="-2400" y="1240" width="60" height="30" as="geometry" />
        </mxCell>
        <mxCell id="L3gRwLuE4_txspqH3eWD-242" value="0..*" style="text;html=1;strokeColor=none;fillColor=none;align=center;verticalAlign=middle;whiteSpace=wrap;rounded=0;" vertex="1" parent="1">
          <mxGeometry x="-2620" y="1490" width="60" height="30" as="geometry" />
        </mxCell>
        <mxCell id="L3gRwLuE4_txspqH3eWD-243" value="0..*" style="text;html=1;strokeColor=none;fillColor=none;align=center;verticalAlign=middle;whiteSpace=wrap;rounded=0;" vertex="1" parent="1">
          <mxGeometry x="-2550" y="1560" width="60" height="30" as="geometry" />
        </mxCell>
        <mxCell id="L3gRwLuE4_txspqH3eWD-244" value="0..*" style="text;html=1;strokeColor=none;fillColor=none;align=center;verticalAlign=middle;whiteSpace=wrap;rounded=0;" vertex="1" parent="1">
          <mxGeometry x="-2920" y="1490" width="60" height="30" as="geometry" />
        </mxCell>
        <mxCell id="L3gRwLuE4_txspqH3eWD-245" value="0..*" style="text;html=1;strokeColor=none;fillColor=none;align=center;verticalAlign=middle;whiteSpace=wrap;rounded=0;" vertex="1" parent="1">
          <mxGeometry x="-2860" y="1570" width="60" height="30" as="geometry" />
        </mxCell>
        <mxCell id="L3gRwLuE4_txspqH3eWD-246" value="0..*" style="text;html=1;strokeColor=none;fillColor=none;align=center;verticalAlign=middle;whiteSpace=wrap;rounded=0;" vertex="1" parent="1">
          <mxGeometry x="-3290" y="1570" width="60" height="30" as="geometry" />
        </mxCell>
        <mxCell id="L3gRwLuE4_txspqH3eWD-247" value="0..*" style="text;html=1;strokeColor=none;fillColor=none;align=center;verticalAlign=middle;whiteSpace=wrap;rounded=0;" vertex="1" parent="1">
          <mxGeometry x="-3400" y="1490" width="60" height="30" as="geometry" />
        </mxCell>
        <mxCell id="L3gRwLuE4_txspqH3eWD-248" value="" style="endArrow=none;html=1;rounded=0;entryX=0.573;entryY=0;entryDx=0;entryDy=0;entryPerimeter=0;" edge="1" parent="1" target="L3gRwLuE4_txspqH3eWD-115">
          <mxGeometry width="50" height="50" relative="1" as="geometry">
            <mxPoint x="-3080" y="1101" as="sourcePoint" />
            <mxPoint x="-2398" y="1101" as="targetPoint" />
            <Array as="points">
              <mxPoint x="-3080" y="1070" />
              <mxPoint x="-2400" y="1070" />
            </Array>
          </mxGeometry>
        </mxCell>
        <mxCell id="L3gRwLuE4_txspqH3eWD-249" value="&lt;b&gt;Associates&lt;br&gt;&lt;br&gt;&lt;/b&gt;" style="text;html=1;strokeColor=none;fillColor=none;align=center;verticalAlign=middle;whiteSpace=wrap;rounded=0;" vertex="1" parent="1">
          <mxGeometry x="-2720" y="1030" width="80" height="30" as="geometry" />
        </mxCell>
        <mxCell id="L3gRwLuE4_txspqH3eWD-250" value="" style="shape=mxgraph.arrows2.wedgeArrow;html=1;bendable=0;startWidth=5.600000000000001;fillColor=strokeColor;defaultFillColor=invert;defaultGradientColor=invert;rounded=0;" edge="1" parent="1">
          <mxGeometry width="100" height="100" relative="1" as="geometry">
            <mxPoint x="-2680" y="1059.5300000000002" as="sourcePoint" />
            <mxPoint x="-2690" y="1059.53" as="targetPoint" />
          </mxGeometry>
        </mxCell>
        <mxCell id="L3gRwLuE4_txspqH3eWD-251" value="1..1" style="text;html=1;strokeColor=none;fillColor=none;align=center;verticalAlign=middle;whiteSpace=wrap;rounded=0;" vertex="1" parent="1">
          <mxGeometry x="-2460" y="1070" width="60" height="30" as="geometry" />
        </mxCell>
        <mxCell id="L3gRwLuE4_txspqH3eWD-252" value="0..*" style="text;html=1;strokeColor=none;fillColor=none;align=center;verticalAlign=middle;whiteSpace=wrap;rounded=0;" vertex="1" parent="1">
          <mxGeometry x="-3080" y="1070" width="60" height="30" as="geometry" />
        </mxCell>
      </root>
    </mxGraphModel>
  </diagram>
</mxfile>
